<?xml version="1.0" encoding="utf-8"?>
<!-- Generator: Adobe Illustrator 16.0.4, SVG Export Plug-In . SVG Version: 6.00 Build 0)  -->
<!DOCTYPE svg PUBLIC "-//W3C//DTD SVG 1.1//EN" "http://www.w3.org/Graphics/SVG/1.1/DTD/svg11.dtd">
<svg version="1.1" id="Layer_1" xmlns="http://www.w3.org/2000/svg" xmlns:xlink="http://www.w3.org/1999/xlink" x="0px" y="0px"
	 width="298.077px" height="294.531px" viewBox="0 0 298.077 294.531" enable-background="new 0 0 298.077 294.531"
	 xml:space="preserve">
<g>
	<g>
		<path fill="#686868" d="M64.869,0.001c-14.562,0-26.359,14.529-26.359,32.474v85.055L0,131.865l38.51,62.984v67.207
			c0,17.941,11.797,32.475,26.359,32.475h206.862c14.549,0,26.346-14.533,26.346-32.475V32.475
			c0-17.944-11.797-32.474-26.346-32.474H64.869z"/>
	</g>
</g>
<g>
	<rect x="289.417" y="27.53" fill="none" width="257.265" height="42.735"/>
</g>
<g>
	<rect x="68.034" y="65.975" fill="none" width="200.126" height="212.319"/>
	<path fill="#FFFFFF" d="M74.678,68.869v0.451c0,1.296-0.396,2.124-1.278,2.539c1.062,0.414,1.477,1.367,1.477,2.7v1.026
		c0,1.944-1.026,2.988-3.007,2.988h-3.115V65.971h2.989C73.795,65.971,74.678,66.926,74.678,68.869z M70.734,67.771v3.331h0.774
		c0.738,0,1.188-0.324,1.188-1.333v-0.701c0-0.9-0.306-1.297-1.008-1.297H70.734z M70.734,72.902v3.872h1.134
		c0.667,0,1.026-0.306,1.026-1.243v-1.098c0-1.17-0.378-1.531-1.278-1.531H70.734z"/>
	<path fill="#FFFFFF" d="M82.472,78.574h-1.999l-0.342-2.286H77.7l-0.342,2.286H75.54l2.017-12.604h2.899L82.472,78.574z
		 M77.952,74.578h1.909l-0.955-6.375L77.952,74.578z"/>
	<path fill="#FFFFFF" d="M87.529,78.574c-0.108-0.324-0.18-0.521-0.18-1.548v-1.98c0-1.171-0.396-1.603-1.296-1.603h-0.685v5.131
		h-1.98V65.971h2.989c2.053,0,2.935,0.955,2.935,2.898v0.991c0,1.296-0.414,2.143-1.296,2.557c0.99,0.414,1.314,1.368,1.314,2.683
		v1.945c0,0.611,0.018,1.062,0.216,1.529H87.529z M85.368,67.771v3.871h0.774c0.738,0,1.188-0.324,1.188-1.332v-1.242
		c0-0.9-0.306-1.297-1.008-1.297H85.368z"/>
	<path fill="#FFFFFF" d="M90.624,65.971h1.98v12.604h-1.98V65.971z"/>
	<path fill="#FFFFFF" d="M100.453,78.574h-1.999l-0.342-2.286h-2.431l-0.342,2.286h-1.818l2.017-12.604h2.898L100.453,78.574z
		 M95.934,74.578h1.909l-0.955-6.375L95.934,74.578z"/>
	<path fill="#FFFFFF" d="M100.109,65.971h6.122v1.801h-2.071v10.803h-1.98V67.771h-2.071V65.971z"/>
	<path fill="#FFFFFF" d="M111.234,78.574c-0.108-0.324-0.18-0.521-0.18-1.548v-1.98c0-1.171-0.396-1.603-1.297-1.603h-0.684v5.131
		h-1.98V65.971h2.989c2.053,0,2.935,0.955,2.935,2.898v0.991c0,1.296-0.414,2.143-1.296,2.557c0.99,0.414,1.314,1.368,1.314,2.683
		v1.945c0,0.611,0.018,1.062,0.216,1.529H111.234z M109.074,67.771v3.871h0.774c0.738,0,1.188-0.324,1.188-1.332v-1.242
		c0-0.9-0.306-1.297-1.008-1.297H109.074z"/>
	<path fill="#FFFFFF" d="M114.329,65.971h1.98v12.604h-1.98V65.971z"/>
	<path fill="#FFFFFF" d="M123.493,73.875v1.675c0,2.017-1.008,3.169-2.953,3.169c-1.945,0-2.953-1.152-2.953-3.169v-6.554
		c0-2.017,1.008-3.169,2.953-3.169c1.944,0,2.953,1.152,2.953,3.169v1.225h-1.873v-1.352c0-0.899-0.396-1.242-1.026-1.242
		c-0.63,0-1.026,0.343-1.026,1.242v6.807c0,0.9,0.396,1.225,1.026,1.225c0.63,0,1.026-0.324,1.026-1.225v-1.801H123.493z"/>
	<path fill="#FFFFFF" d="M129.036,65.971h1.71l-4.969,12.604h-1.711L129.036,65.971z"/>
	<path fill="#FFFFFF" d="M134.525,71.553h2.773v3.997c0,2.017-1.008,3.169-2.953,3.169c-1.945,0-2.953-1.152-2.953-3.169v-6.554
		c0-2.017,1.008-3.169,2.953-3.169c1.944,0,2.953,1.152,2.953,3.169v1.225h-1.873v-1.352c0-0.899-0.396-1.242-1.026-1.242
		c-0.63,0-1.026,0.343-1.026,1.242v6.807c0,0.9,0.396,1.225,1.026,1.225c0.63,0,1.026-0.324,1.026-1.225v-2.322h-0.9V71.553z"/>
	<path fill="#FFFFFF" d="M144.967,78.574h-1.999l-0.342-2.286h-2.431l-0.342,2.286h-1.818l2.017-12.604h2.898L144.967,78.574z
		 M140.448,74.578h1.909l-0.955-6.375L140.448,74.578z"/>
	<path fill="#FFFFFF" d="M148.548,65.827c1.927,0,2.917,1.152,2.917,3.169v0.396h-1.873v-0.523c0-0.899-0.36-1.242-0.99-1.242
		s-0.99,0.343-0.99,1.242c0,2.594,3.871,3.08,3.871,6.681c0,2.017-1.008,3.169-2.953,3.169c-1.945,0-2.953-1.152-2.953-3.169v-0.774
		h1.873v0.9c0,0.9,0.396,1.225,1.026,1.225s1.026-0.324,1.026-1.225c0-2.593-3.871-3.079-3.871-6.68
		C145.631,66.979,146.622,65.827,148.548,65.827z"/>
	<path fill="#FFFFFF" d="M152.039,65.971h6.122v1.801h-2.071v10.803h-1.98V67.771h-2.071V65.971z"/>
	<path fill="#FFFFFF" d="M163.164,78.574c-0.108-0.324-0.18-0.521-0.18-1.548v-1.98c0-1.171-0.396-1.603-1.297-1.603h-0.684v5.131
		h-1.98V65.971h2.989c2.053,0,2.935,0.955,2.935,2.898v0.991c0,1.296-0.414,2.143-1.296,2.557c0.99,0.414,1.314,1.368,1.314,2.683
		v1.945c0,0.611,0.018,1.062,0.216,1.529H163.164z M161.003,67.771v3.871h0.774c0.738,0,1.188-0.324,1.188-1.332v-1.242
		c0-0.9-0.306-1.297-1.008-1.297H161.003z"/>
	<path fill="#FFFFFF" d="M166.259,65.971h1.98v12.604h-1.98V65.971z"/>
	<path fill="#FFFFFF" d="M175.422,73.875v1.675c0,2.017-1.008,3.169-2.953,3.169c-1.944,0-2.952-1.152-2.952-3.169v-6.554
		c0-2.017,1.008-3.169,2.952-3.169c1.945,0,2.953,1.152,2.953,3.169v1.225h-1.872v-1.352c0-0.899-0.396-1.242-1.026-1.242
		c-0.631,0-1.026,0.343-1.026,1.242v6.807c0,0.9,0.396,1.225,1.026,1.225c0.63,0,1.026-0.324,1.026-1.225v-1.801H175.422z"/>
	<path fill="#FFFFFF" d="M185.34,68.869v0.451c0,1.296-0.396,2.124-1.278,2.539c1.062,0.414,1.477,1.367,1.477,2.7v1.026
		c0,1.944-1.026,2.988-3.007,2.988h-3.114V65.971h2.988C184.458,65.971,185.34,66.926,185.34,68.869z M181.397,67.771v3.331h0.773
		c0.738,0,1.188-0.324,1.188-1.333v-0.701c0-0.9-0.306-1.297-1.008-1.297H181.397z M181.397,72.902v3.872h1.134
		c0.666,0,1.026-0.306,1.026-1.243v-1.098c0-1.17-0.378-1.531-1.278-1.531H181.397z"/>
	<path fill="#FFFFFF" d="M188.31,74.397l-2.503-8.427h2.07l1.513,5.744l1.513-5.744h1.89l-2.502,8.427v4.177h-1.98V74.397z"/>
	<path fill="#FFFFFF" d="M199.452,69.086v1.639c0,2.017-0.973,3.115-2.953,3.115h-0.936v4.734h-1.98V65.971h2.916
		C198.479,65.971,199.452,67.069,199.452,69.086z M195.563,67.771v4.268h0.936c0.631,0,0.973-0.289,0.973-1.188V68.96
		c0-0.9-0.342-1.188-0.973-1.188H195.563z"/>
	<path fill="#FFFFFF" d="M206.545,78.574h-1.998l-0.343-2.286h-2.431l-0.342,2.286h-1.818l2.017-12.604h2.898L206.545,78.574z
		 M202.025,74.578h1.909l-0.954-6.375L202.025,74.578z"/>
	<path fill="#FFFFFF" d="M210.126,65.827c1.927,0,2.917,1.152,2.917,3.169v0.396h-1.872v-0.523c0-0.899-0.36-1.242-0.99-1.242
		c-0.631,0-0.99,0.343-0.99,1.242c0,2.594,3.871,3.08,3.871,6.681c0,2.017-1.009,3.169-2.953,3.169s-2.953-1.152-2.953-3.169v-0.774
		h1.873v0.9c0,0.9,0.396,1.225,1.025,1.225c0.631,0,1.026-0.324,1.026-1.225c0-2.593-3.871-3.079-3.871-6.68
		C207.209,66.979,208.199,65.827,210.126,65.827z"/>
	<path fill="#FFFFFF" d="M216.857,65.827c1.927,0,2.917,1.152,2.917,3.169v0.396h-1.872v-0.523c0-0.899-0.36-1.242-0.99-1.242
		c-0.631,0-0.991,0.343-0.991,1.242c0,2.594,3.872,3.08,3.872,6.681c0,2.017-1.009,3.169-2.953,3.169s-2.953-1.152-2.953-3.169
		v-0.774h1.873v0.9c0,0.9,0.396,1.225,1.026,1.225c0.63,0,1.025-0.324,1.025-1.225c0-2.593-3.871-3.079-3.871-6.68
		C213.94,66.979,214.931,65.827,216.857,65.827z"/>
	<path fill="#FFFFFF" d="M70.734,100.174h-1.98V87.57h1.98v5.402h2.251V87.57h2.017v12.604h-2.017v-5.401h-2.251V100.174z"/>
	<path fill="#FFFFFF" d="M78.42,92.883h2.719v1.8H78.42v3.691h3.421v1.8h-5.401V87.57h5.401v1.801H78.42V92.883z"/>
	<path fill="#FFFFFF" d="M87.205,100.174c-0.108-0.324-0.18-0.521-0.18-1.548v-1.98c0-1.171-0.396-1.603-1.296-1.603h-0.685v5.131
		h-1.98V87.57h2.989c2.053,0,2.935,0.955,2.935,2.898v0.991c0,1.296-0.414,2.143-1.296,2.557c0.99,0.414,1.314,1.368,1.314,2.683
		v1.945c0,0.611,0.018,1.062,0.216,1.529H87.205z M85.044,89.371v3.871h0.774c0.738,0,1.188-0.324,1.188-1.332v-1.242
		c0-0.9-0.306-1.297-1.008-1.297H85.044z"/>
	<path fill="#FFFFFF" d="M92.064,91.045v9.129h-1.783V87.57h2.485l2.035,7.545V87.57h1.765v12.604h-2.035L92.064,91.045z"/>
	<path fill="#FFFFFF" d="M97.985,87.57h1.98v12.604h-1.98V87.57z"/>
	<path fill="#FFFFFF" d="M107.814,100.174h-1.999l-0.342-2.286h-2.431l-0.342,2.286h-1.818l2.017-12.604h2.898L107.814,100.174z
		 M103.295,96.178h1.909l-0.955-6.375L103.295,96.178z"/>
	<path fill="#FFFFFF" d="M115.662,100.174c-0.108-0.324-0.18-0.521-0.18-1.548v-1.98c0-1.171-0.396-1.603-1.297-1.603h-0.684v5.131
		h-1.98V87.57h2.989c2.053,0,2.935,0.955,2.935,2.898v0.991c0,1.296-0.414,2.143-1.296,2.557c0.99,0.414,1.314,1.368,1.314,2.683
		v1.945c0,0.611,0.018,1.062,0.216,1.529H115.662z M113.501,89.371v3.871h0.774c0.738,0,1.188-0.324,1.188-1.332v-1.242
		c0-0.9-0.306-1.297-1.008-1.297H113.501z"/>
	<path fill="#FFFFFF" d="M120.737,92.883h2.719v1.8h-2.719v3.691h3.421v1.8h-5.401V87.57h5.401v1.801h-3.421V92.883z"/>
	<path fill="#FFFFFF" d="M131.25,90.686v1.639c0,2.017-0.972,3.115-2.953,3.115h-0.937v4.734h-1.98V87.57h2.917
		C130.278,87.57,131.25,88.669,131.25,90.686z M127.361,89.371v4.268h0.937c0.63,0,0.972-0.289,0.972-1.188V90.56
		c0-0.9-0.342-1.188-0.972-1.188H127.361z"/>
	<path fill="#FFFFFF" d="M138.343,100.174h-1.999l-0.342-2.286h-2.431l-0.342,2.286h-1.818l2.017-12.604h2.898L138.343,100.174z
		 M133.824,96.178h1.909l-0.955-6.375L133.824,96.178z"/>
	<path fill="#FFFFFF" d="M139.259,87.57h1.98v12.604h-1.98V87.57z"/>
	<path fill="#FFFFFF" d="M146.82,100.174c-0.108-0.324-0.18-0.521-0.18-1.548v-1.98c0-1.171-0.396-1.603-1.297-1.603h-0.684v5.131
		h-1.98V87.57h2.989c2.053,0,2.935,0.955,2.935,2.898v0.991c0,1.296-0.414,2.143-1.296,2.557c0.99,0.414,1.314,1.368,1.314,2.683
		v1.945c0,0.611,0.018,1.062,0.216,1.529H146.82z M144.66,89.371v3.871h0.774c0.738,0,1.188-0.324,1.188-1.332v-1.242
		c0-0.9-0.306-1.297-1.008-1.297H144.66z"/>
	<path fill="#FFFFFF" d="M68.754,109.171h1.98v10.803h3.259v1.801h-5.24V109.171z"/>
	<path fill="#FFFFFF" d="M81.266,121.774h-1.999l-0.342-2.286h-2.431l-0.342,2.286h-1.818l2.017-12.604h2.898L81.266,121.774z
		 M76.747,117.777h1.909l-0.955-6.374L76.747,117.777z"/>
	<path fill="#FFFFFF" d="M88.052,112.285v1.639c0,2.017-0.972,3.115-2.953,3.115h-0.937v4.735h-1.98v-12.604h2.917
		C87.08,109.171,88.052,110.27,88.052,112.285z M84.163,110.971v4.268h0.937c0.63,0,0.972-0.288,0.972-1.188v-1.891
		c0-0.9-0.342-1.189-0.972-1.189H84.163z"/>
	<path fill="#FFFFFF" d="M95.145,121.774h-1.999l-0.342-2.286h-2.431l-0.342,2.286h-1.818l2.017-12.604h2.899L95.145,121.774z
		 M90.625,117.777h1.909l-0.955-6.374L90.625,117.777z"/>
	<path fill="#FFFFFF" d="M100.202,121.774c-0.108-0.324-0.18-0.522-0.18-1.548v-1.981c0-1.17-0.396-1.603-1.296-1.603h-0.685v5.132
		h-1.98v-12.604h2.989c2.053,0,2.935,0.954,2.935,2.898v0.99c0,1.297-0.414,2.144-1.296,2.558c0.99,0.414,1.314,1.367,1.314,2.682
		v1.945c0,0.611,0.018,1.062,0.216,1.53H100.202z M98.041,110.971v3.871h0.774c0.738,0,1.188-0.324,1.188-1.332v-1.242
		c0-0.9-0.306-1.297-1.008-1.297H98.041z"/>
	<path fill="#FFFFFF" d="M103.134,112.195c0-2.017,1.062-3.169,3.007-3.169c1.945,0,3.007,1.152,3.007,3.169v6.555
		c0,2.016-1.062,3.168-3.007,3.168c-1.944,0-3.007-1.152-3.007-3.168V112.195z M105.115,118.875c0,0.9,0.396,1.243,1.026,1.243
		c0.63,0,1.026-0.343,1.026-1.243v-6.806c0-0.899-0.396-1.242-1.026-1.242c-0.63,0-1.026,0.343-1.026,1.242V118.875z"/>
	<path fill="#FFFFFF" d="M113.089,109.026c1.927,0,2.917,1.152,2.917,3.169v0.396h-1.873v-0.522c0-0.899-0.36-1.242-0.99-1.242
		s-0.99,0.343-0.99,1.242c0,2.593,3.871,3.079,3.871,6.681c0,2.016-1.008,3.168-2.953,3.168c-1.945,0-2.953-1.152-2.953-3.168
		v-0.775h1.873v0.9c0,0.9,0.396,1.225,1.026,1.225s1.026-0.324,1.026-1.225c0-2.592-3.871-3.078-3.871-6.68
		C110.172,110.179,111.163,109.026,113.089,109.026z"/>
	<path fill="#FFFFFF" d="M122.9,117.075v1.675c0,2.016-1.008,3.168-2.953,3.168c-1.945,0-2.953-1.152-2.953-3.168v-6.555
		c0-2.017,1.008-3.169,2.953-3.169c1.944,0,2.953,1.152,2.953,3.169v1.225h-1.873v-1.351c0-0.899-0.396-1.242-1.026-1.242
		c-0.63,0-1.026,0.343-1.026,1.242v6.806c0,0.9,0.396,1.225,1.026,1.225c0.63,0,1.026-0.324,1.026-1.225v-1.8H122.9z"/>
	<path fill="#FFFFFF" d="M123.942,112.195c0-2.017,1.062-3.169,3.007-3.169c1.945,0,3.007,1.152,3.007,3.169v6.555
		c0,2.016-1.062,3.168-3.007,3.168c-1.944,0-3.007-1.152-3.007-3.168V112.195z M125.922,118.875c0,0.9,0.396,1.243,1.026,1.243
		c0.63,0,1.026-0.343,1.026-1.243v-6.806c0-0.899-0.396-1.242-1.026-1.242c-0.63,0-1.026,0.343-1.026,1.242V118.875z"/>
	<path fill="#FFFFFF" d="M137.102,112.285v1.639c0,2.017-0.972,3.115-2.953,3.115h-0.937v4.735h-1.98v-12.604h2.917
		C136.129,109.171,137.102,110.27,137.102,112.285z M133.212,110.971v4.268h0.937c0.63,0,0.972-0.288,0.972-1.188v-1.891
		c0-0.9-0.342-1.189-0.972-1.189H133.212z"/>
	<path fill="#FFFFFF" d="M139.837,117.598l-2.503-8.427h2.071l1.513,5.743l1.512-5.743h1.891l-2.503,8.427v4.177h-1.98V117.598z"/>
	<path fill="#FFFFFF" d="M70.734,143.375h-1.98v-12.604h1.98v5.401h2.251v-5.401h2.017v12.604h-2.017v-5.402h-2.251V143.375z"/>
	<path fill="#FFFFFF" d="M78.294,139.197l-2.503-8.427h2.071l1.513,5.744l1.512-5.744h1.891l-2.503,8.427v4.178h-1.98V139.197z"/>
	<path fill="#FFFFFF" d="M86.106,130.627c1.926,0,2.917,1.152,2.917,3.169v0.396H87.15v-0.521c0-0.9-0.36-1.242-0.99-1.242
		c-0.63,0-0.99,0.342-0.99,1.242c0,2.592,3.871,3.078,3.871,6.68c0,2.017-1.008,3.169-2.953,3.169c-1.945,0-2.953-1.152-2.953-3.169
		v-0.774h1.873v0.9c0,0.9,0.396,1.225,1.026,1.225s1.026-0.324,1.026-1.225c0-2.593-3.871-3.079-3.871-6.68
		C83.189,131.779,84.18,130.627,86.106,130.627z"/>
	<path fill="#FFFFFF" d="M89.597,130.771h6.122v1.801h-2.07v10.804h-1.98v-10.804h-2.071V130.771z"/>
	<path fill="#FFFFFF" d="M98.562,136.082h2.719v1.801h-2.719v3.691h3.421v1.801h-5.401v-12.604h5.401v1.801h-3.421V136.082z"/>
	<path fill="#FFFFFF" d="M107.346,143.375c-0.108-0.324-0.18-0.522-0.18-1.549v-1.98c0-1.17-0.396-1.603-1.296-1.603h-0.685v5.132
		h-1.98v-12.604h2.989c2.053,0,2.935,0.954,2.935,2.899v0.99c0,1.296-0.414,2.143-1.296,2.557c0.99,0.414,1.314,1.368,1.314,2.683
		v1.944c0,0.612,0.018,1.062,0.216,1.531H107.346z M105.186,132.571v3.871h0.774c0.738,0,1.188-0.324,1.188-1.333v-1.242
		c0-0.9-0.306-1.296-1.008-1.296H105.186z"/>
	<path fill="#FFFFFF" d="M112.421,136.082h2.719v1.801h-2.719v3.691h3.421v1.801h-5.402v-12.604h5.402v1.801h-3.421V136.082z"/>
	<path fill="#FFFFFF" d="M122.809,138.676v1.674c0,2.017-1.008,3.169-2.953,3.169c-1.945,0-2.953-1.152-2.953-3.169v-6.554
		c0-2.017,1.008-3.169,2.953-3.169c1.944,0,2.953,1.152,2.953,3.169v1.224h-1.873v-1.35c0-0.9-0.396-1.242-1.026-1.242
		c-0.63,0-1.026,0.342-1.026,1.242v6.806c0,0.9,0.396,1.225,1.026,1.225c0.63,0,1.026-0.324,1.026-1.225v-1.8H122.809z"/>
	<path fill="#FFFFFF" d="M123.437,130.771h6.122v1.801h-2.071v10.804h-1.98v-10.804h-2.071V130.771z"/>
	<path fill="#FFFFFF" d="M130.258,133.796c0-2.017,1.062-3.169,3.007-3.169c1.945,0,3.007,1.152,3.007,3.169v6.554
		c0,2.017-1.062,3.169-3.007,3.169c-1.944,0-3.007-1.152-3.007-3.169V133.796z M132.239,140.476c0,0.9,0.396,1.242,1.026,1.242
		c0.63,0,1.026-0.342,1.026-1.242v-6.806c0-0.9-0.396-1.242-1.026-1.242c-0.63,0-1.026,0.342-1.026,1.242V140.476z"/>
	<path fill="#FFFFFF" d="M141.744,139.719l1.35-8.948h2.755v12.604h-1.873v-9.039l-1.368,9.039h-1.873l-1.477-8.913v8.913h-1.729
		v-12.604h2.755L141.744,139.719z"/>
	<path fill="#FFFFFF" d="M149.141,139.197l-2.503-8.427h2.071l1.513,5.744l1.512-5.744h1.891l-2.503,8.427v4.178h-1.98V139.197z"/>
	<path fill="#FFFFFF" d="M74.498,160.275v1.674c0,2.018-1.008,3.17-2.953,3.17c-1.945,0-2.953-1.152-2.953-3.17v-6.554
		c0-2.017,1.008-3.169,2.953-3.169c1.944,0,2.953,1.152,2.953,3.169v1.225h-1.873v-1.351c0-0.9-0.396-1.242-1.026-1.242
		c-0.63,0-1.026,0.342-1.026,1.242v6.807c0,0.9,0.396,1.225,1.026,1.225c0.63,0,1.026-0.324,1.026-1.225v-1.801H74.498z"/>
	<path fill="#FFFFFF" d="M77.682,164.975h-1.98v-12.604h1.98v5.401h2.251v-5.401h2.017v12.604h-2.017v-5.401h-2.251V164.975z"/>
	<path fill="#FFFFFF" d="M83.225,155.396c0-2.017,1.062-3.169,3.007-3.169c1.945,0,3.007,1.152,3.007,3.169v6.554
		c0,2.018-1.062,3.17-3.007,3.17c-1.944,0-3.007-1.152-3.007-3.17V155.396z M85.206,162.076c0,0.9,0.396,1.242,1.026,1.242
		c0.63,0,1.026-0.342,1.026-1.242v-6.807c0-0.9-0.396-1.242-1.026-1.242c-0.63,0-1.026,0.342-1.026,1.242V162.076z"/>
	<path fill="#FFFFFF" d="M90.515,152.371h1.98v10.803h3.259v1.801h-5.24V152.371z"/>
	<path fill="#FFFFFF" d="M98.597,157.683h2.719v1.8h-2.719v3.691h3.421v1.801h-5.402v-12.604h5.402v1.801h-3.421V157.683z"/>
	<path fill="#FFFFFF" d="M108.984,160.275v1.674c0,2.018-1.008,3.17-2.953,3.17c-1.945,0-2.953-1.152-2.953-3.17v-6.554
		c0-2.017,1.008-3.169,2.953-3.169c1.944,0,2.953,1.152,2.953,3.169v1.225h-1.873v-1.351c0-0.9-0.396-1.242-1.026-1.242
		c-0.63,0-1.026,0.342-1.026,1.242v6.807c0,0.9,0.396,1.225,1.026,1.225c0.63,0,1.026-0.324,1.026-1.225v-1.801H108.984z"/>
	<path fill="#FFFFFF" d="M111.845,160.797l-2.502-8.426h2.07l1.513,5.744l1.512-5.744h1.891l-2.503,8.426v4.178h-1.98V160.797z"/>
	<path fill="#FFFFFF" d="M119.657,152.227c1.927,0,2.917,1.152,2.917,3.169v0.396h-1.873v-0.522c0-0.9-0.36-1.242-0.99-1.242
		s-0.99,0.342-0.99,1.242c0,2.593,3.871,3.079,3.871,6.68c0,2.018-1.008,3.17-2.953,3.17c-1.945,0-2.953-1.152-2.953-3.17v-0.773
		h1.873v0.9c0,0.9,0.396,1.225,1.026,1.225s1.026-0.324,1.026-1.225c0-2.594-3.871-3.079-3.871-6.681
		C116.741,153.379,117.731,152.227,119.657,152.227z"/>
	<path fill="#FFFFFF" d="M123.148,152.371h6.122v1.801H127.2v10.803h-1.98v-10.803h-2.071V152.371z"/>
	<path fill="#FFFFFF" d="M132.113,157.683h2.719v1.8h-2.719v3.691h3.421v1.801h-5.402v-12.604h5.402v1.801h-3.421V157.683z"/>
	<path fill="#FFFFFF" d="M142.5,160.275v1.674c0,2.018-1.008,3.17-2.953,3.17c-1.945,0-2.953-1.152-2.953-3.17v-6.554
		c0-2.017,1.008-3.169,2.953-3.169c1.944,0,2.953,1.152,2.953,3.169v1.225h-1.873v-1.351c0-0.9-0.396-1.242-1.026-1.242
		c-0.63,0-1.026,0.342-1.026,1.242v6.807c0,0.9,0.396,1.225,1.026,1.225c0.63,0,1.026-0.324,1.026-1.225v-1.801H142.5z"/>
	<path fill="#FFFFFF" d="M143.128,152.371h6.122v1.801h-2.071v10.803h-1.98v-10.803h-2.071V152.371z"/>
	<path fill="#FFFFFF" d="M149.95,155.396c0-2.017,1.062-3.169,3.007-3.169c1.945,0,3.007,1.152,3.007,3.169v6.554
		c0,2.018-1.062,3.17-3.007,3.17c-1.944,0-3.007-1.152-3.007-3.17V155.396z M151.93,162.076c0,0.9,0.396,1.242,1.026,1.242
		c0.63,0,1.026-0.342,1.026-1.242v-6.807c0-0.9-0.396-1.242-1.026-1.242c-0.63,0-1.026,0.342-1.026,1.242V162.076z"/>
	<path fill="#FFFFFF" d="M161.435,161.319l1.35-8.948h2.755v12.604h-1.872v-9.039l-1.369,9.039h-1.873l-1.477-8.912v8.912h-1.729
		v-12.604h2.755L161.435,161.319z"/>
	<path fill="#FFFFFF" d="M168.833,160.797l-2.503-8.426h2.07l1.513,5.744l1.513-5.744h1.89l-2.502,8.426v4.178h-1.98V160.797z"/>
	<path fill="#FFFFFF" d="M74.498,181.875v1.675c0,2.017-1.008,3.169-2.953,3.169c-1.945,0-2.953-1.152-2.953-3.169v-6.554
		c0-2.017,1.008-3.169,2.953-3.169c1.944,0,2.953,1.152,2.953,3.169v1.225h-1.873v-1.352c0-0.899-0.396-1.242-1.026-1.242
		c-0.63,0-1.026,0.343-1.026,1.242v6.807c0,0.9,0.396,1.225,1.026,1.225c0.63,0,1.026-0.324,1.026-1.225v-1.801H74.498z"/>
	<path fill="#FFFFFF" d="M75.54,176.996c0-2.017,1.062-3.169,3.007-3.169c1.945,0,3.007,1.152,3.007,3.169v6.554
		c0,2.017-1.062,3.169-3.007,3.169c-1.944,0-3.007-1.152-3.007-3.169V176.996z M77.52,183.676c0,0.9,0.396,1.242,1.026,1.242
		c0.63,0,1.026-0.342,1.026-1.242v-6.807c0-0.899-0.396-1.242-1.026-1.242c-0.63,0-1.026,0.343-1.026,1.242V183.676z"/>
	<path fill="#FFFFFF" d="M87.025,182.92l1.35-8.949h2.755v12.604h-1.873v-9.038l-1.368,9.038h-1.873l-1.477-8.912v8.912h-1.729
		v-12.604h2.755L87.025,182.92z"/>
	<path fill="#FFFFFF" d="M96.763,182.92l1.351-8.949h2.754v12.604h-1.873v-9.038l-1.368,9.038h-1.873l-1.477-8.912v8.912h-1.729
		v-12.604h2.755L96.763,182.92z"/>
	<path fill="#FFFFFF" d="M102.143,176.996c0-2.017,1.062-3.169,3.007-3.169c1.945,0,3.007,1.152,3.007,3.169v6.554
		c0,2.017-1.062,3.169-3.007,3.169c-1.944,0-3.007-1.152-3.007-3.169V176.996z M104.124,183.676c0,0.9,0.396,1.242,1.026,1.242
		c0.63,0,1.026-0.342,1.026-1.242v-6.807c0-0.899-0.396-1.242-1.026-1.242c-0.63,0-1.026,0.343-1.026,1.242V183.676z"/>
	<path fill="#FFFFFF" d="M111.198,177.445v9.129h-1.783v-12.604h2.485l2.035,7.545v-7.545h1.765v12.604h-2.035L111.198,177.445z"/>
	<path fill="#FFFFFF" d="M125.833,176.869v0.451c0,1.296-0.396,2.124-1.278,2.539c1.062,0.414,1.476,1.367,1.476,2.7v1.026
		c0,1.944-1.026,2.988-3.007,2.988h-3.115v-12.604h2.989C124.95,173.971,125.833,174.926,125.833,176.869z M121.889,175.771v3.331
		h0.774c0.738,0,1.188-0.324,1.188-1.333v-0.701c0-0.9-0.306-1.297-1.008-1.297H121.889z M121.889,180.902v3.872h1.134
		c0.667,0,1.026-0.306,1.026-1.243v-1.098c0-1.17-0.378-1.531-1.278-1.531H121.889z"/>
	<path fill="#FFFFFF" d="M127.216,173.971h1.98v12.604h-1.98V173.971z"/>
	<path fill="#FFFFFF" d="M130.636,173.971h1.98v10.804h3.259v1.8h-5.24V173.971z"/>
	<path fill="#FFFFFF" d="M138.718,179.283h2.719v1.8h-2.719v3.691h3.421v1.8h-5.402v-12.604h5.402v1.801h-3.421V179.283z"/>
	<path fill="#FFFFFF" d="M146.152,173.971h3.133c1.981,0,2.953,1.099,2.953,3.115v6.374c0,2.017-0.972,3.114-2.953,3.114h-3.133
		V173.971z M148.132,175.771v9.003h1.117c0.63,0,1.008-0.324,1.008-1.225v-6.554c0-0.9-0.378-1.225-1.008-1.225H148.132z"/>
	<path fill="#FFFFFF" d="M155.386,173.971v9.723c0,0.9,0.396,1.225,1.026,1.225c0.63,0,1.026-0.324,1.026-1.225v-9.723h1.873v9.598
		c0,2.016-1.008,3.168-2.953,3.168c-1.944,0-2.953-1.152-2.953-3.168v-9.598H155.386z"/>
	<path fill="#FFFFFF" d="M166.403,181.875v1.675c0,2.017-1.008,3.169-2.953,3.169c-1.944,0-2.953-1.152-2.953-3.169v-6.554
		c0-2.017,1.008-3.169,2.953-3.169c1.945,0,2.953,1.152,2.953,3.169v1.225h-1.872v-1.352c0-0.899-0.396-1.242-1.026-1.242
		c-0.631,0-1.027,0.343-1.027,1.242v6.807c0,0.9,0.396,1.225,1.027,1.225c0.63,0,1.026-0.324,1.026-1.225v-1.801H166.403z"/>
	<path fill="#FFFFFF" d="M167.032,173.971h6.121v1.801h-2.07v10.803h-1.98v-10.803h-2.07V173.971z"/>
	<path fill="#FFFFFF" d="M178.787,179.283h2.719v1.8h-2.719v3.691h3.421v1.8h-5.402v-12.604h5.402v1.801h-3.421V179.283z"/>
	<path fill="#FFFFFF" d="M190.038,173.971l-2.07,6.122l2.215,6.481h-2.089l-1.621-4.986l-1.638,4.986h-1.854l2.214-6.481
		l-2.07-6.122h2.053l1.494,4.646l1.53-4.646H190.038z"/>
	<path fill="#FFFFFF" d="M197.04,177.086v1.639c0,2.017-0.973,3.115-2.953,3.115h-0.936v4.734h-1.98v-12.604h2.916
		C196.067,173.971,197.04,175.069,197.04,177.086z M193.151,175.771v4.268h0.936c0.631,0,0.973-0.289,0.973-1.188v-1.891
		c0-0.9-0.342-1.188-0.973-1.188H193.151z"/>
	<path fill="#FFFFFF" d="M197.956,173.971h1.981v10.804h3.259v1.8h-5.24V173.971z"/>
	<path fill="#FFFFFF" d="M203.896,176.996c0-2.017,1.062-3.169,3.007-3.169c1.944,0,3.007,1.152,3.007,3.169v6.554
		c0,2.017-1.062,3.169-3.007,3.169c-1.945,0-3.007-1.152-3.007-3.169V176.996z M205.877,183.676c0,0.9,0.396,1.242,1.026,1.242
		c0.63,0,1.026-0.342,1.026-1.242v-6.807c0-0.899-0.396-1.242-1.026-1.242c-0.631,0-1.026,0.343-1.026,1.242V183.676z"/>
	<path fill="#FFFFFF" d="M215.327,186.574c-0.107-0.324-0.18-0.521-0.18-1.548v-1.98c0-1.171-0.396-1.603-1.297-1.603h-0.684v5.131
		h-1.98v-12.604h2.988c2.053,0,2.935,0.955,2.935,2.898v0.991c0,1.296-0.414,2.143-1.296,2.557c0.99,0.414,1.314,1.368,1.314,2.683
		v1.945c0,0.611,0.018,1.062,0.216,1.529H215.327z M213.167,175.771v3.871h0.773c0.738,0,1.188-0.324,1.188-1.332v-1.242
		c0-0.9-0.306-1.297-1.008-1.297H213.167z"/>
	<path fill="#FFFFFF" d="M224.832,186.574h-1.998l-0.343-2.286h-2.431l-0.342,2.286H217.9l2.017-12.604h2.898L224.832,186.574z
		 M220.312,182.578h1.909l-0.954-6.375L220.312,182.578z"/>
	<path fill="#FFFFFF" d="M224.489,173.971h6.121v1.801h-2.07v10.803h-1.98v-10.803h-2.07V173.971z"/>
	<path fill="#FFFFFF" d="M231.474,173.971h1.98v12.604h-1.98V173.971z"/>
	<path fill="#FFFFFF" d="M234.731,176.996c0-2.017,1.062-3.169,3.007-3.169c1.944,0,3.007,1.152,3.007,3.169v6.554
		c0,2.017-1.062,3.169-3.007,3.169c-1.945,0-3.007-1.152-3.007-3.169V176.996z M236.712,183.676c0,0.9,0.396,1.242,1.026,1.242
		c0.63,0,1.026-0.342,1.026-1.242v-6.807c0-0.899-0.396-1.242-1.026-1.242c-0.631,0-1.026,0.343-1.026,1.242V183.676z"/>
	<path fill="#FFFFFF" d="M243.785,177.445v9.129h-1.782v-12.604h2.484l2.035,7.545v-7.545h1.765v12.604h-2.035L243.785,177.445z"/>
	<path fill="#FFFFFF" d="M74.498,203.475v1.675c0,2.017-1.008,3.169-2.953,3.169c-1.945,0-2.953-1.152-2.953-3.169v-6.554
		c0-2.017,1.008-3.169,2.953-3.169c1.944,0,2.953,1.152,2.953,3.169v1.225h-1.873v-1.352c0-0.899-0.396-1.242-1.026-1.242
		c-0.63,0-1.026,0.343-1.026,1.242v6.807c0,0.9,0.396,1.225,1.026,1.225c0.63,0,1.026-0.324,1.026-1.225v-1.801H74.498z"/>
	<path fill="#FFFFFF" d="M75.54,198.596c0-2.017,1.062-3.169,3.007-3.169c1.945,0,3.007,1.152,3.007,3.169v6.554
		c0,2.017-1.062,3.169-3.007,3.169c-1.944,0-3.007-1.152-3.007-3.169V198.596z M77.52,205.275c0,0.9,0.396,1.242,1.026,1.242
		c0.63,0,1.026-0.342,1.026-1.242v-6.807c0-0.899-0.396-1.242-1.026-1.242c-0.63,0-1.026,0.343-1.026,1.242V205.275z"/>
	<path fill="#FFFFFF" d="M82.83,195.57h1.98v10.804h3.259v1.8h-5.24V195.57z"/>
	<path fill="#FFFFFF" d="M88.769,198.596c0-2.017,1.062-3.169,3.007-3.169c1.945,0,3.007,1.152,3.007,3.169v6.554
		c0,2.017-1.062,3.169-3.007,3.169c-1.944,0-3.007-1.152-3.007-3.169V198.596z M90.75,205.275c0,0.9,0.396,1.242,1.026,1.242
		c0.63,0,1.026-0.342,1.026-1.242v-6.807c0-0.899-0.396-1.242-1.026-1.242c-0.63,0-1.026,0.343-1.026,1.242V205.275z"/>
	<path fill="#FFFFFF" d="M100.2,208.174c-0.108-0.324-0.18-0.521-0.18-1.548v-1.98c0-1.171-0.396-1.603-1.297-1.603H98.04v5.131
		h-1.98V195.57h2.989c2.053,0,2.935,0.955,2.935,2.898v0.991c0,1.296-0.414,2.143-1.296,2.557c0.99,0.414,1.314,1.368,1.314,2.683
		v1.945c0,0.611,0.018,1.062,0.216,1.529H100.2z M98.04,197.371v3.871h0.774c0.738,0,1.188-0.324,1.188-1.332v-1.242
		c0-0.9-0.306-1.297-1.008-1.297H98.04z"/>
	<path fill="#FFFFFF" d="M105.275,200.883h2.719v1.8h-2.719v3.691h3.421v1.8h-5.401V195.57h5.401v1.801h-3.421V200.883z"/>
	<path fill="#FFFFFF" d="M115.663,203.475v1.675c0,2.017-1.008,3.169-2.953,3.169c-1.945,0-2.953-1.152-2.953-3.169v-6.554
		c0-2.017,1.008-3.169,2.953-3.169c1.944,0,2.953,1.152,2.953,3.169v1.225h-1.873v-1.352c0-0.899-0.396-1.242-1.026-1.242
		c-0.63,0-1.026,0.343-1.026,1.242v6.807c0,0.9,0.396,1.225,1.026,1.225c0.63,0,1.026-0.324,1.026-1.225v-1.801H115.663z"/>
	<path fill="#FFFFFF" d="M116.291,195.57h6.122v1.801h-2.07v10.803h-1.98v-10.803h-2.071V195.57z"/>
	<path fill="#FFFFFF" d="M129,208.174h-1.999l-0.342-2.286h-2.431l-0.342,2.286h-1.818l2.017-12.604h2.898L129,208.174z
		 M124.481,204.178h1.909l-0.955-6.375L124.481,204.178z"/>
	<path fill="#FFFFFF" d="M129.917,195.57h1.98v10.804h3.259v1.8h-5.24V195.57z"/>
	<path fill="#FFFFFF" d="M142.95,208.174c-0.108-0.324-0.18-0.521-0.18-1.548v-1.98c0-1.171-0.396-1.603-1.296-1.603h-0.685v5.131
		h-1.98V195.57h2.989c2.053,0,2.935,0.955,2.935,2.898v0.991c0,1.296-0.414,2.143-1.296,2.557c0.99,0.414,1.314,1.368,1.314,2.683
		v1.945c0,0.611,0.018,1.062,0.216,1.529H142.95z M140.789,197.371v3.871h0.774c0.738,0,1.188-0.324,1.188-1.332v-1.242
		c0-0.9-0.306-1.297-1.008-1.297H140.789z"/>
	<path fill="#FFFFFF" d="M148.025,200.883h2.719v1.8h-2.719v3.691h3.421v1.8h-5.402V195.57h5.402v1.801h-3.421V200.883z"/>
	<path fill="#FFFFFF" d="M155.333,195.427c1.927,0,2.917,1.152,2.917,3.169v0.396h-1.873v-0.523c0-0.899-0.36-1.242-0.99-1.242
		s-0.99,0.343-0.99,1.242c0,2.594,3.871,3.08,3.871,6.681c0,2.017-1.008,3.169-2.953,3.169c-1.945,0-2.953-1.152-2.953-3.169v-0.774
		h1.873v0.9c0,0.9,0.396,1.225,1.026,1.225s1.026-0.324,1.026-1.225c0-2.593-3.871-3.079-3.871-6.68
		C152.417,196.579,153.407,195.427,155.333,195.427z"/>
	<path fill="#FFFFFF" d="M161.381,200.883h2.719v1.8h-2.719v3.691h3.421v1.8H159.4V195.57h5.401v1.801h-3.421V200.883z"/>
	<path fill="#FFFFFF" d="M171.769,203.475v1.675c0,2.017-1.008,3.169-2.953,3.169c-1.944,0-2.952-1.152-2.952-3.169v-6.554
		c0-2.017,1.008-3.169,2.952-3.169c1.945,0,2.953,1.152,2.953,3.169v1.225h-1.872v-1.352c0-0.899-0.396-1.242-1.026-1.242
		c-0.631,0-1.026,0.343-1.026,1.242v6.807c0,0.9,0.396,1.225,1.026,1.225c0.63,0,1.026-0.324,1.026-1.225v-1.801H171.769z"/>
	<path fill="#FFFFFF" d="M172.397,195.57h6.121v1.801h-2.07v10.803h-1.98v-10.803h-2.07V195.57z"/>
	<path fill="#FFFFFF" d="M179.382,195.57h1.98v12.604h-1.98V195.57z"/>
	<path fill="#FFFFFF" d="M182.64,198.596c0-2.017,1.062-3.169,3.007-3.169c1.944,0,3.007,1.152,3.007,3.169v6.554
		c0,2.017-1.062,3.169-3.007,3.169c-1.945,0-3.007-1.152-3.007-3.169V198.596z M184.62,205.275c0,0.9,0.396,1.242,1.026,1.242
		c0.63,0,1.026-0.342,1.026-1.242v-6.807c0-0.899-0.396-1.242-1.026-1.242c-0.631,0-1.026,0.343-1.026,1.242V205.275z"/>
	<path fill="#FFFFFF" d="M191.693,199.045v9.129h-1.782V195.57h2.484l2.035,7.545v-7.545h1.765v12.604h-2.035L191.693,199.045z"/>
	<path fill="#FFFFFF" d="M70.734,222.482h2.719v1.801h-2.719v3.69h3.421v1.801h-5.401v-12.604h5.401v1.8h-3.421V222.482z"/>
	<path fill="#FFFFFF" d="M81.986,217.171l-2.071,6.122l2.215,6.481h-2.088l-1.621-4.987l-1.639,4.987h-1.854l2.215-6.481
		l-2.071-6.122h2.053l1.495,4.646l1.53-4.646H81.986z"/>
	<path fill="#FFFFFF" d="M88.987,220.285v1.639c0,2.017-0.972,3.115-2.953,3.115h-0.937v4.735h-1.98v-12.604h2.917
		C88.015,217.171,88.987,218.27,88.987,220.285z M85.098,218.971v4.268h0.937c0.63,0,0.972-0.288,0.972-1.188v-1.891
		c0-0.9-0.342-1.189-0.972-1.189H85.098z"/>
	<path fill="#FFFFFF" d="M89.904,217.171h1.98v10.803h3.259v1.801h-5.24V217.171z"/>
	<path fill="#FFFFFF" d="M95.843,220.195c0-2.017,1.062-3.169,3.007-3.169c1.945,0,3.007,1.152,3.007,3.169v6.555
		c0,2.016-1.062,3.168-3.007,3.168c-1.944,0-3.007-1.152-3.007-3.168V220.195z M97.824,226.875c0,0.9,0.396,1.243,1.026,1.243
		c0.63,0,1.026-0.343,1.026-1.243v-6.806c0-0.899-0.396-1.242-1.026-1.242c-0.63,0-1.026,0.343-1.026,1.242V226.875z"/>
	<path fill="#FFFFFF" d="M107.274,229.774c-0.108-0.324-0.18-0.522-0.18-1.548v-1.981c0-1.17-0.396-1.603-1.297-1.603h-0.684v5.132
		h-1.98v-12.604h2.989c2.053,0,2.935,0.954,2.935,2.898v0.99c0,1.297-0.414,2.144-1.296,2.558c0.99,0.414,1.314,1.367,1.314,2.682
		v1.945c0,0.611,0.018,1.062,0.216,1.53H107.274z M105.114,218.971v3.871h0.774c0.738,0,1.188-0.324,1.188-1.332v-1.242
		c0-0.9-0.306-1.297-1.008-1.297H105.114z"/>
	<path fill="#FFFFFF" d="M116.779,229.774h-1.999l-0.342-2.286h-2.431l-0.342,2.286h-1.818l2.017-12.604h2.899L116.779,229.774z
		 M112.26,225.777h1.909l-0.955-6.374L112.26,225.777z"/>
	<path fill="#FFFFFF" d="M116.435,217.171h6.122v1.8h-2.07v10.804h-1.98v-10.804h-2.071V217.171z"/>
	<path fill="#FFFFFF" d="M123.257,220.195c0-2.017,1.062-3.169,3.007-3.169c1.945,0,3.007,1.152,3.007,3.169v6.555
		c0,2.016-1.062,3.168-3.007,3.168c-1.944,0-3.007-1.152-3.007-3.168V220.195z M125.237,226.875c0,0.9,0.396,1.243,1.026,1.243
		c0.63,0,1.026-0.343,1.026-1.243v-6.806c0-0.899-0.396-1.242-1.026-1.242c-0.63,0-1.026,0.343-1.026,1.242V226.875z"/>
	<path fill="#FFFFFF" d="M134.688,229.774c-0.108-0.324-0.18-0.522-0.18-1.548v-1.981c0-1.17-0.396-1.603-1.296-1.603h-0.685v5.132
		h-1.98v-12.604h2.989c2.053,0,2.935,0.954,2.935,2.898v0.99c0,1.297-0.414,2.144-1.296,2.558c0.99,0.414,1.314,1.367,1.314,2.682
		v1.945c0,0.611,0.018,1.062,0.216,1.53H134.688z M132.527,218.971v3.871h0.774c0.738,0,1.188-0.324,1.188-1.332v-1.242
		c0-0.9-0.306-1.297-1.008-1.297H132.527z"/>
	<path fill="#FFFFFF" d="M139.458,225.598l-2.502-8.427h2.07l1.513,5.743l1.512-5.743h1.891l-2.503,8.427v4.177h-1.98V225.598z"/>
	<path fill="#FFFFFF" d="M147.521,217.171h1.98v10.803h3.259v1.801h-5.24V217.171z"/>
	<path fill="#FFFFFF" d="M160.033,229.774h-1.999l-0.342-2.286h-2.431l-0.342,2.286h-1.818l2.017-12.604h2.899L160.033,229.774z
		 M155.514,225.777h1.909l-0.955-6.374L155.514,225.777z"/>
	<path fill="#FFFFFF" d="M166.819,220.285v1.639c0,2.017-0.973,3.115-2.953,3.115h-0.937v4.735h-1.98v-12.604h2.917
		C165.847,217.171,166.819,218.27,166.819,220.285z M162.93,218.971v4.268h0.937c0.63,0,0.973-0.288,0.973-1.188v-1.891
		c0-0.9-0.343-1.189-0.973-1.189H162.93z"/>
	<path fill="#FFFFFF" d="M173.911,229.774h-1.998l-0.343-2.286h-2.431l-0.342,2.286h-1.818l2.017-12.604h2.898L173.911,229.774z
		 M169.392,225.777h1.909l-0.954-6.374L169.392,225.777z"/>
	<path fill="#FFFFFF" d="M178.969,229.774c-0.108-0.324-0.18-0.522-0.18-1.548v-1.981c0-1.17-0.396-1.603-1.297-1.603h-0.684v5.132
		h-1.981v-12.604h2.989c2.053,0,2.935,0.954,2.935,2.898v0.99c0,1.297-0.414,2.144-1.296,2.558c0.99,0.414,1.314,1.367,1.314,2.682
		v1.945c0,0.611,0.018,1.062,0.216,1.53H178.969z M176.809,218.971v3.871h0.773c0.738,0,1.188-0.324,1.188-1.332v-1.242
		c0-0.9-0.306-1.297-1.008-1.297H176.809z"/>
	<path fill="#FFFFFF" d="M181.902,220.195c0-2.017,1.062-3.169,3.007-3.169c1.944,0,3.007,1.152,3.007,3.169v6.555
		c0,2.016-1.062,3.168-3.007,3.168c-1.945,0-3.007-1.152-3.007-3.168V220.195z M183.883,226.875c0,0.9,0.396,1.243,1.026,1.243
		c0.63,0,1.026-0.343,1.026-1.243v-6.806c0-0.899-0.396-1.242-1.026-1.242c-0.631,0-1.026,0.343-1.026,1.242V226.875z"/>
	<path fill="#FFFFFF" d="M188.616,217.171h6.121v1.8h-2.07v10.804h-1.98v-10.804h-2.07V217.171z"/>
	<path fill="#FFFFFF" d="M195.438,220.195c0-2.017,1.062-3.169,3.007-3.169c1.944,0,3.007,1.152,3.007,3.169v6.555
		c0,2.016-1.062,3.168-3.007,3.168c-1.945,0-3.007-1.152-3.007-3.168V220.195z M197.419,226.875c0,0.9,0.396,1.243,1.026,1.243
		c0.63,0,1.026-0.343,1.026-1.243v-6.806c0-0.899-0.396-1.242-1.026-1.242c-0.631,0-1.026,0.343-1.026,1.242V226.875z"/>
	<path fill="#FFFFFF" d="M206.923,226.119l1.351-8.948h2.755v12.604h-1.872v-9.038l-1.369,9.038h-1.872l-1.477-8.913v8.913h-1.729
		v-12.604h2.755L206.923,226.119z"/>
	<path fill="#FFFFFF" d="M214.32,225.598l-2.503-8.427h2.07l1.513,5.743l1.513-5.743h1.891l-2.503,8.427v4.177h-1.98V225.598z"/>
	<path fill="#FFFFFF" d="M71.419,238.627c1.926,0,2.917,1.152,2.917,3.169v0.396h-1.873v-0.521c0-0.9-0.36-1.242-0.99-1.242
		c-0.63,0-0.99,0.342-0.99,1.242c0,2.592,3.871,3.078,3.871,6.68c0,2.017-1.008,3.169-2.953,3.169c-1.945,0-2.953-1.152-2.953-3.169
		v-0.774h1.873v0.9c0,0.9,0.396,1.225,1.026,1.225s1.026-0.324,1.026-1.225c0-2.593-3.871-3.079-3.871-6.68
		C68.502,239.779,69.492,238.627,71.419,238.627z"/>
	<path fill="#FFFFFF" d="M79.681,247.719l1.35-8.948h2.755v12.604h-1.873v-9.039l-1.368,9.039h-1.873l-1.477-8.913v8.913h-1.729
		v-12.604h2.755L79.681,247.719z"/>
	<path fill="#FFFFFF" d="M91.634,251.375h-1.999l-0.342-2.287h-2.431l-0.342,2.287h-1.818l2.017-12.604h2.899L91.634,251.375z
		 M87.114,247.377h1.909l-0.955-6.373L87.114,247.377z"/>
	<path fill="#FFFFFF" d="M92.55,238.771h1.98v10.804h3.259v1.801h-5.24V238.771z"/>
	<path fill="#FFFFFF" d="M98.652,238.771h1.98v10.804h3.259v1.801h-5.24V238.771z"/>
	<path fill="#FFFFFF" d="M113.467,241.67v0.449c0,1.297-0.396,2.125-1.278,2.539c1.062,0.414,1.476,1.369,1.476,2.701v1.026
		c0,1.944-1.026,2.989-3.007,2.989h-3.115v-12.604h2.989C112.585,238.771,113.467,239.725,113.467,241.67z M109.524,240.571v3.331
		h0.774c0.738,0,1.188-0.324,1.188-1.332v-0.703c0-0.9-0.306-1.296-1.008-1.296H109.524z M109.524,245.703v3.871h1.134
		c0.667,0,1.026-0.307,1.026-1.242v-1.099c0-1.171-0.378-1.53-1.278-1.53H109.524z"/>
	<path fill="#FFFFFF" d="M114.689,241.796c0-2.017,1.062-3.169,3.007-3.169c1.945,0,3.007,1.152,3.007,3.169v6.554
		c0,2.017-1.062,3.169-3.007,3.169c-1.944,0-3.007-1.152-3.007-3.169V241.796z M116.669,248.476c0,0.9,0.396,1.242,1.026,1.242
		c0.63,0,1.026-0.342,1.026-1.242v-6.806c0-0.9-0.396-1.242-1.026-1.242c-0.63,0-1.026,0.342-1.026,1.242V248.476z"/>
	<path fill="#FFFFFF" d="M126.372,244.658l-0.72,6.717h-2.719l-1.404-12.604h1.927l1.062,9.939l0.955-9.939h1.909l0.99,10.011
		l1.026-10.011h1.729l-1.405,12.604h-2.628L126.372,244.658z"/>
	<path fill="#FFFFFF" d="M134.093,244.082h2.719v1.801h-2.719v3.691h3.421v1.801h-5.402v-12.604h5.402v1.801h-3.421V244.082z"/>
	<path fill="#FFFFFF" d="M138.737,238.771h1.98v10.804h3.259v1.801h-5.24V238.771z"/>
	<path fill="#FFFFFF" d="M151.77,251.375c-0.108-0.324-0.18-0.522-0.18-1.549v-1.98c0-1.17-0.396-1.603-1.297-1.603h-0.684v5.132
		h-1.98v-12.604h2.989c2.053,0,2.935,0.954,2.935,2.899v0.99c0,1.296-0.414,2.143-1.296,2.557c0.99,0.414,1.314,1.368,1.314,2.683
		v1.944c0,0.612,0.018,1.062,0.216,1.531H151.77z M149.609,240.571v3.871h0.774c0.738,0,1.188-0.324,1.188-1.333v-1.242
		c0-0.9-0.306-1.296-1.008-1.296H149.609z"/>
	<path fill="#FFFFFF" d="M156.845,244.082h2.719v1.801h-2.719v3.691h3.421v1.801h-5.401v-12.604h5.401v1.801h-3.421V244.082z"/>
	<path fill="#FFFFFF" d="M164.153,238.627c1.927,0,2.917,1.152,2.917,3.169v0.396h-1.873v-0.521c0-0.9-0.36-1.242-0.99-1.242
		s-0.99,0.342-0.99,1.242c0,2.592,3.871,3.078,3.871,6.68c0,2.017-1.008,3.169-2.953,3.169c-1.944,0-2.953-1.152-2.953-3.169v-0.774
		h1.873v0.9c0,0.9,0.396,1.225,1.026,1.225s1.026-0.324,1.026-1.225c0-2.593-3.871-3.079-3.871-6.68
		C161.236,239.779,162.227,238.627,164.153,238.627z"/>
	<path fill="#FFFFFF" d="M170.201,244.082h2.719v1.801h-2.719v3.691h3.421v1.801h-5.402v-12.604h5.402v1.801h-3.421V244.082z"/>
	<path fill="#FFFFFF" d="M180.588,246.676v1.674c0,2.017-1.008,3.169-2.953,3.169c-1.944,0-2.952-1.152-2.952-3.169v-6.554
		c0-2.017,1.008-3.169,2.952-3.169c1.945,0,2.953,1.152,2.953,3.169v1.224h-1.872v-1.35c0-0.9-0.396-1.242-1.026-1.242
		c-0.631,0-1.026,0.342-1.026,1.242v6.806c0,0.9,0.396,1.225,1.026,1.225c0.63,0,1.026-0.324,1.026-1.225v-1.8H180.588z"/>
	<path fill="#FFFFFF" d="M181.216,238.771h6.121v1.801h-2.07v10.804h-1.98v-10.804h-2.07V238.771z"/>
	<path fill="#FFFFFF" d="M188.2,238.771h1.98v12.604h-1.98V238.771z"/>
	<path fill="#FFFFFF" d="M191.458,241.796c0-2.017,1.062-3.169,3.007-3.169c1.944,0,3.007,1.152,3.007,3.169v6.554
		c0,2.017-1.062,3.169-3.007,3.169c-1.945,0-3.007-1.152-3.007-3.169V241.796z M193.438,248.476c0,0.9,0.396,1.242,1.026,1.242
		c0.63,0,1.026-0.342,1.026-1.242v-6.806c0-0.9-0.396-1.242-1.026-1.242c-0.631,0-1.026,0.342-1.026,1.242V248.476z"/>
	<path fill="#FFFFFF" d="M200.512,242.246v9.129h-1.782v-12.604h2.484l2.035,7.544v-7.544h1.765v12.604h-2.035L200.512,242.246z"/>
	<path fill="#FFFFFF" d="M70.734,265.683h2.719v1.8h-2.719v3.691h3.421v1.801h-5.401v-12.604h5.401v1.801h-3.421V265.683z"/>
	<path fill="#FFFFFF" d="M77.143,263.846v9.129H75.36v-12.604h2.485l2.035,7.544v-7.544h1.764v12.604h-2.034L77.143,263.846z"/>
	<path fill="#FFFFFF" d="M83.063,260.371h3.133c1.98,0,2.953,1.098,2.953,3.115v6.373c0,2.018-0.973,3.115-2.953,3.115h-3.133
		V260.371z M85.044,262.172v9.002h1.116c0.63,0,1.009-0.324,1.009-1.225v-6.554c0-0.899-0.378-1.224-1.009-1.224H85.044z"/>
	<path fill="#FFFFFF" d="M90.245,263.396c0-2.017,1.062-3.169,3.007-3.169c1.945,0,3.007,1.152,3.007,3.169v6.554
		c0,2.018-1.062,3.17-3.007,3.17c-1.944,0-3.007-1.152-3.007-3.17V263.396z M92.226,270.076c0,0.9,0.396,1.242,1.026,1.242
		c0.63,0,1.026-0.342,1.026-1.242v-6.807c0-0.9-0.396-1.242-1.026-1.242c-0.63,0-1.026,0.342-1.026,1.242V270.076z"/>
	<path fill="#FFFFFF" d="M100.2,260.227c1.926,0,2.917,1.152,2.917,3.169v0.396h-1.873v-0.522c0-0.9-0.36-1.242-0.99-1.242
		c-0.63,0-0.99,0.342-0.99,1.242c0,2.593,3.871,3.079,3.871,6.68c0,2.018-1.008,3.17-2.953,3.17c-1.945,0-2.953-1.152-2.953-3.17
		v-0.773h1.873v0.9c0,0.9,0.396,1.225,1.026,1.225s1.026-0.324,1.026-1.225c0-2.594-3.871-3.079-3.871-6.681
		C97.283,261.379,98.273,260.227,100.2,260.227z"/>
	<path fill="#FFFFFF" d="M110.011,268.275v1.674c0,2.018-1.008,3.17-2.953,3.17c-1.945,0-2.953-1.152-2.953-3.17v-6.554
		c0-2.017,1.008-3.169,2.953-3.169c1.944,0,2.953,1.152,2.953,3.169v1.225h-1.873v-1.351c0-0.9-0.396-1.242-1.026-1.242
		c-0.63,0-1.026,0.342-1.026,1.242v6.807c0,0.9,0.396,1.225,1.026,1.225c0.63,0,1.026-0.324,1.026-1.225v-1.801H110.011z"/>
	<path fill="#FFFFFF" d="M111.053,263.396c0-2.017,1.062-3.169,3.007-3.169c1.945,0,3.007,1.152,3.007,3.169v6.554
		c0,2.018-1.062,3.17-3.007,3.17c-1.944,0-3.007-1.152-3.007-3.17V263.396z M113.033,270.076c0,0.9,0.396,1.242,1.026,1.242
		c0.63,0,1.026-0.342,1.026-1.242v-6.807c0-0.9-0.396-1.242-1.026-1.242c-0.63,0-1.026,0.342-1.026,1.242V270.076z"/>
	<path fill="#FFFFFF" d="M124.212,263.486v1.638c0,2.017-0.972,3.115-2.953,3.115h-0.937v4.735h-1.98v-12.604h2.917
		C123.24,260.371,124.212,261.469,124.212,263.486z M120.323,262.172v4.267h0.937c0.63,0,0.972-0.288,0.972-1.188v-1.891
		c0-0.9-0.342-1.188-0.972-1.188H120.323z"/>
	<path fill="#FFFFFF" d="M126.947,268.797l-2.503-8.426h2.071l1.513,5.744l1.512-5.744h1.891l-2.503,8.426v4.178h-1.98V268.797z"/>
</g>
<g>
	<rect x="68.034" y="19.045" fill="none" width="257.266" height="42.734"/>
	<path fill="#662D91" d="M85.062,49.145h-4.773l-0.817-5.461h-5.805l-0.817,5.461h-4.343l4.816-30.1h6.923L85.062,49.145z
		 M74.269,39.599h4.558l-2.279-15.222L74.269,39.599z"/>
	<path fill="#662D91" d="M101.401,25.968v1.075c0,3.096-0.946,5.074-3.053,6.062c2.537,0.989,3.526,3.268,3.526,6.45v2.451
		c0,4.644-2.451,7.138-7.181,7.138h-7.439v-30.1h7.138C99.294,19.045,101.401,21.324,101.401,25.968z M91.984,23.346V31.3h1.849
		c1.763,0,2.838-0.774,2.838-3.183v-1.676c0-2.15-0.731-3.096-2.408-3.096H91.984z M91.984,35.6v9.245h2.709
		c1.591,0,2.451-0.731,2.451-2.968v-2.622c0-2.795-0.903-3.655-3.053-3.655H91.984z"/>
	<path fill="#662D91" d="M104.712,19.045h7.481c4.73,0,7.052,2.623,7.052,7.439v15.221c0,4.816-2.322,7.439-7.052,7.439h-7.481
		V19.045z M109.442,23.346v21.499h2.666c1.505,0,2.408-0.774,2.408-2.925V26.27c0-2.15-0.903-2.924-2.408-2.924H109.442z"/>
	<path fill="#662D91" d="M121.869,26.27c0-4.816,2.537-7.568,7.181-7.568c4.644,0,7.181,2.752,7.181,7.568v15.65
		c0,4.816-2.537,7.568-7.181,7.568c-4.644,0-7.181-2.752-7.181-7.568V26.27z M126.599,42.222c0,2.149,0.946,2.967,2.451,2.967
		c1.505,0,2.451-0.817,2.451-2.967V25.968c0-2.149-0.946-2.967-2.451-2.967c-1.505,0-2.451,0.817-2.451,2.967V42.222z"/>
	<path fill="#662D91" d="M149.302,40.416l3.225-21.371h6.579v30.1h-4.472V27.559l-3.268,21.586h-4.472l-3.526-21.285v21.285h-4.128
		v-30.1h6.579L149.302,40.416z"/>
	<path fill="#662D91" d="M162.545,19.045h4.73v30.1h-4.73V19.045z"/>
	<path fill="#662D91" d="M174.929,27.344v21.801h-4.257v-30.1h5.934l4.859,18.017V19.045h4.214v30.1h-4.859L174.929,27.344z"/>
	<path fill="#662D91" d="M204.383,49.145h-4.773l-0.816-5.461h-5.805l-0.817,5.461h-4.343l4.816-30.1h6.922L204.383,49.145z
		 M193.59,39.599h4.558l-2.279-15.222L193.59,39.599z"/>
	<path fill="#662D91" d="M206.576,19.045h4.73v25.8h7.782v4.3h-12.513V19.045z"/>
</g>
</svg>
