<?xml version="1.0" encoding="utf-8"?>
<!-- Generator: Adobe Illustrator 16.0.4, SVG Export Plug-In . SVG Version: 6.00 Build 0)  -->
<!DOCTYPE svg PUBLIC "-//W3C//DTD SVG 1.1//EN" "http://www.w3.org/Graphics/SVG/1.1/DTD/svg11.dtd">
<svg version="1.1" id="Layer_1" xmlns="http://www.w3.org/2000/svg" xmlns:xlink="http://www.w3.org/1999/xlink" x="0px" y="0px"
	 width="298.077px" height="294.531px" viewBox="0 0 298.077 294.531" enable-background="new 0 0 298.077 294.531"
	 xml:space="preserve">
<g>
	<g>
		<path fill="#686868" d="M64.869,0.001c-14.562,0-26.359,14.529-26.359,32.474v85.055L0,131.865l38.51,62.984v67.207
			c0,17.941,11.797,32.475,26.359,32.475h206.862c14.549,0,26.346-14.533,26.346-32.475V32.475
			c0-17.944-11.797-32.474-26.346-32.474H64.869z"/>
	</g>
</g>
<rect x="289.417" y="27.53" fill="none" width="257.265" height="42.735"/>
<text transform="matrix(1 0 0 1 341.1274 55.5303)" fill="#2E3192" font-family="'BebasNeue'" font-size="40">cardiothoracic</text>
<rect x="68.034" y="65.975" fill="none" width="200.126" height="212.319"/>
<text transform="matrix(1 0 0 1 68.0337 78.5742)"><tspan x="0" y="0" fill="#FFFFFF" font-family="'BebasNeue'" font-size="18">BARIATRIC/GASTRIC BYPASS</tspan><tspan x="0" y="21.6" fill="#FFFFFF" font-family="'BebasNeue'" font-size="18">HERNIA REPAIR</tspan><tspan x="0" y="43.2" fill="#FFFFFF" font-family="'BebasNeue'" font-size="18">LAPAROSCOPY</tspan><tspan x="0" y="64.801" fill="#FFFFFF" font-family="'BebasNeue'" font-size="18">HYSTERECTOMY</tspan><tspan x="0" y="86.4" fill="#FFFFFF" font-family="'BebasNeue'" font-size="18">CHOLECYSTECTOMY</tspan><tspan x="0" y="108" fill="#FFFFFF" font-family="'BebasNeue'" font-size="18">COMMON BILE DUCT EXPLORATION</tspan><tspan x="0" y="129.6" fill="#FFFFFF" font-family="'BebasNeue'" font-size="18">COLORECTAL RESECTION</tspan><tspan x="0" y="151.2" fill="#FFFFFF" font-family="'BebasNeue'" font-size="18">EXPLORATORY LAPAROTOMY</tspan><tspan x="0" y="172.801" fill="#FFFFFF" font-family="'BebasNeue'" font-size="18">SMALL BOWEL RESECTION</tspan><tspan x="0" y="194.4" fill="#FFFFFF" font-family="'BebasNeue'" font-size="18">ENDOSCOPY</tspan></text>
<rect x="68.034" y="19.045" fill="none" width="257.266" height="42.734"/>
<text transform="matrix(1 0 0 1 68.0337 49.1445)" fill="#662D91" font-family="'BebasNeue'" font-size="43">abdominal</text>
</svg>
