<?xml version="1.0" encoding="utf-8"?>
<!-- Generator: Adobe Illustrator 16.0.4, SVG Export Plug-In . SVG Version: 6.00 Build 0)  -->
<!DOCTYPE svg PUBLIC "-//W3C//DTD SVG 1.1//EN" "http://www.w3.org/Graphics/SVG/1.1/DTD/svg11.dtd">
<svg version="1.1" id="Layer_1" xmlns="http://www.w3.org/2000/svg" xmlns:xlink="http://www.w3.org/1999/xlink" x="0px" y="0px"
	 width="298.078px" height="294.531px" viewBox="0 0 298.078 294.531" enable-background="new 0 0 298.078 294.531"
	 xml:space="preserve">
<g>
	<g>
		<path fill="#686868" d="M233.21,0c14.562,0,26.359,14.529,26.359,32.475v85.054l38.508,14.336l-38.508,62.984v67.207
			c0,17.941-11.797,32.475-26.359,32.475H26.347c-14.548,0-26.345-14.533-26.345-32.475V32.475C0.001,14.529,11.798,0,26.347,0
			H233.21z"/>
	</g>
</g>
<g>
	<rect x="-7" y="72.717" fill="none" width="235.605" height="261.539"/>
	<path fill="#FFFFFF" d="M196.626,84.131v2.418c0,2.912-1.456,4.576-4.264,4.576c-2.809,0-4.265-1.664-4.265-4.576v-9.465
		c0-2.912,1.456-4.576,4.265-4.576c2.808,0,4.264,1.664,4.264,4.576v1.768h-2.704v-1.949c0-1.301-0.571-1.795-1.481-1.795
		s-1.482,0.494-1.482,1.795v9.828c0,1.3,0.572,1.768,1.482,1.768s1.481-0.468,1.481-1.768v-2.6H196.626z"/>
	<path fill="#FFFFFF" d="M207.624,90.916h-2.887l-0.494-3.302h-3.51l-0.494,3.302h-2.626l2.912-18.2h4.187L207.624,90.916z
		 M201.098,85.145h2.756l-1.378-9.205L201.098,85.145z"/>
	<path fill="#FFFFFF" d="M217.504,76.902v0.649c0,1.872-0.572,3.068-1.847,3.667c1.534,0.598,2.133,1.976,2.133,3.899v1.482
		c0,2.808-1.482,4.315-4.343,4.315h-4.498v-18.2h4.316C216.229,72.716,217.504,74.094,217.504,76.902z M211.81,75.316v4.81h1.118
		c1.065,0,1.716-0.468,1.716-1.924v-1.015c0-1.3-0.442-1.871-1.456-1.871H211.81z M211.81,82.727v5.59h1.638
		c0.962,0,1.482-0.441,1.482-1.794v-1.586c0-1.69-0.546-2.21-1.847-2.21H211.81z"/>
	<path fill="#FFFFFF" d="M223.795,80.776h4.004v5.772c0,2.912-1.456,4.576-4.264,4.576c-2.809,0-4.265-1.664-4.265-4.576v-9.465
		c0-2.912,1.456-4.576,4.265-4.576c2.808,0,4.264,1.664,4.264,4.576v1.768h-2.704v-1.949c0-1.301-0.571-1.795-1.481-1.795
		s-1.482,0.494-1.482,1.795v9.828c0,1.3,0.572,1.768,1.482,1.768s1.481-0.468,1.481-1.768v-3.354h-1.3V80.776z"/>
	<path fill="#FFFFFF" d="M22.664,115.33v2.418c0,2.912-1.455,4.576-4.264,4.576c-2.808,0-4.264-1.664-4.264-4.576v-9.464
		c0-2.912,1.456-4.576,4.264-4.576c2.809,0,4.264,1.664,4.264,4.576v1.769H19.96v-1.951c0-1.299-0.572-1.793-1.482-1.793
		c-0.91,0-1.482,0.494-1.482,1.793v9.829c0,1.3,0.572,1.769,1.482,1.769c0.91,0,1.482-0.469,1.482-1.769v-2.601H22.664z"/>
	<path fill="#FFFFFF" d="M33.662,122.117h-2.887l-0.493-3.303h-3.511l-0.494,3.303h-2.625l2.912-18.201h4.186L33.662,122.117z
		 M27.136,116.345h2.757l-1.379-9.204L27.136,116.345z"/>
	<path fill="#FFFFFF" d="M40.968,122.117c-0.155-0.469-0.26-0.754-0.26-2.236v-2.86c0-1.69-0.572-2.313-1.872-2.313h-0.988v7.41
		h-2.859v-18.201h4.315c2.964,0,4.238,1.378,4.238,4.186v1.431c0,1.872-0.598,3.095-1.872,3.692c1.43,0.598,1.898,1.976,1.898,3.874
		v2.808c0,0.885,0.025,1.534,0.312,2.211H40.968z M37.848,106.516v5.591h1.118c1.066,0,1.716-0.468,1.716-1.925v-1.793
		c0-1.301-0.441-1.873-1.455-1.873H37.848z"/>
	<path fill="#FFFFFF" d="M45.205,108.284c0-2.912,1.534-4.576,4.343-4.576c2.808,0,4.342,1.664,4.342,4.576v9.464
		c0,2.912-1.534,4.576-4.342,4.576c-2.809,0-4.343-1.664-4.343-4.576V108.284z M48.065,117.931c0,1.3,0.572,1.794,1.482,1.794
		c0.909,0,1.481-0.494,1.481-1.794v-9.829c0-1.299-0.572-1.793-1.481-1.793c-0.91,0-1.482,0.494-1.482,1.793V117.931z"/>
	<path fill="#FFFFFF" d="M54.903,103.916h8.841v2.6h-2.99v15.602h-2.86v-15.602h-2.99V103.916z"/>
	<path fill="#FFFFFF" d="M64.991,103.916h2.86v18.201h-2.86V103.916z"/>
	<path fill="#FFFFFF" d="M69.931,103.916h4.524c2.859,0,4.264,1.586,4.264,4.498v9.205c0,2.912-1.404,4.498-4.264,4.498h-4.524
		V103.916z M72.791,106.516v13.001h1.611c0.91,0,1.457-0.468,1.457-1.769v-9.464c0-1.3-0.547-1.769-1.457-1.769H72.791z"/>
	<path fill="#FFFFFF" d="M87.429,111.586h3.926v2.601h-3.926v5.33h4.939v2.601h-7.8v-18.201h7.8v2.6h-4.939V111.586z"/>
	<path fill="#FFFFFF" d="M96.685,108.934v13.184H94.11v-18.201h3.589l2.938,10.895v-10.895h2.548v18.201h-2.938L96.685,108.934z"/>
	<path fill="#FFFFFF" d="M105.238,103.916h4.524c2.859,0,4.264,1.586,4.264,4.498v9.205c0,2.912-1.404,4.498-4.264,4.498h-4.524
		V103.916z M108.099,106.516v13.001h1.611c0.91,0,1.457-0.468,1.457-1.769v-9.464c0-1.3-0.547-1.769-1.457-1.769H108.099z"/>
	<path fill="#FFFFFF" d="M125.077,122.117h-2.887l-0.494-3.303h-3.51l-0.494,3.303h-2.626l2.912-18.201h4.187L125.077,122.117z
		 M118.551,116.345h2.756l-1.378-9.204L118.551,116.345z"/>
	<path fill="#FFFFFF" d="M132.383,122.117c-0.156-0.469-0.261-0.754-0.261-2.236v-2.86c0-1.69-0.571-2.313-1.871-2.313h-0.988v7.41
		h-2.86v-18.201h4.316c2.964,0,4.238,1.378,4.238,4.186v1.431c0,1.872-0.599,3.095-1.872,3.692c1.43,0.598,1.897,1.976,1.897,3.874
		v2.808c0,0.885,0.026,1.534,0.312,2.211H132.383z M129.263,106.516v5.591h1.118c1.065,0,1.716-0.468,1.716-1.925v-1.793
		c0-1.301-0.442-1.873-1.456-1.873H129.263z"/>
	<path fill="#FFFFFF" d="M136.022,103.916h8.84v2.6h-2.989v15.602h-2.86v-15.602h-2.99V103.916z"/>
	<path fill="#FFFFFF" d="M148.971,111.586h3.926v2.601h-3.926v5.33h4.94v2.601h-7.801v-18.201h7.801v2.6h-4.94V111.586z"/>
	<path fill="#FFFFFF" d="M161.659,122.117c-0.156-0.469-0.26-0.754-0.26-2.236v-2.86c0-1.69-0.572-2.313-1.873-2.313h-0.987v7.41
		h-2.86v-18.201h4.316c2.964,0,4.238,1.378,4.238,4.186v1.431c0,1.872-0.599,3.095-1.872,3.692c1.43,0.598,1.897,1.976,1.897,3.874
		v2.808c0,0.885,0.026,1.534,0.312,2.211H161.659z M158.539,106.516v5.591h1.118c1.065,0,1.716-0.468,1.716-1.925v-1.793
		c0-1.301-0.442-1.873-1.456-1.873H158.539z"/>
	<path fill="#FFFFFF" d="M168.991,111.586h3.926v2.601h-3.926v5.33h4.939v2.601h-7.8v-18.201h7.8v2.6h-4.939V111.586z"/>
	<path fill="#FFFFFF" d="M183.993,115.33v2.418c0,2.912-1.456,4.576-4.264,4.576c-2.809,0-4.265-1.664-4.265-4.576v-9.464
		c0-2.912,1.456-4.576,4.265-4.576c2.808,0,4.264,1.664,4.264,4.576v1.769h-2.704v-1.951c0-1.299-0.571-1.793-1.481-1.793
		s-1.482,0.494-1.482,1.793v9.829c0,1.3,0.572,1.769,1.482,1.769s1.481-0.469,1.481-1.769v-2.601H183.993z"/>
	<path fill="#FFFFFF" d="M184.902,103.916h8.841v2.6h-2.99v15.602h-2.86v-15.602h-2.99V103.916z"/>
	<path fill="#FFFFFF" d="M194.756,108.284c0-2.912,1.534-4.576,4.343-4.576c2.808,0,4.342,1.664,4.342,4.576v9.464
		c0,2.912-1.534,4.576-4.342,4.576c-2.809,0-4.343-1.664-4.343-4.576V108.284z M197.616,117.931c0,1.3,0.572,1.794,1.482,1.794
		s1.481-0.494,1.481-1.794v-9.829c0-1.299-0.571-1.793-1.481-1.793s-1.482,0.494-1.482,1.793V117.931z"/>
	<path fill="#FFFFFF" d="M211.345,116.838l1.949-12.922h3.979v18.201h-2.704v-13.053l-1.976,13.053h-2.704l-2.133-12.871v12.871
		h-2.496v-18.201h3.979L211.345,116.838z"/>
	<path fill="#FFFFFF" d="M222.029,116.084l-3.614-12.168h2.99l2.185,8.295l2.184-8.295h2.73l-3.614,12.168v6.033h-2.86V116.084z"/>
	<path fill="#FFFFFF" d="M32.646,146.531v2.418c0,2.912-1.455,4.576-4.264,4.576s-4.264-1.664-4.264-4.576v-9.465
		c0-2.912,1.455-4.576,4.264-4.576s4.264,1.664,4.264,4.576v1.768h-2.703v-1.949c0-1.301-0.572-1.795-1.482-1.795
		s-1.482,0.494-1.482,1.795v9.828c0,1.3,0.572,1.768,1.482,1.768s1.482-0.468,1.482-1.768v-2.6H32.646z"/>
	<path fill="#FFFFFF" d="M43.645,153.316h-2.887l-0.493-3.302h-3.511l-0.494,3.302h-2.625l2.912-18.2h4.186L43.645,153.316z
		 M37.118,147.545h2.757l-1.379-9.205L37.118,147.545z"/>
	<path fill="#FFFFFF" d="M50.95,153.316c-0.155-0.468-0.26-0.754-0.26-2.235v-2.86c0-1.689-0.572-2.314-1.872-2.314H47.83v7.41
		h-2.859v-18.2h4.315c2.964,0,4.238,1.378,4.238,4.187v1.43c0,1.872-0.598,3.094-1.872,3.692c1.43,0.598,1.898,1.976,1.898,3.874
		v2.809c0,0.883,0.025,1.533,0.312,2.209H50.95z M47.83,137.717v5.59h1.118c1.066,0,1.716-0.469,1.716-1.924v-1.795
		c0-1.3-0.441-1.871-1.455-1.871H47.83z"/>
	<path fill="#FFFFFF" d="M55.188,139.484c0-2.912,1.534-4.576,4.343-4.576c2.808,0,4.342,1.664,4.342,4.576v9.465
		c0,2.912-1.534,4.576-4.342,4.576c-2.809,0-4.343-1.664-4.343-4.576V139.484z M58.048,149.131c0,1.3,0.572,1.794,1.482,1.794
		c0.909,0,1.481-0.494,1.481-1.794v-9.828c0-1.301-0.572-1.795-1.481-1.795c-0.91,0-1.482,0.494-1.482,1.795V149.131z"/>
	<path fill="#FFFFFF" d="M64.886,135.116h8.841v2.601h-2.99v15.6h-2.86v-15.6h-2.99V135.116z"/>
	<path fill="#FFFFFF" d="M74.974,135.116h2.86v18.2h-2.86V135.116z"/>
	<path fill="#FFFFFF" d="M79.913,135.116h4.524c2.859,0,4.264,1.586,4.264,4.498v9.204c0,2.912-1.404,4.498-4.264,4.498h-4.524
		V135.116z M82.773,137.717v13h1.611c0.91,0,1.457-0.468,1.457-1.768v-9.465c0-1.3-0.547-1.768-1.457-1.768H82.773z"/>
	<path fill="#FFFFFF" d="M103.808,153.316h-2.887l-0.494-3.302h-3.51l-0.494,3.302h-2.626l2.912-18.2h4.187L103.808,153.316z
		 M97.281,147.545h2.756l-1.378-9.205L97.281,147.545z"/>
	<path fill="#FFFFFF" d="M111.113,153.316c-0.156-0.468-0.261-0.754-0.261-2.235v-2.86c0-1.689-0.571-2.314-1.871-2.314h-0.988v7.41
		h-2.86v-18.2h4.316c2.964,0,4.238,1.378,4.238,4.187v1.43c0,1.872-0.599,3.094-1.872,3.692c1.43,0.598,1.897,1.976,1.897,3.874
		v2.809c0,0.883,0.026,1.533,0.312,2.209H111.113z M107.993,137.717v5.59h1.118c1.065,0,1.716-0.469,1.716-1.924v-1.795
		c0-1.3-0.442-1.871-1.456-1.871H107.993z"/>
	<path fill="#FFFFFF" d="M114.753,135.116h8.84v2.601h-2.989v15.6h-2.86v-15.6h-2.99V135.116z"/>
	<path fill="#FFFFFF" d="M127.701,142.787h3.926v2.6h-3.926v5.33h4.94v2.6h-7.801v-18.2h7.801v2.601h-4.94V142.787z"/>
	<path fill="#FFFFFF" d="M140.39,153.316c-0.156-0.468-0.26-0.754-0.26-2.235v-2.86c0-1.689-0.572-2.314-1.873-2.314h-0.987v7.41
		h-2.86v-18.2h4.316c2.964,0,4.238,1.378,4.238,4.187v1.43c0,1.872-0.599,3.094-1.872,3.692c1.43,0.598,1.897,1.976,1.897,3.874
		v2.809c0,0.883,0.026,1.533,0.312,2.209H140.39z M137.27,137.717v5.59h1.118c1.065,0,1.716-0.469,1.716-1.924v-1.795
		c0-1.3-0.442-1.871-1.456-1.871H137.27z"/>
	<path fill="#FFFFFF" d="M147.279,147.285l-3.614-12.169h2.99l2.185,8.294l2.184-8.294h2.73l-3.614,12.169v6.031h-2.86V147.285z"/>
	<path fill="#FFFFFF" d="M162.776,134.908c2.781,0,4.212,1.664,4.212,4.576v0.572h-2.704v-0.754c0-1.301-0.521-1.795-1.431-1.795
		c-0.909,0-1.43,0.494-1.43,1.795c0,3.744,5.59,4.445,5.59,9.646c0,2.912-1.456,4.576-4.264,4.576c-2.809,0-4.265-1.664-4.265-4.576
		v-1.119h2.704v1.301c0,1.3,0.572,1.768,1.482,1.768s1.482-0.468,1.482-1.768c0-3.744-5.591-4.446-5.591-9.646
		C158.563,136.572,159.994,134.908,162.776,134.908z"/>
	<path fill="#FFFFFF" d="M171.382,135.116v14.04c0,1.301,0.571,1.769,1.481,1.769s1.482-0.468,1.482-1.769v-14.04h2.704v13.858
		c0,2.912-1.456,4.576-4.265,4.576c-2.808,0-4.264-1.664-4.264-4.576v-13.858H171.382z"/>
	<path fill="#FFFFFF" d="M184.979,153.316c-0.156-0.468-0.26-0.754-0.26-2.235v-2.86c0-1.689-0.572-2.314-1.873-2.314h-0.987v7.41
		h-2.86v-18.2h4.316c2.964,0,4.238,1.378,4.238,4.187v1.43c0,1.872-0.599,3.094-1.872,3.692c1.43,0.598,1.897,1.976,1.897,3.874
		v2.809c0,0.883,0.026,1.533,0.312,2.209H184.979z M181.859,137.717v5.59h1.118c1.065,0,1.716-0.469,1.716-1.924v-1.795
		c0-1.3-0.442-1.871-1.456-1.871H181.859z"/>
	<path fill="#FFFFFF" d="M193.741,143.177h4.004v5.772c0,2.912-1.456,4.576-4.264,4.576c-2.809,0-4.265-1.664-4.265-4.576v-9.465
		c0-2.912,1.456-4.576,4.265-4.576c2.808,0,4.264,1.664,4.264,4.576v1.768h-2.704v-1.949c0-1.301-0.571-1.795-1.481-1.795
		s-1.482,0.494-1.482,1.795v9.828c0,1.3,0.572,1.768,1.482,1.768s1.481-0.468,1.481-1.768v-3.354h-1.3V143.177z"/>
	<path fill="#FFFFFF" d="M202.451,142.787h3.926v2.6h-3.926v5.33h4.94v2.6h-7.801v-18.2h7.801v2.601h-4.94V142.787z"/>
	<path fill="#FFFFFF" d="M215.14,153.316c-0.156-0.468-0.26-0.754-0.26-2.235v-2.86c0-1.689-0.572-2.314-1.873-2.314h-0.987v7.41
		h-2.86v-18.2h4.316c2.964,0,4.238,1.378,4.238,4.187v1.43c0,1.872-0.599,3.094-1.872,3.692c1.43,0.598,1.897,1.976,1.897,3.874
		v2.809c0,0.883,0.026,1.533,0.312,2.209H215.14z M212.02,137.717v5.59h1.118c1.065,0,1.716-0.469,1.716-1.924v-1.795
		c0-1.3-0.442-1.871-1.456-1.871H212.02z"/>
	<path fill="#FFFFFF" d="M222.029,147.285l-3.614-12.169h2.99l2.185,8.294l2.184-8.294h2.73l-3.614,12.169v6.031h-2.86V147.285z"/>
	<path fill="#FFFFFF" d="M28.125,177.73v2.418c0,2.912-1.457,4.576-4.265,4.576s-4.264-1.664-4.264-4.576v-9.465
		c0-2.912,1.457-4.576,4.264-4.576s4.265,1.664,4.265,4.576v1.769H25.42v-1.95c0-1.3-0.572-1.794-1.481-1.794
		c-0.91,0-1.482,0.494-1.482,1.794v9.828c0,1.301,0.572,1.769,1.482,1.769c0.909,0,1.481-0.468,1.481-1.769v-2.6H28.125z"/>
	<path fill="#FFFFFF" d="M39.122,184.517h-2.886l-0.494-3.302h-3.51l-0.494,3.302h-2.627l2.912-18.2h4.187L39.122,184.517z
		 M32.596,178.744h2.756l-1.378-9.204L32.596,178.744z"/>
	<path fill="#FFFFFF" d="M46.428,184.517c-0.156-0.468-0.26-0.754-0.26-2.236v-2.86c0-1.689-0.572-2.313-1.872-2.313h-0.988v7.41
		h-2.86v-18.2h4.316c2.965,0,4.238,1.377,4.238,4.186v1.43c0,1.873-0.598,3.095-1.872,3.692c1.431,0.599,1.898,1.977,1.898,3.874
		v2.809c0,0.884,0.026,1.534,0.312,2.21H46.428z M43.308,168.916v5.59h1.118c1.066,0,1.717-0.468,1.717-1.924v-1.794
		c0-1.3-0.442-1.872-1.457-1.872H43.308z"/>
	<path fill="#FFFFFF" d="M50.899,166.316h4.524c2.859,0,4.264,1.586,4.264,4.498v9.204c0,2.912-1.404,4.498-4.264,4.498h-4.524
		V166.316z M53.76,168.916v13h1.611c0.91,0,1.457-0.468,1.457-1.768v-9.465c0-1.3-0.547-1.768-1.457-1.768H53.76z"/>
	<path fill="#FFFFFF" d="M61.508,166.316h2.859v18.2h-2.859V166.316z"/>
	<path fill="#FFFFFF" d="M75.703,184.517h-2.887l-0.493-3.302h-3.511l-0.494,3.302h-2.625l2.912-18.2h4.186L75.703,184.517z
		 M69.177,178.744h2.757l-1.379-9.204L69.177,178.744z"/>
	<path fill="#FFFFFF" d="M85.297,177.73v2.418c0,2.912-1.455,4.576-4.264,4.576s-4.264-1.664-4.264-4.576v-9.465
		c0-2.912,1.455-4.576,4.264-4.576s4.264,1.664,4.264,4.576v1.769h-2.703v-1.95c0-1.3-0.572-1.794-1.482-1.794
		s-1.482,0.494-1.482,1.794v9.828c0,1.301,0.572,1.769,1.482,1.769s1.482-0.468,1.482-1.769v-2.6H85.297z"/>
	<path fill="#FFFFFF" d="M99.363,177.73v2.418c0,2.912-1.456,4.576-4.264,4.576c-2.809,0-4.265-1.664-4.265-4.576v-9.465
		c0-2.912,1.456-4.576,4.265-4.576c2.808,0,4.264,1.664,4.264,4.576v1.769h-2.704v-1.95c0-1.3-0.571-1.794-1.481-1.794
		s-1.482,0.494-1.482,1.794v9.828c0,1.301,0.572,1.769,1.482,1.769s1.481-0.468,1.481-1.769v-2.6H99.363z"/>
	<path fill="#FFFFFF" d="M110.362,184.517h-2.887l-0.494-3.302h-3.51l-0.494,3.302h-2.626l2.912-18.2h4.187L110.362,184.517z
		 M103.836,178.744h2.756l-1.378-9.204L103.836,178.744z"/>
	<path fill="#FFFFFF" d="M109.867,166.316h8.841v2.6h-2.99v15.601h-2.86v-15.601h-2.99V166.316z"/>
	<path fill="#FFFFFF" d="M122.815,184.517h-2.86v-18.2h2.86v7.8h3.25v-7.8h2.912v18.2h-2.912v-7.8h-3.25V184.517z"/>
	<path fill="#FFFFFF" d="M133.917,173.986h3.926v2.6h-3.926v5.33h4.939v2.601h-7.8v-18.2h7.8v2.6h-4.939V173.986z"/>
	<path fill="#FFFFFF" d="M139.793,166.316h8.841v2.6h-2.99v15.601h-2.86v-15.601h-2.99V166.316z"/>
	<path fill="#FFFFFF" d="M152.741,173.986h3.926v2.6h-3.926v5.33h4.939v2.601h-7.8v-18.2h7.8v2.6h-4.939V173.986z"/>
	<path fill="#FFFFFF" d="M165.43,184.517c-0.156-0.468-0.261-0.754-0.261-2.236v-2.86c0-1.689-0.571-2.313-1.871-2.313h-0.988v7.41
		h-2.86v-18.2h4.316c2.964,0,4.238,1.377,4.238,4.186v1.43c0,1.873-0.599,3.095-1.872,3.692c1.43,0.599,1.897,1.977,1.897,3.874
		v2.809c0,0.884,0.026,1.534,0.312,2.21H165.43z M162.31,168.916v5.59h1.118c1.065,0,1.716-0.468,1.716-1.924v-1.794
		c0-1.3-0.442-1.872-1.456-1.872H162.31z"/>
	<path fill="#FFFFFF" d="M169.901,166.316h2.86v18.2h-2.86V166.316z"/>
	<path fill="#FFFFFF" d="M182.771,166.316v2.548l-5.435,13.052h5.435v2.601h-8.373v-2.548l5.435-13.053h-5.174v-2.6H182.771z"/>
	<path fill="#FFFFFF" d="M193.718,184.517h-2.887l-0.494-3.302h-3.51l-0.494,3.302h-2.626l2.912-18.2h4.187L193.718,184.517z
		 M187.191,178.744h2.756l-1.378-9.204L187.191,178.744z"/>
	<path fill="#FFFFFF" d="M193.223,166.316h8.841v2.6h-2.99v15.601h-2.86v-15.601h-2.99V166.316z"/>
	<path fill="#FFFFFF" d="M203.311,166.316h2.86v18.2h-2.86V166.316z"/>
	<path fill="#FFFFFF" d="M208.016,170.684c0-2.912,1.534-4.576,4.343-4.576c2.808,0,4.342,1.664,4.342,4.576v9.465
		c0,2.912-1.534,4.576-4.342,4.576c-2.809,0-4.343-1.664-4.343-4.576V170.684z M210.876,180.33c0,1.301,0.572,1.795,1.482,1.795
		s1.481-0.494,1.481-1.795v-9.828c0-1.3-0.571-1.794-1.481-1.794s-1.482,0.494-1.482,1.794V180.33z"/>
	<path fill="#FFFFFF" d="M221.094,171.334v13.183h-2.574v-18.2h3.589l2.938,10.895v-10.895h2.549v18.2h-2.938L221.094,171.334z"/>
	<path fill="#FFFFFF" d="M87.793,207.517h-2.887l-0.493-3.302h-3.511l-0.494,3.302h-2.625l2.912-18.2h4.186L87.793,207.517z
		 M81.267,201.744h2.757l-1.379-9.204L81.267,201.744z"/>
	<path fill="#FFFFFF" d="M97.673,193.502v0.65c0,1.872-0.572,3.068-1.847,3.666c1.534,0.598,2.132,1.977,2.132,3.9v1.481
		c0,2.809-1.481,4.316-4.342,4.316h-4.498v-18.2h4.316C96.398,189.316,97.673,190.693,97.673,193.502z M91.979,191.916v4.811h1.118
		c1.065,0,1.716-0.469,1.716-1.924v-1.015c0-1.3-0.442-1.872-1.456-1.872H91.979z M91.979,199.326v5.59h1.638
		c0.962,0,1.482-0.441,1.482-1.793v-1.587c0-1.69-0.546-2.21-1.847-2.21H91.979z"/>
	<path fill="#FFFFFF" d="M99.674,189.316h4.524c2.859,0,4.264,1.586,4.264,4.498v9.204c0,2.912-1.404,4.498-4.264,4.498h-4.524
		V189.316z M102.534,191.916v13h1.611c0.91,0,1.457-0.468,1.457-1.768v-9.465c0-1.3-0.547-1.768-1.457-1.768H102.534z"/>
	<path fill="#FFFFFF" d="M110.047,193.684c0-2.912,1.534-4.576,4.343-4.576c2.808,0,4.342,1.664,4.342,4.576v9.465
		c0,2.912-1.534,4.576-4.342,4.576c-2.809,0-4.343-1.664-4.343-4.576V193.684z M112.907,203.33c0,1.301,0.572,1.795,1.482,1.795
		s1.481-0.494,1.481-1.795v-9.828c0-1.3-0.571-1.794-1.481-1.794s-1.482,0.494-1.482,1.794V203.33z"/>
	<path fill="#FFFFFF" d="M126.636,202.238l1.949-12.922h3.979v18.2h-2.704v-13.053l-1.976,13.053h-2.704l-2.133-12.87v12.87h-2.496
		v-18.2h3.979L126.636,202.238z"/>
	<path fill="#FFFFFF" d="M134.643,189.316h2.86v18.2h-2.86V189.316z"/>
	<path fill="#FFFFFF" d="M142.13,194.334v13.183h-2.574v-18.2h3.589l2.938,10.895v-10.895h2.548v18.2h-2.938L142.13,194.334z"/>
	<path fill="#FFFFFF" d="M159.94,207.517h-2.887l-0.494-3.302h-3.51l-0.494,3.302h-2.626l2.912-18.2h4.187L159.94,207.517z
		 M153.414,201.744h2.756l-1.378-9.204L153.414,201.744z"/>
	<path fill="#FFFFFF" d="M161.266,189.316h2.86v15.6h4.706v2.601h-7.566V189.316z"/>
	<path fill="#FFFFFF" d="M183.366,207.517h-2.887l-0.494-3.302h-3.51l-0.494,3.302h-2.626l2.912-18.2h4.187L183.366,207.517z
		 M176.84,201.744h2.756l-1.378-9.204L176.84,201.744z"/>
	<path fill="#FFFFFF" d="M184.432,193.684c0-2.912,1.534-4.576,4.343-4.576c2.808,0,4.342,1.664,4.342,4.576v9.465
		c0,2.912-1.534,4.576-4.342,4.576c-2.809,0-4.343-1.664-4.343-4.576V193.684z M187.292,203.33c0,1.301,0.572,1.795,1.482,1.795
		s1.481-0.494,1.481-1.795v-9.828c0-1.3-0.571-1.794-1.481-1.794s-1.482,0.494-1.482,1.794V203.33z"/>
	<path fill="#FFFFFF" d="M200.942,207.517c-0.156-0.468-0.26-0.754-0.26-2.236v-2.86c0-1.689-0.572-2.313-1.873-2.313h-0.987v7.41
		h-2.86v-18.2h4.316c2.964,0,4.238,1.377,4.238,4.186v1.43c0,1.873-0.599,3.095-1.872,3.692c1.43,0.599,1.897,1.977,1.897,3.874
		v2.809c0,0.884,0.026,1.534,0.312,2.21H200.942z M197.822,191.916v5.59h1.118c1.065,0,1.716-0.468,1.716-1.924v-1.794
		c0-1.3-0.442-1.872-1.456-1.872H197.822z"/>
	<path fill="#FFFFFF" d="M204.582,189.316h8.841v2.6h-2.99v15.601h-2.86v-15.601h-2.99V189.316z"/>
	<path fill="#FFFFFF" d="M214.67,189.316h2.86v18.2h-2.86V189.316z"/>
	<path fill="#FFFFFF" d="M227.903,200.73v2.418c0,2.912-1.456,4.576-4.264,4.576c-2.809,0-4.265-1.664-4.265-4.576v-9.465
		c0-2.912,1.456-4.576,4.265-4.576c2.808,0,4.264,1.664,4.264,4.576v1.769h-2.704v-1.95c0-1.3-0.571-1.794-1.481-1.794
		s-1.482,0.494-1.482,1.794v9.828c0,1.301,0.572,1.769,1.482,1.769s1.481-0.468,1.481-1.769v-2.6H227.903z"/>
	<path fill="#FFFFFF" d="M93.72,238.717h-2.887l-0.494-3.303h-3.51l-0.494,3.303h-2.626l2.912-18.201h4.187L93.72,238.717z
		 M87.193,232.944h2.756l-1.378-9.204L87.193,232.944z"/>
	<path fill="#FFFFFF" d="M97.593,225.534v13.183h-2.574v-18.201h3.589l2.938,10.895v-10.895h2.548v18.201h-2.938L97.593,225.534z"/>
	<path fill="#FFFFFF" d="M109.007,228.187h3.926v2.601h-3.926v5.33h4.939v2.6h-7.8v-18.201h7.8v2.601h-4.939V228.187z"/>
	<path fill="#FFFFFF" d="M118.445,220.516v14.041c0,1.3,0.571,1.768,1.481,1.768s1.482-0.468,1.482-1.768v-14.041h2.704v13.859
		c0,2.912-1.456,4.576-4.265,4.576c-2.808,0-4.264-1.664-4.264-4.576v-13.859H118.445z"/>
	<path fill="#FFFFFF" d="M132.043,238.717c-0.156-0.468-0.261-0.754-0.261-2.236v-2.859c0-1.69-0.571-2.314-1.871-2.314h-0.988v7.41
		h-2.86v-18.201h4.316c2.964,0,4.238,1.379,4.238,4.187v1.431c0,1.871-0.599,3.094-1.872,3.691c1.43,0.598,1.897,1.977,1.897,3.875
		v2.808c0,0.884,0.026,1.534,0.312,2.21H132.043z M128.923,223.116v5.591h1.118c1.065,0,1.716-0.469,1.716-1.925v-1.794
		c0-1.3-0.442-1.872-1.456-1.872H128.923z"/>
	<path fill="#FFFFFF" d="M138.933,232.685l-3.613-12.169h2.989l2.185,8.295l2.184-8.295h2.73l-3.614,12.169v6.032h-2.86V232.685z"/>
	<path fill="#FFFFFF" d="M150.218,220.309c2.781,0,4.212,1.664,4.212,4.576v0.571h-2.704v-0.754c0-1.3-0.521-1.794-1.431-1.794
		c-0.909,0-1.43,0.494-1.43,1.794c0,3.744,5.59,4.446,5.59,9.646c0,2.912-1.456,4.576-4.264,4.576c-2.809,0-4.265-1.664-4.265-4.576
		v-1.118h2.704v1.301c0,1.299,0.572,1.768,1.482,1.768s1.482-0.469,1.482-1.768c0-3.744-5.591-4.447-5.591-9.646
		C146.005,221.973,147.436,220.309,150.218,220.309z"/>
	<path fill="#FFFFFF" d="M162.151,233.438l1.949-12.923h3.979v18.201h-2.704v-13.053l-1.976,13.053h-2.704l-2.133-12.871v12.871
		h-2.496v-18.201h3.979L162.151,233.438z"/>
	<path fill="#FFFFFF" d="M180.169,238.717c-0.156-0.468-0.26-0.754-0.26-2.236v-2.859c0-1.69-0.572-2.314-1.873-2.314h-0.987v7.41
		h-2.86v-18.201h4.316c2.964,0,4.238,1.379,4.238,4.187v1.431c0,1.871-0.599,3.094-1.872,3.691c1.43,0.598,1.897,1.977,1.897,3.875
		v2.808c0,0.884,0.026,1.534,0.312,2.21H180.169z M177.049,223.116v5.591h1.118c1.065,0,1.716-0.469,1.716-1.925v-1.794
		c0-1.3-0.442-1.872-1.456-1.872H177.049z"/>
	<path fill="#FFFFFF" d="M187.501,228.187h3.926v2.601h-3.926v5.33h4.939v2.6h-7.8v-18.201h7.8v2.601h-4.939V228.187z"/>
	<path fill="#FFFFFF" d="M202.686,225.014v2.367c0,2.912-1.404,4.498-4.265,4.498h-1.352v6.838h-2.86v-18.201h4.212
		C201.281,220.516,202.686,222.102,202.686,225.014z M197.069,223.116v6.162h1.352c0.91,0,1.404-0.416,1.404-1.716v-2.73
		c0-1.3-0.494-1.716-1.404-1.716H197.069z"/>
	<path fill="#FFFFFF" d="M212.929,238.717h-2.886l-0.494-3.303h-3.51l-0.494,3.303h-2.626l2.912-18.201h4.186L212.929,238.717z
		 M206.403,232.944h2.756l-1.378-9.204L206.403,232.944z"/>
	<path fill="#FFFFFF" d="M214.255,220.516h2.86v18.201h-2.86V220.516z"/>
	<path fill="#FFFFFF" d="M225.175,238.717c-0.156-0.468-0.26-0.754-0.26-2.236v-2.859c0-1.69-0.572-2.314-1.873-2.314h-0.987v7.41
		h-2.86v-18.201h4.316c2.964,0,4.238,1.379,4.238,4.187v1.431c0,1.871-0.599,3.094-1.872,3.691c1.43,0.598,1.897,1.977,1.897,3.875
		v2.808c0,0.884,0.026,1.534,0.312,2.21H225.175z M222.055,223.116v5.591h1.118c1.065,0,1.716-0.469,1.716-1.925v-1.794
		c0-1.3-0.442-1.872-1.456-1.872H222.055z"/>
	<path fill="#FFFFFF" d="M91.562,263.131v2.418c0,2.912-1.456,4.576-4.264,4.576c-2.809,0-4.264-1.664-4.264-4.576v-9.465
		c0-2.912,1.455-4.576,4.264-4.576c2.808,0,4.264,1.664,4.264,4.576v1.768h-2.704v-1.949c0-1.301-0.571-1.795-1.481-1.795
		s-1.482,0.494-1.482,1.795v9.828c0,1.3,0.572,1.768,1.482,1.768s1.481-0.468,1.481-1.768v-2.6H91.562z"/>
	<path fill="#FFFFFF" d="M102.562,269.916h-2.887l-0.494-3.302h-3.51l-0.494,3.302h-2.626l2.912-18.2h4.187L102.562,269.916z
		 M96.035,264.145h2.756l-1.378-9.205L96.035,264.145z"/>
	<path fill="#FFFFFF" d="M109.867,269.916c-0.156-0.468-0.261-0.754-0.261-2.235v-2.86c0-1.689-0.571-2.314-1.871-2.314h-0.988v7.41
		h-2.86v-18.2h4.316c2.964,0,4.238,1.378,4.238,4.187v1.43c0,1.872-0.599,3.094-1.872,3.692c1.43,0.598,1.897,1.976,1.897,3.874
		v2.809c0,0.883,0.026,1.533,0.312,2.209H109.867z M106.747,254.316v5.59h1.118c1.065,0,1.716-0.469,1.716-1.924v-1.795
		c0-1.3-0.442-1.871-1.456-1.871H106.747z"/>
	<path fill="#FFFFFF" d="M114.339,251.716h4.524c2.86,0,4.264,1.586,4.264,4.498v9.204c0,2.912-1.403,4.498-4.264,4.498h-4.524
		V251.716z M117.199,254.316v13h1.612c0.909,0,1.455-0.468,1.455-1.768v-9.465c0-1.3-0.546-1.768-1.455-1.768H117.199z"/>
	<path fill="#FFFFFF" d="M124.946,251.716h2.86v18.2h-2.86V251.716z"/>
	<path fill="#FFFFFF" d="M139.142,269.916h-2.886l-0.494-3.302h-3.51l-0.494,3.302h-2.626l2.912-18.2h4.186L139.142,269.916z
		 M132.616,264.145h2.756l-1.378-9.205L132.616,264.145z"/>
	<path fill="#FFFFFF" d="M148.736,263.131v2.418c0,2.912-1.456,4.576-4.264,4.576c-2.809,0-4.265-1.664-4.265-4.576v-9.465
		c0-2.912,1.456-4.576,4.265-4.576c2.808,0,4.264,1.664,4.264,4.576v1.768h-2.704v-1.949c0-1.301-0.571-1.795-1.481-1.795
		s-1.482,0.494-1.482,1.795v9.828c0,1.3,0.572,1.768,1.482,1.768s1.481-0.468,1.481-1.768v-2.6H148.736z"/>
	<path fill="#FFFFFF" d="M163.765,269.916h-2.886l-0.494-3.302h-3.51l-0.494,3.302h-2.626l2.912-18.2h4.186L163.765,269.916z
		 M157.239,264.145h2.756l-1.378-9.205L157.239,264.145z"/>
	<path fill="#FFFFFF" d="M173.646,255.902v0.649c0,1.872-0.572,3.068-1.847,3.667c1.534,0.598,2.132,1.976,2.132,3.899v1.482
		c0,2.808-1.481,4.315-4.342,4.315h-4.498v-18.2h4.316C172.371,251.716,173.646,253.094,173.646,255.902z M167.951,254.316v4.81
		h1.118c1.065,0,1.716-0.468,1.716-1.924v-1.015c0-1.3-0.442-1.871-1.456-1.871H167.951z M167.951,261.727v5.59h1.638
		c0.962,0,1.482-0.441,1.482-1.794v-1.586c0-1.69-0.546-2.21-1.847-2.21H167.951z"/>
	<path fill="#FFFFFF" d="M175.646,251.716h2.86v15.601h4.706v2.6h-7.566V251.716z"/>
	<path fill="#FFFFFF" d="M193.716,269.916h-2.886l-0.494-3.302h-3.51l-0.494,3.302h-2.626l2.912-18.2h4.186L193.716,269.916z
		 M187.19,264.145h2.756l-1.378-9.205L187.19,264.145z"/>
	<path fill="#FFFFFF" d="M193.222,251.716h8.84v2.601h-2.989v15.6h-2.86v-15.6h-2.99V251.716z"/>
	<path fill="#FFFFFF" d="M203.31,251.716h2.86v18.2h-2.86V251.716z"/>
	<path fill="#FFFFFF" d="M208.015,256.084c0-2.912,1.534-4.576,4.343-4.576c2.808,0,4.342,1.664,4.342,4.576v9.465
		c0,2.912-1.534,4.576-4.342,4.576c-2.809,0-4.343-1.664-4.343-4.576V256.084z M210.875,265.73c0,1.3,0.572,1.794,1.482,1.794
		s1.481-0.494,1.481-1.794v-9.828c0-1.301-0.571-1.795-1.481-1.795s-1.482,0.494-1.482,1.795V265.73z"/>
	<path fill="#FFFFFF" d="M221.093,256.734v13.182h-2.574v-18.2h3.589l2.938,10.895v-10.895h2.548v18.2h-2.938L221.093,256.734z"/>
</g>
<g>
	<rect x="-28.66" y="27.53" fill="none" width="257.265" height="42.735"/>
	<path fill="#2E3192" d="M37.448,45.092v3.72c0,4.479-2.239,7.038-6.559,7.038s-6.56-2.559-6.56-7.038V34.254
		c0-4.479,2.24-7.039,6.56-7.039s6.559,2.56,6.559,7.039v2.72h-4.159v-2.999c0-2-0.88-2.76-2.279-2.76c-1.4,0-2.279,0.76-2.279,2.76
		v15.117c0,1.999,0.879,2.719,2.279,2.719c1.399,0,2.279-0.72,2.279-2.719v-4H37.448z"/>
	<path fill="#2E3192" d="M54.367,55.53h-4.439l-0.76-5.079H43.77l-0.76,5.079h-4.039l4.479-27.995h6.439L54.367,55.53z
		 M44.329,46.652h4.239l-2.119-14.158L44.329,46.652z"/>
	<path fill="#2E3192" d="M65.608,55.53c-0.24-0.72-0.399-1.159-0.399-3.439v-4.399c0-2.6-0.881-3.559-2.881-3.559h-1.52V55.53H56.41
		V27.535h6.639c4.559,0,6.519,2.119,6.519,6.439v2.199c0,2.879-0.919,4.759-2.88,5.679c2.2,0.92,2.92,3.04,2.92,5.959v4.319
		c0,1.359,0.04,2.359,0.48,3.399H65.608z M60.809,31.534v8.599h1.721c1.639,0,2.639-0.72,2.639-2.959v-2.76
		c0-2-0.68-2.88-2.239-2.88H60.809z"/>
	<path fill="#2E3192" d="M72.489,27.535h6.959c4.399,0,6.56,2.439,6.56,6.918v14.158c0,4.479-2.16,6.919-6.56,6.919h-6.959V27.535z
		 M76.889,31.534v19.997h2.479c1.399,0,2.239-0.721,2.239-2.72V34.254c0-2-0.84-2.72-2.239-2.72H76.889z"/>
	<path fill="#2E3192" d="M88.809,27.535h4.4V55.53h-4.4V27.535z"/>
	<path fill="#2E3192" d="M96.049,34.254c0-4.479,2.359-7.039,6.68-7.039c4.318,0,6.678,2.56,6.678,7.039v14.558
		c0,4.479-2.359,7.038-6.678,7.038c-4.32,0-6.68-2.559-6.68-7.038V34.254z M100.447,49.092c0,1.999,0.881,2.76,2.281,2.76
		c1.398,0,2.279-0.761,2.279-2.76V33.975c0-2-0.881-2.76-2.279-2.76c-1.4,0-2.281,0.76-2.281,2.76V49.092z"/>
	<path fill="#2E3192" d="M110.969,27.535h13.598v3.999h-4.6V55.53h-4.398V31.534h-4.6V27.535z"/>
	<path fill="#2E3192" d="M130.887,55.53h-4.398V27.535h4.398v11.998h5V27.535h4.479V55.53h-4.479V43.532h-5V55.53z"/>
	<path fill="#2E3192" d="M143.207,34.254c0-4.479,2.359-7.039,6.68-7.039c4.318,0,6.678,2.56,6.678,7.039v14.558
		c0,4.479-2.359,7.038-6.678,7.038c-4.32,0-6.68-2.559-6.68-7.038V34.254z M147.605,49.092c0,1.999,0.881,2.76,2.281,2.76
		c1.398,0,2.279-0.761,2.279-2.76V33.975c0-2-0.881-2.76-2.279-2.76c-1.4,0-2.281,0.76-2.281,2.76V49.092z"/>
	<path fill="#2E3192" d="M168.605,55.53c-0.24-0.72-0.4-1.159-0.4-3.439v-4.399c0-2.6-0.879-3.559-2.879-3.559h-1.52V55.53h-4.4
		V27.535h6.639c4.561,0,6.52,2.119,6.52,6.439v2.199c0,2.879-0.92,4.759-2.879,5.679c2.199,0.92,2.92,3.04,2.92,5.959v4.319
		c0,1.359,0.039,2.359,0.479,3.399H168.605z M163.807,31.534v8.599h1.719c1.641,0,2.641-0.72,2.641-2.959v-2.76
		c0-2-0.68-2.88-2.24-2.88H163.807z"/>
	<path fill="#2E3192" d="M189.725,55.53h-4.439l-0.76-5.079h-5.398l-0.76,5.079h-4.041l4.48-27.995h6.439L189.725,55.53z
		 M179.686,46.652h4.24l-2.119-14.158L179.686,46.652z"/>
	<path fill="#2E3192" d="M204.484,45.092v3.72c0,4.479-2.238,7.038-6.559,7.038c-4.318,0-6.559-2.559-6.559-7.038V34.254
		c0-4.479,2.24-7.039,6.559-7.039c4.32,0,6.559,2.56,6.559,7.039v2.72h-4.158v-2.999c0-2-0.881-2.76-2.279-2.76
		c-1.4,0-2.281,0.76-2.281,2.76v15.117c0,1.999,0.881,2.719,2.281,2.719c1.398,0,2.279-0.72,2.279-2.719v-4H204.484z"/>
	<path fill="#2E3192" d="M207.166,27.535h4.4V55.53h-4.4V27.535z"/>
	<path fill="#2E3192" d="M227.523,45.092v3.72c0,4.479-2.238,7.038-6.559,7.038c-4.318,0-6.559-2.559-6.559-7.038V34.254
		c0-4.479,2.24-7.039,6.559-7.039c4.32,0,6.559,2.56,6.559,7.039v2.72h-4.158v-2.999c0-2-0.881-2.76-2.279-2.76
		c-1.4,0-2.281,0.76-2.281,2.76v15.117c0,1.999,0.881,2.719,2.281,2.719c1.398,0,2.279-0.72,2.279-2.719v-4H227.523z"/>
</g>
<g>
	<rect x="-250.043" y="19.045" fill="none" width="257.266" height="42.734"/>
</g>
</svg>
