<?xml version="1.0" encoding="utf-8"?>
<!-- Generator: Adobe Illustrator 16.0.4, SVG Export Plug-In . SVG Version: 6.00 Build 0)  -->
<!DOCTYPE svg PUBLIC "-//W3C//DTD SVG 1.1//EN" "http://www.w3.org/Graphics/SVG/1.1/DTD/svg11.dtd">
<svg version="1.1" id="Layer_1" xmlns="http://www.w3.org/2000/svg" xmlns:xlink="http://www.w3.org/1999/xlink" x="0px" y="0px"
	 width="298.078px" height="294.531px" viewBox="0 0 298.078 294.531" enable-background="new 0 0 298.078 294.531"
	 xml:space="preserve">
<g>
	<g>
		<path fill="#686868" d="M233.21,0c14.562,0,26.359,14.529,26.359,32.475v85.054l38.508,14.336l-38.508,62.984v67.207
			c0,17.941-11.797,32.475-26.359,32.475H26.347c-14.548,0-26.345-14.533-26.345-32.475V32.475C0.001,14.529,11.798,0,26.347,0
			H233.21z"/>
	</g>
</g>
<rect x="-7" y="72.717" fill="none" width="235.605" height="261.539"/>
<text transform="matrix(1 0 0 1 187.292 90.916)"><tspan x="0" y="0" fill="#FFFFFF" font-family="'BebasNeue'" font-size="26">cabg</tspan><tspan x="-173.988" y="31.201" fill="#FFFFFF" font-family="'BebasNeue'" font-size="26">CAROTID ENDARTERECTOMY</tspan><tspan x="-164.499" y="62.4" fill="#FFFFFF" font-family="'BebasNeue'" font-size="26">CAROTID ARTERY SURGERY</tspan><tspan x="-170.503" y="93.601" fill="#FFFFFF" font-family="'BebasNeue'" font-size="26">CARDIAC CATHETERIZATION</tspan><tspan x="-109.821" y="116.601" fill="#FFFFFF" font-family="'BebasNeue'" font-size="26">ABDOMINAL AORTIC </tspan><tspan x="-104.647" y="147.801" fill="#FFFFFF" font-family="'BebasNeue'" font-size="26">ANEURYSM REPAIR</tspan><tspan x="-106.077" y="179" fill="#FFFFFF" font-family="'BebasNeue'" font-size="26">CARDIAC ABLATION</tspan></text>
<rect x="-28.66" y="27.53" fill="none" width="257.265" height="42.735"/>
<text transform="matrix(1 0 0 1 23.0508 55.5303)" fill="#2E3192" font-family="'BebasNeue'" font-size="40">cardiothoracic</text>
<rect x="-250.043" y="19.045" fill="none" width="257.266" height="42.734"/>
<text transform="matrix(1 0 0 1 -250.043 49.1445)" fill="#662D91" font-family="'BebasNeue'" font-size="43">abdominal</text>
</svg>
