<?xml version="1.0" encoding="utf-8"?>
<!-- Generator: Adobe Illustrator 16.0.4, SVG Export Plug-In . SVG Version: 6.00 Build 0)  -->
<!DOCTYPE svg PUBLIC "-//W3C//DTD SVG 1.1//EN" "http://www.w3.org/Graphics/SVG/1.1/DTD/svg11.dtd">
<svg version="1.1" id="Layer_1" xmlns="http://www.w3.org/2000/svg" xmlns:xlink="http://www.w3.org/1999/xlink" x="0px" y="0px"
	 width="298.078px" height="294.531px" viewBox="0 0 298.078 294.531" enable-background="new 0 0 298.078 294.531"
	 xml:space="preserve">
<g>
	<g>
		<path fill="#686868" d="M233.211,0c14.562,0,26.359,14.529,26.359,32.475v85.055l38.508,14.336L259.57,194.85v67.207
			c0,17.941-11.797,32.475-26.359,32.475H26.348c-14.549,0-26.346-14.533-26.346-32.475V32.475C0.002,14.529,11.799,0,26.348,0
			H233.211z"/>
	</g>
</g>
<rect x="-7" y="-237.539" fill="none" width="235.605" height="261.539"/>
<text transform="matrix(1 0 0 1 187.292 -219.3398)"><tspan x="0" y="0" fill="#FFFFFF" font-family="'BebasNeue'" font-size="26">cabg</tspan><tspan x="-173.988" y="31.201" fill="#FFFFFF" font-family="'BebasNeue'" font-size="26">CAROTID ENDARTERECTOMY</tspan><tspan x="-164.499" y="62.4" fill="#FFFFFF" font-family="'BebasNeue'" font-size="26">CAROTID ARTERY SURGERY</tspan><tspan x="-170.503" y="93.601" fill="#FFFFFF" font-family="'BebasNeue'" font-size="26">CARDIAC CATHETERIZATION</tspan><tspan x="-109.821" y="116.601" fill="#FFFFFF" font-family="'BebasNeue'" font-size="26">ABDOMINAL AORTIC </tspan><tspan x="-104.647" y="147.801" fill="#FFFFFF" font-family="'BebasNeue'" font-size="26">ANEURYSM REPAIR</tspan><tspan x="-106.077" y="179" fill="#FFFFFF" font-family="'BebasNeue'" font-size="26">CARDIAC ABLATION</tspan></text>
<rect x="-8" y="44.992" fill="none" width="235.605" height="261.539"/>
<text transform="matrix(1 0 0 1 103.6143 94.3926)"><tspan x="0" y="0" fill="#FFFFFF" font-family="'BebasNeue'" font-size="26">BRONCHOSCOPY</tspan><tspan x="-80.885" y="31.199" fill="#FFFFFF" font-family="'BebasNeue'" font-size="26">OPHTHALMIC PROCEDURES</tspan><tspan x="-6.474" y="62.399" fill="#FFFFFF" font-family="'BebasNeue'" font-size="26">THYROIDECTOMY</tspan><tspan x="2.157" y="93.6" fill="#FFFFFF" font-family="'BebasNeue'" font-size="26">LARYNGOSCOPY</tspan><tspan x="-38.791" y="124.799" fill="#FFFFFF" font-family="'BebasNeue'" font-size="26">TONSILLECTOMY AND </tspan><tspan x="-7.228" y="147.799" fill="#FFFFFF" font-family="'BebasNeue'" font-size="26">ADENOIDECTOMY</tspan><tspan x="32.265" y="179" fill="#FFFFFF" font-family="'BebasNeue'" font-size="26">ENDOSCOPY</tspan></text>
<rect x="-29.659" y="26.624" fill="none" width="257.265" height="42.735"/>
<text transform="matrix(1 0 0 1 70.4502 54.624)" fill="#DFE260" font-family="'BebasNeue'" font-size="40">Head &amp; Neck</text>
<rect x="-250.043" y="55.31" fill="none" width="257.266" height="82.439"/>
<text transform="matrix(1 0 0 1 -250.043 80.5098)" fill="#ED1C24" font-family="'BebasNeue'" font-size="36">High Risk patients</text>
</svg>
