<?xml version="1.0" encoding="utf-8"?>
<!-- Generator: Adobe Illustrator 16.0.4, SVG Export Plug-In . SVG Version: 6.00 Build 0)  -->
<!DOCTYPE svg PUBLIC "-//W3C//DTD SVG 1.1//EN" "http://www.w3.org/Graphics/SVG/1.1/DTD/svg11.dtd">
<svg version="1.1" id="Layer_1" xmlns="http://www.w3.org/2000/svg" xmlns:xlink="http://www.w3.org/1999/xlink" x="0px" y="0px"
	 width="298.078px" height="294.531px" viewBox="0 0 298.078 294.531" enable-background="new 0 0 298.078 294.531"
	 xml:space="preserve">
<g>
	<g>
		<path fill="#686868" d="M233.211,0c14.562,0,26.359,14.529,26.359,32.475v85.055l38.508,14.336L259.57,194.85v67.207
			c0,17.941-11.797,32.475-26.359,32.475H26.348c-14.549,0-26.346-14.533-26.346-32.475V32.475C0.002,14.529,11.799,0,26.348,0
			H233.211z"/>
	</g>
</g>
<g>
	<rect x="-7" y="-237.539" fill="none" width="235.605" height="261.539"/>
</g>
<g>
	<rect x="-8" y="44.992" fill="none" width="235.605" height="261.539"/>
	<path fill="#FFFFFF" d="M113.261,80.377v0.65c0,1.872-0.572,3.068-1.847,3.666c1.534,0.599,2.132,1.977,2.132,3.9v1.482
		c0,2.808-1.481,4.316-4.342,4.316h-4.498V76.191h4.316C111.986,76.191,113.261,77.569,113.261,80.377z M107.566,78.791v4.811h1.118
		c1.065,0,1.716-0.468,1.716-1.924v-1.014c0-1.301-0.442-1.873-1.456-1.873H107.566z M107.566,86.201v5.591h1.638
		c0.962,0,1.482-0.442,1.482-1.794v-1.586c0-1.69-0.546-2.211-1.847-2.211H107.566z"/>
	<path fill="#FFFFFF" d="M121.242,94.393c-0.156-0.469-0.261-0.754-0.261-2.236v-2.86c0-1.69-0.571-2.313-1.871-2.313h-0.988v7.41
		h-2.86V76.191h4.316c2.964,0,4.238,1.378,4.238,4.186v1.431c0,1.872-0.599,3.095-1.872,3.692c1.43,0.598,1.897,1.976,1.897,3.874
		v2.808c0,0.885,0.026,1.534,0.312,2.211H121.242z M118.122,78.791v5.591h1.118c1.065,0,1.716-0.468,1.716-1.925v-1.793
		c0-1.301-0.442-1.873-1.456-1.873H118.122z"/>
	<path fill="#FFFFFF" d="M125.479,80.56c0-2.912,1.534-4.576,4.343-4.576c2.808,0,4.342,1.664,4.342,4.576v9.464
		c0,2.912-1.534,4.576-4.342,4.576c-2.809,0-4.343-1.664-4.343-4.576V80.56z M128.34,90.206c0,1.3,0.572,1.794,1.482,1.794
		s1.481-0.494,1.481-1.794v-9.829c0-1.299-0.571-1.793-1.481-1.793s-1.482,0.494-1.482,1.793V90.206z"/>
	<path fill="#FFFFFF" d="M138.558,81.209v13.184h-2.574V76.191h3.589l2.938,10.895V76.191h2.548v18.201h-2.938L138.558,81.209z"/>
	<path fill="#FFFFFF" d="M155.405,87.605v2.418c0,2.912-1.456,4.576-4.264,4.576c-2.809,0-4.265-1.664-4.265-4.576V80.56
		c0-2.912,1.456-4.576,4.265-4.576c2.808,0,4.264,1.664,4.264,4.576v1.769h-2.704v-1.951c0-1.299-0.571-1.793-1.481-1.793
		s-1.482,0.494-1.482,1.793v9.829c0,1.3,0.572,1.769,1.482,1.769s1.481-0.469,1.481-1.769v-2.601H155.405z"/>
	<path fill="#FFFFFF" d="M160.007,94.393h-2.86V76.191h2.86v7.801h3.25v-7.801h2.912v18.201h-2.912v-7.801h-3.25V94.393z"/>
	<path fill="#FFFFFF" d="M168.014,80.56c0-2.912,1.534-4.576,4.343-4.576c2.808,0,4.342,1.664,4.342,4.576v9.464
		c0,2.912-1.534,4.576-4.342,4.576c-2.809,0-4.343-1.664-4.343-4.576V80.56z M170.874,90.206c0,1.3,0.572,1.794,1.482,1.794
		s1.481-0.494,1.481-1.794v-9.829c0-1.299-0.571-1.793-1.481-1.793s-1.482,0.494-1.482,1.793V90.206z"/>
	<path fill="#FFFFFF" d="M182.392,75.983c2.782,0,4.213,1.664,4.213,4.576v0.572H183.9v-0.755c0-1.299-0.521-1.793-1.431-1.793
		s-1.43,0.494-1.43,1.793c0,3.744,5.59,4.447,5.59,9.646c0,2.912-1.456,4.576-4.264,4.576c-2.809,0-4.265-1.664-4.265-4.576v-1.117
		h2.704v1.3c0,1.3,0.572,1.769,1.482,1.769s1.482-0.469,1.482-1.769c0-3.744-5.591-4.446-5.591-9.646
		C178.18,77.647,179.61,75.983,182.392,75.983z"/>
	<path fill="#FFFFFF" d="M196.562,87.605v2.418c0,2.912-1.456,4.576-4.264,4.576c-2.809,0-4.265-1.664-4.265-4.576V80.56
		c0-2.912,1.456-4.576,4.265-4.576c2.808,0,4.264,1.664,4.264,4.576v1.769h-2.704v-1.951c0-1.299-0.571-1.793-1.481-1.793
		s-1.482,0.494-1.482,1.793v9.829c0,1.3,0.572,1.769,1.482,1.769s1.481-0.469,1.481-1.769v-2.601H196.562z"/>
	<path fill="#FFFFFF" d="M198.068,80.56c0-2.912,1.534-4.576,4.343-4.576c2.808,0,4.342,1.664,4.342,4.576v9.464
		c0,2.912-1.534,4.576-4.342,4.576c-2.809,0-4.343-1.664-4.343-4.576V80.56z M200.929,90.206c0,1.3,0.572,1.794,1.482,1.794
		s1.481-0.494,1.481-1.794v-9.829c0-1.299-0.571-1.793-1.481-1.793s-1.482,0.494-1.482,1.793V90.206z"/>
	<path fill="#FFFFFF" d="M217.075,80.689v2.366c0,2.912-1.404,4.498-4.265,4.498h-1.352v6.839h-2.86V76.191h4.212
		C215.671,76.191,217.075,77.777,217.075,80.689z M211.459,78.791v6.162h1.352c0.91,0,1.404-0.416,1.404-1.715v-2.73
		c0-1.301-0.494-1.717-1.404-1.717H211.459z"/>
	<path fill="#FFFFFF" d="M221.026,88.359l-3.613-12.168h2.989l2.185,8.295l2.184-8.295h2.73l-3.614,12.168v6.033h-2.86V88.359z"/>
	<path fill="#FFFFFF" d="M23.535,111.76c0-2.912,1.534-4.576,4.343-4.576c2.808,0,4.342,1.664,4.342,4.576v9.465
		c0,2.912-1.534,4.576-4.342,4.576c-2.809,0-4.343-1.664-4.343-4.576V111.76z M26.396,121.406c0,1.3,0.572,1.794,1.482,1.794
		c0.909,0,1.481-0.494,1.481-1.794v-9.828c0-1.301-0.572-1.795-1.481-1.795c-0.91,0-1.482,0.494-1.482,1.795V121.406z"/>
	<path fill="#FFFFFF" d="M42.542,111.89v2.366c0,2.912-1.404,4.498-4.265,4.498h-1.352v6.838h-2.86v-18.2h4.212
		C41.138,107.392,42.542,108.978,42.542,111.89z M36.926,109.992v6.162h1.352c0.91,0,1.404-0.416,1.404-1.717v-2.729
		c0-1.3-0.494-1.716-1.404-1.716H36.926z"/>
	<path fill="#FFFFFF" d="M46.728,125.592h-2.86v-18.2h2.86v7.8h3.25v-7.8h2.912v18.2h-2.912v-7.8h-3.25V125.592z"/>
	<path fill="#FFFFFF" d="M54.137,107.392h8.84v2.601h-2.99v15.6h-2.859v-15.6h-2.99V107.392z"/>
	<path fill="#FFFFFF" d="M67.085,125.592h-2.86v-18.2h2.86v7.8h3.25v-7.8h2.912v18.2h-2.912v-7.8h-3.25V125.592z"/>
	<path fill="#FFFFFF" d="M84.582,125.592h-2.886l-0.494-3.302h-3.51l-0.494,3.302h-2.626l2.912-18.2h4.186L84.582,125.592z
		 M78.057,119.82h2.756l-1.378-9.205L78.057,119.82z"/>
	<path fill="#FFFFFF" d="M85.908,107.392h2.86v15.601h4.706v2.6h-7.566V107.392z"/>
	<path fill="#FFFFFF" d="M100.78,120.314l1.949-12.923h3.979v18.2h-2.704V112.54l-1.976,13.052h-2.704l-2.133-12.87v12.87h-2.496
		v-18.2h3.979L100.78,120.314z"/>
	<path fill="#FFFFFF" d="M108.787,107.392h2.86v18.2h-2.86V107.392z"/>
	<path fill="#FFFFFF" d="M122.021,118.807v2.418c0,2.912-1.456,4.576-4.264,4.576c-2.809,0-4.265-1.664-4.265-4.576v-9.465
		c0-2.912,1.456-4.576,4.265-4.576c2.808,0,4.264,1.664,4.264,4.576v1.768h-2.704v-1.949c0-1.301-0.571-1.795-1.481-1.795
		s-1.482,0.494-1.482,1.795v9.828c0,1.3,0.572,1.768,1.482,1.768s1.481-0.468,1.481-1.768v-2.6H122.021z"/>
	<path fill="#FFFFFF" d="M136.269,111.89v2.366c0,2.912-1.404,4.498-4.265,4.498h-1.352v6.838h-2.86v-18.2h4.212
		C134.864,107.392,136.269,108.978,136.269,111.89z M130.652,109.992v6.162h1.352c0.91,0,1.404-0.416,1.404-1.717v-2.729
		c0-1.3-0.494-1.716-1.404-1.716H130.652z"/>
	<path fill="#FFFFFF" d="M143.574,125.592c-0.156-0.468-0.261-0.754-0.261-2.235v-2.86c0-1.689-0.571-2.314-1.871-2.314h-0.988v7.41
		h-2.86v-18.2h4.316c2.964,0,4.238,1.378,4.238,4.187v1.43c0,1.872-0.599,3.094-1.872,3.692c1.43,0.598,1.897,1.976,1.897,3.874
		v2.809c0,0.883,0.026,1.533,0.312,2.209H143.574z M140.454,109.992v5.59h1.118c1.065,0,1.716-0.469,1.716-1.924v-1.795
		c0-1.3-0.442-1.871-1.456-1.871H140.454z"/>
	<path fill="#FFFFFF" d="M147.812,111.76c0-2.912,1.534-4.576,4.343-4.576c2.808,0,4.342,1.664,4.342,4.576v9.465
		c0,2.912-1.534,4.576-4.342,4.576c-2.809,0-4.343-1.664-4.343-4.576V111.76z M150.672,121.406c0,1.3,0.572,1.794,1.482,1.794
		s1.481-0.494,1.481-1.794v-9.828c0-1.301-0.571-1.795-1.481-1.795s-1.482,0.494-1.482,1.795V121.406z"/>
	<path fill="#FFFFFF" d="M166.636,118.807v2.418c0,2.912-1.456,4.576-4.264,4.576c-2.809,0-4.265-1.664-4.265-4.576v-9.465
		c0-2.912,1.456-4.576,4.265-4.576c2.808,0,4.264,1.664,4.264,4.576v1.768h-2.704v-1.949c0-1.301-0.571-1.795-1.481-1.795
		s-1.482,0.494-1.482,1.795v9.828c0,1.3,0.572,1.768,1.482,1.768s1.481-0.468,1.481-1.768v-2.6H166.636z"/>
	<path fill="#FFFFFF" d="M171.237,115.062h3.926v2.6h-3.926v5.33h4.939v2.6h-7.8v-18.2h7.8v2.601h-4.939V115.062z"/>
	<path fill="#FFFFFF" d="M177.945,107.392h4.524c2.859,0,4.264,1.586,4.264,4.498v9.204c0,2.912-1.404,4.498-4.264,4.498h-4.524
		V107.392z M180.806,109.992v13h1.611c0.91,0,1.457-0.468,1.457-1.768v-9.465c0-1.3-0.547-1.768-1.457-1.768H180.806z"/>
	<path fill="#FFFFFF" d="M191.283,107.392v14.04c0,1.301,0.571,1.769,1.481,1.769s1.482-0.468,1.482-1.769v-14.04h2.704v13.858
		c0,2.912-1.456,4.576-4.265,4.576c-2.808,0-4.264-1.664-4.264-4.576v-13.858H191.283z"/>
	<path fill="#FFFFFF" d="M204.881,125.592c-0.156-0.468-0.261-0.754-0.261-2.235v-2.86c0-1.689-0.571-2.314-1.871-2.314h-0.988v7.41
		h-2.86v-18.2h4.316c2.964,0,4.238,1.378,4.238,4.187v1.43c0,1.872-0.599,3.094-1.872,3.692c1.43,0.598,1.897,1.976,1.897,3.874
		v2.809c0,0.883,0.026,1.533,0.312,2.209H204.881z M201.761,109.992v5.59h1.118c1.065,0,1.716-0.469,1.716-1.924v-1.795
		c0-1.3-0.442-1.871-1.456-1.871H201.761z"/>
	<path fill="#FFFFFF" d="M212.213,115.062h3.926v2.6h-3.926v5.33h4.94v2.6h-7.801v-18.2h7.801v2.601h-4.94V115.062z"/>
	<path fill="#FFFFFF" d="M222.769,107.184c2.782,0,4.213,1.664,4.213,4.576v0.572h-2.704v-0.754c0-1.301-0.521-1.795-1.431-1.795
		s-1.43,0.494-1.43,1.795c0,3.744,5.59,4.445,5.59,9.646c0,2.912-1.456,4.576-4.264,4.576c-2.809,0-4.265-1.664-4.265-4.576v-1.119
		h2.704v1.301c0,1.3,0.572,1.768,1.482,1.768s1.482-0.468,1.482-1.768c0-3.744-5.591-4.446-5.591-9.646
		C218.557,108.848,219.987,107.184,222.769,107.184z"/>
	<path fill="#FFFFFF" d="M97.349,138.592h8.84v2.6h-2.989v15.601h-2.86v-15.601h-2.99V138.592z"/>
	<path fill="#FFFFFF" d="M110.297,156.792h-2.86v-18.2h2.86v7.8h3.25v-7.8h2.912v18.2h-2.912v-7.8h-3.25V156.792z"/>
	<path fill="#FFFFFF" d="M121.216,150.76l-3.613-12.168h2.989l2.185,8.294l2.184-8.294h2.73l-3.614,12.168v6.032h-2.86V150.76z"/>
	<path fill="#FFFFFF" d="M134.814,156.792c-0.156-0.468-0.261-0.754-0.261-2.236v-2.86c0-1.689-0.571-2.313-1.871-2.313h-0.988v7.41
		h-2.86v-18.2h4.316c2.964,0,4.238,1.377,4.238,4.186v1.43c0,1.873-0.599,3.095-1.872,3.692c1.43,0.599,1.897,1.977,1.897,3.874
		v2.809c0,0.884,0.026,1.534,0.312,2.21H134.814z M131.694,141.191v5.59h1.118c1.065,0,1.716-0.468,1.716-1.924v-1.794
		c0-1.3-0.442-1.872-1.456-1.872H131.694z"/>
	<path fill="#FFFFFF" d="M139.052,142.959c0-2.912,1.534-4.576,4.343-4.576c2.808,0,4.342,1.664,4.342,4.576v9.465
		c0,2.912-1.534,4.576-4.342,4.576c-2.809,0-4.343-1.664-4.343-4.576V142.959z M141.912,152.605c0,1.301,0.572,1.795,1.482,1.795
		s1.481-0.494,1.481-1.795v-9.828c0-1.3-0.571-1.794-1.481-1.794s-1.482,0.494-1.482,1.794V152.605z"/>
	<path fill="#FFFFFF" d="M149.582,138.592h2.86v18.2h-2.86V138.592z"/>
	<path fill="#FFFFFF" d="M154.521,138.592h4.524c2.859,0,4.264,1.586,4.264,4.498v9.204c0,2.912-1.404,4.498-4.264,4.498h-4.524
		V138.592z M157.382,141.191v13h1.611c0.91,0,1.457-0.468,1.457-1.768v-9.465c0-1.3-0.547-1.768-1.457-1.768H157.382z"/>
	<path fill="#FFFFFF" d="M167.989,146.262h3.926v2.6h-3.926v5.33h4.939v2.601h-7.8v-18.2h7.8v2.6h-4.939V146.262z"/>
	<path fill="#FFFFFF" d="M182.991,150.006v2.418c0,2.912-1.456,4.576-4.264,4.576c-2.809,0-4.265-1.664-4.265-4.576v-9.465
		c0-2.912,1.456-4.576,4.265-4.576c2.808,0,4.264,1.664,4.264,4.576v1.769h-2.704v-1.95c0-1.3-0.571-1.794-1.481-1.794
		s-1.482,0.494-1.482,1.794v9.828c0,1.301,0.572,1.769,1.482,1.769s1.481-0.468,1.481-1.769v-2.6H182.991z"/>
	<path fill="#FFFFFF" d="M183.9,138.592h8.841v2.6h-2.99v15.601h-2.86v-15.601h-2.99V138.592z"/>
	<path fill="#FFFFFF" d="M193.754,142.959c0-2.912,1.534-4.576,4.343-4.576c2.808,0,4.342,1.664,4.342,4.576v9.465
		c0,2.912-1.534,4.576-4.342,4.576c-2.809,0-4.343-1.664-4.343-4.576V142.959z M196.614,152.605c0,1.301,0.572,1.795,1.482,1.795
		s1.481-0.494,1.481-1.795v-9.828c0-1.3-0.571-1.794-1.481-1.794s-1.482,0.494-1.482,1.794V152.605z"/>
	<path fill="#FFFFFF" d="M210.343,151.514l1.949-12.922h3.979v18.2h-2.704v-13.053l-1.976,13.053h-2.704l-2.133-12.87v12.87h-2.496
		v-18.2h3.979L210.343,151.514z"/>
	<path fill="#FFFFFF" d="M221.027,150.76l-3.614-12.168h2.99l2.185,8.294l2.184-8.294h2.73l-3.614,12.168v6.032h-2.86V150.76z"/>
	<path fill="#FFFFFF" d="M107.123,169.791h2.86v15.602h4.706v2.6h-7.566V169.791z"/>
	<path fill="#FFFFFF" d="M125.192,187.992h-2.886l-0.494-3.303h-3.51l-0.494,3.303h-2.626l2.912-18.201h4.186L125.192,187.992z
		 M118.667,182.22h2.756l-1.378-9.204L118.667,182.22z"/>
	<path fill="#FFFFFF" d="M132.499,187.992c-0.156-0.468-0.26-0.754-0.26-2.236v-2.859c0-1.69-0.572-2.314-1.873-2.314h-0.987v7.41
		h-2.86v-18.201h4.316c2.964,0,4.238,1.379,4.238,4.187v1.431c0,1.871-0.599,3.094-1.872,3.691c1.43,0.598,1.897,1.977,1.897,3.875
		v2.808c0,0.884,0.026,1.534,0.312,2.21H132.499z M129.379,172.392v5.591h1.118c1.065,0,1.716-0.469,1.716-1.925v-1.794
		c0-1.3-0.442-1.872-1.456-1.872H129.379z"/>
	<path fill="#FFFFFF" d="M139.389,181.96l-3.614-12.169h2.99l2.185,8.295l2.184-8.295h2.73l-3.614,12.169v6.032h-2.86V181.96z"/>
	<path fill="#FFFFFF" d="M149.555,174.81v13.183h-2.574v-18.201h3.589l2.938,10.895v-10.895h2.549v18.201h-2.938L149.555,174.81z"/>
	<path fill="#FFFFFF" d="M162.398,177.852h4.004v5.772c0,2.912-1.456,4.576-4.264,4.576c-2.809,0-4.265-1.664-4.265-4.576v-9.464
		c0-2.912,1.456-4.576,4.265-4.576c2.808,0,4.264,1.664,4.264,4.576v1.768h-2.704v-1.95c0-1.3-0.571-1.794-1.481-1.794
		s-1.482,0.494-1.482,1.794v9.829c0,1.299,0.572,1.768,1.482,1.768s1.481-0.469,1.481-1.768v-3.354h-1.3V177.852z"/>
	<path fill="#FFFFFF" d="M168.014,174.16c0-2.912,1.534-4.576,4.343-4.576c2.808,0,4.342,1.664,4.342,4.576v9.464
		c0,2.912-1.534,4.576-4.342,4.576c-2.809,0-4.343-1.664-4.343-4.576V174.16z M170.874,183.807c0,1.299,0.572,1.793,1.482,1.793
		s1.481-0.494,1.481-1.793v-9.829c0-1.3-0.571-1.794-1.481-1.794s-1.482,0.494-1.482,1.794V183.807z"/>
	<path fill="#FFFFFF" d="M182.392,169.584c2.782,0,4.213,1.664,4.213,4.576v0.571H183.9v-0.754c0-1.3-0.521-1.794-1.431-1.794
		s-1.43,0.494-1.43,1.794c0,3.744,5.59,4.446,5.59,9.646c0,2.912-1.456,4.576-4.264,4.576c-2.809,0-4.265-1.664-4.265-4.576v-1.118
		h2.704v1.301c0,1.299,0.572,1.768,1.482,1.768s1.482-0.469,1.482-1.768c0-3.744-5.591-4.447-5.591-9.646
		C178.18,171.248,179.61,169.584,182.392,169.584z"/>
	<path fill="#FFFFFF" d="M196.562,181.206v2.418c0,2.912-1.456,4.576-4.264,4.576c-2.809,0-4.265-1.664-4.265-4.576v-9.464
		c0-2.912,1.456-4.576,4.265-4.576c2.808,0,4.264,1.664,4.264,4.576v1.768h-2.704v-1.95c0-1.3-0.571-1.794-1.481-1.794
		s-1.482,0.494-1.482,1.794v9.829c0,1.299,0.572,1.768,1.482,1.768s1.481-0.469,1.481-1.768v-2.601H196.562z"/>
	<path fill="#FFFFFF" d="M198.068,174.16c0-2.912,1.534-4.576,4.343-4.576c2.808,0,4.342,1.664,4.342,4.576v9.464
		c0,2.912-1.534,4.576-4.342,4.576c-2.809,0-4.343-1.664-4.343-4.576V174.16z M200.929,183.807c0,1.299,0.572,1.793,1.482,1.793
		s1.481-0.494,1.481-1.793v-9.829c0-1.3-0.571-1.794-1.481-1.794s-1.482,0.494-1.482,1.794V183.807z"/>
	<path fill="#FFFFFF" d="M217.075,174.289v2.367c0,2.912-1.404,4.498-4.265,4.498h-1.352v6.838h-2.86v-18.201h4.212
		C215.671,169.791,217.075,171.377,217.075,174.289z M211.459,172.392v6.162h1.352c0.91,0,1.404-0.416,1.404-1.716v-2.73
		c0-1.3-0.494-1.716-1.404-1.716H211.459z"/>
	<path fill="#FFFFFF" d="M221.026,181.96l-3.613-12.169h2.989l2.185,8.295l2.184-8.295h2.73l-3.614,12.169v6.032h-2.86V181.96z"/>
	<path fill="#FFFFFF" d="M65.031,200.991h8.84v2.601h-2.99v15.6h-2.859v-15.6h-2.99V200.991z"/>
	<path fill="#FFFFFF" d="M74.885,205.359c0-2.912,1.534-4.576,4.343-4.576c2.808,0,4.342,1.664,4.342,4.576v9.465
		c0,2.912-1.534,4.576-4.342,4.576c-2.809,0-4.343-1.664-4.343-4.576V205.359z M77.745,215.006c0,1.3,0.572,1.794,1.482,1.794
		c0.909,0,1.481-0.494,1.481-1.794v-9.828c0-1.301-0.572-1.795-1.481-1.795c-0.91,0-1.482,0.494-1.482,1.795V215.006z"/>
	<path fill="#FFFFFF" d="M87.963,206.01v13.182h-2.574v-18.2h3.589l2.938,10.895v-10.895h2.549v18.2h-2.938L87.963,206.01z"/>
	<path fill="#FFFFFF" d="M100.364,200.783c2.782,0,4.213,1.664,4.213,4.576v0.572h-2.704v-0.754c0-1.301-0.521-1.795-1.431-1.795
		s-1.43,0.494-1.43,1.795c0,3.744,5.59,4.445,5.59,9.646c0,2.912-1.456,4.576-4.264,4.576c-2.809,0-4.265-1.664-4.265-4.576v-1.119
		h2.704v1.301c0,1.3,0.572,1.768,1.482,1.768s1.482-0.468,1.482-1.768c0-3.744-5.591-4.446-5.591-9.646
		C96.152,202.447,97.583,200.783,100.364,200.783z"/>
	<path fill="#FFFFFF" d="M106.24,200.991h2.86v18.2h-2.86V200.991z"/>
	<path fill="#FFFFFF" d="M111.18,200.991h2.86v15.601h4.706v2.6h-7.566V200.991z"/>
	<path fill="#FFFFFF" d="M119.993,200.991h2.86v15.601h4.706v2.6h-7.566V200.991z"/>
	<path fill="#FFFFFF" d="M131.667,208.662h3.926v2.6h-3.926v5.33h4.939v2.6h-7.8v-18.2h7.8v2.601h-4.939V208.662z"/>
	<path fill="#FFFFFF" d="M146.669,212.406v2.418c0,2.912-1.456,4.576-4.264,4.576c-2.809,0-4.265-1.664-4.265-4.576v-9.465
		c0-2.912,1.456-4.576,4.265-4.576c2.808,0,4.264,1.664,4.264,4.576v1.768h-2.704v-1.949c0-1.301-0.571-1.795-1.481-1.795
		s-1.482,0.494-1.482,1.795v9.828c0,1.3,0.572,1.768,1.482,1.768s1.481-0.468,1.481-1.768v-2.6H146.669z"/>
	<path fill="#FFFFFF" d="M147.578,200.991h8.841v2.601h-2.99v15.6h-2.86v-15.6h-2.99V200.991z"/>
	<path fill="#FFFFFF" d="M157.432,205.359c0-2.912,1.534-4.576,4.343-4.576c2.808,0,4.342,1.664,4.342,4.576v9.465
		c0,2.912-1.534,4.576-4.342,4.576c-2.809,0-4.343-1.664-4.343-4.576V205.359z M160.292,215.006c0,1.3,0.572,1.794,1.482,1.794
		s1.481-0.494,1.481-1.794v-9.828c0-1.301-0.571-1.795-1.481-1.795s-1.482,0.494-1.482,1.795V215.006z"/>
	<path fill="#FFFFFF" d="M174.021,213.914l1.949-12.923h3.979v18.2h-2.704V206.14l-1.976,13.052h-2.704l-2.133-12.87v12.87h-2.496
		v-18.2h3.979L174.021,213.914z"/>
	<path fill="#FFFFFF" d="M184.705,213.16l-3.614-12.169h2.99l2.185,8.294l2.184-8.294h2.73l-3.614,12.169v6.031h-2.86V213.16z"/>
	<path fill="#FFFFFF" d="M205.61,219.191h-2.887l-0.494-3.302h-3.51l-0.494,3.302H195.6l2.912-18.2h4.187L205.61,219.191z
		 M199.084,213.42h2.756l-1.378-9.205L199.084,213.42z"/>
	<path fill="#FFFFFF" d="M209.483,206.01v13.182h-2.574v-18.2h3.589l2.938,10.895v-10.895h2.548v18.2h-2.938L209.483,206.01z"/>
	<path fill="#FFFFFF" d="M218.037,200.991h4.524c2.859,0,4.264,1.586,4.264,4.498v9.204c0,2.912-1.404,4.498-4.264,4.498h-4.524
		V200.991z M220.897,203.592v13h1.611c0.91,0,1.457-0.468,1.457-1.768v-9.465c0-1.3-0.547-1.768-1.457-1.768H220.897z"/>
	<path fill="#FFFFFF" d="M106.683,242.191h-2.886l-0.494-3.302h-3.51l-0.494,3.302h-2.626l2.912-18.2h4.186L106.683,242.191z
		 M100.157,236.42h2.756l-1.378-9.205L100.157,236.42z"/>
	<path fill="#FFFFFF" d="M108.009,223.991h4.524c2.86,0,4.264,1.586,4.264,4.498v9.204c0,2.912-1.403,4.498-4.264,4.498h-4.524
		V223.991z M110.869,226.592v13h1.612c0.909,0,1.455-0.468,1.455-1.768v-9.465c0-1.3-0.546-1.768-1.455-1.768H110.869z"/>
	<path fill="#FFFFFF" d="M121.477,231.662h3.926v2.6h-3.926v5.33h4.94v2.6h-7.801v-18.2h7.801v2.601h-4.94V231.662z"/>
	<path fill="#FFFFFF" d="M130.732,229.01v13.182h-2.574v-18.2h3.589l2.938,10.895v-10.895h2.549v18.2h-2.938L130.732,229.01z"/>
	<path fill="#FFFFFF" d="M139.052,228.359c0-2.912,1.534-4.576,4.343-4.576c2.808,0,4.342,1.664,4.342,4.576v9.465
		c0,2.912-1.534,4.576-4.342,4.576c-2.809,0-4.343-1.664-4.343-4.576V228.359z M141.912,238.006c0,1.3,0.572,1.794,1.482,1.794
		s1.481-0.494,1.481-1.794v-9.828c0-1.301-0.571-1.795-1.481-1.795s-1.482,0.494-1.482,1.795V238.006z"/>
	<path fill="#FFFFFF" d="M149.582,223.991h2.86v18.2h-2.86V223.991z"/>
	<path fill="#FFFFFF" d="M154.521,223.991h4.524c2.859,0,4.264,1.586,4.264,4.498v9.204c0,2.912-1.404,4.498-4.264,4.498h-4.524
		V223.991z M157.382,226.592v13h1.611c0.91,0,1.457-0.468,1.457-1.768v-9.465c0-1.3-0.547-1.768-1.457-1.768H157.382z"/>
	<path fill="#FFFFFF" d="M167.989,231.662h3.926v2.6h-3.926v5.33h4.939v2.6h-7.8v-18.2h7.8v2.601h-4.939V231.662z"/>
	<path fill="#FFFFFF" d="M182.991,235.406v2.418c0,2.912-1.456,4.576-4.264,4.576c-2.809,0-4.265-1.664-4.265-4.576v-9.465
		c0-2.912,1.456-4.576,4.265-4.576c2.808,0,4.264,1.664,4.264,4.576v1.768h-2.704v-1.949c0-1.301-0.571-1.795-1.481-1.795
		s-1.482,0.494-1.482,1.795v9.828c0,1.3,0.572,1.768,1.482,1.768s1.481-0.468,1.481-1.768v-2.6H182.991z"/>
	<path fill="#FFFFFF" d="M183.9,223.991h8.841v2.601h-2.99v15.6h-2.86v-15.6h-2.99V223.991z"/>
	<path fill="#FFFFFF" d="M193.754,228.359c0-2.912,1.534-4.576,4.343-4.576c2.808,0,4.342,1.664,4.342,4.576v9.465
		c0,2.912-1.534,4.576-4.342,4.576c-2.809,0-4.343-1.664-4.343-4.576V228.359z M196.614,238.006c0,1.3,0.572,1.794,1.482,1.794
		s1.481-0.494,1.481-1.794v-9.828c0-1.301-0.571-1.795-1.481-1.795s-1.482,0.494-1.482,1.795V238.006z"/>
	<path fill="#FFFFFF" d="M210.343,236.914l1.949-12.923h3.979v18.2h-2.704V229.14l-1.976,13.052h-2.704l-2.133-12.87v12.87h-2.496
		v-18.2h3.979L210.343,236.914z"/>
	<path fill="#FFFFFF" d="M221.027,236.16l-3.614-12.169h2.99l2.185,8.294l2.184-8.294h2.73l-3.614,12.169v6.031h-2.86V236.16z"/>
	<path fill="#FFFFFF" d="M139.831,262.861h3.926v2.601h-3.926v5.33h4.939v2.601h-7.8v-18.201h7.8v2.6h-4.939V262.861z"/>
	<path fill="#FFFFFF" d="M149.087,260.209v13.184h-2.574v-18.201h3.589l2.938,10.895v-10.895h2.548v18.201h-2.938L149.087,260.209z"
		/>
	<path fill="#FFFFFF" d="M157.641,255.191h4.524c2.859,0,4.264,1.586,4.264,4.498v9.205c0,2.912-1.404,4.498-4.264,4.498h-4.524
		V255.191z M160.501,257.791v13.001h1.611c0.91,0,1.457-0.468,1.457-1.769v-9.464c0-1.3-0.547-1.769-1.457-1.769H160.501z"/>
	<path fill="#FFFFFF" d="M168.014,259.56c0-2.912,1.534-4.576,4.343-4.576c2.808,0,4.342,1.664,4.342,4.576v9.464
		c0,2.912-1.534,4.576-4.342,4.576c-2.809,0-4.343-1.664-4.343-4.576V259.56z M170.874,269.206c0,1.3,0.572,1.794,1.482,1.794
		s1.481-0.494,1.481-1.794v-9.829c0-1.299-0.571-1.793-1.481-1.793s-1.482,0.494-1.482,1.793V269.206z"/>
	<path fill="#FFFFFF" d="M182.392,254.983c2.782,0,4.213,1.664,4.213,4.576v0.572H183.9v-0.755c0-1.299-0.521-1.793-1.431-1.793
		s-1.43,0.494-1.43,1.793c0,3.744,5.59,4.447,5.59,9.646c0,2.912-1.456,4.576-4.264,4.576c-2.809,0-4.265-1.664-4.265-4.576v-1.117
		h2.704v1.3c0,1.3,0.572,1.769,1.482,1.769s1.482-0.469,1.482-1.769c0-3.744-5.591-4.446-5.591-9.646
		C178.18,256.647,179.61,254.983,182.392,254.983z"/>
	<path fill="#FFFFFF" d="M196.562,266.605v2.418c0,2.912-1.456,4.576-4.264,4.576c-2.809,0-4.265-1.664-4.265-4.576v-9.464
		c0-2.912,1.456-4.576,4.265-4.576c2.808,0,4.264,1.664,4.264,4.576v1.769h-2.704v-1.951c0-1.299-0.571-1.793-1.481-1.793
		s-1.482,0.494-1.482,1.793v9.829c0,1.3,0.572,1.769,1.482,1.769s1.481-0.469,1.481-1.769v-2.601H196.562z"/>
	<path fill="#FFFFFF" d="M198.068,259.56c0-2.912,1.534-4.576,4.343-4.576c2.808,0,4.342,1.664,4.342,4.576v9.464
		c0,2.912-1.534,4.576-4.342,4.576c-2.809,0-4.343-1.664-4.343-4.576V259.56z M200.929,269.206c0,1.3,0.572,1.794,1.482,1.794
		s1.481-0.494,1.481-1.794v-9.829c0-1.299-0.571-1.793-1.481-1.793s-1.482,0.494-1.482,1.793V269.206z"/>
	<path fill="#FFFFFF" d="M217.075,259.689v2.366c0,2.912-1.404,4.498-4.265,4.498h-1.352v6.839h-2.86v-18.201h4.212
		C215.671,255.191,217.075,256.777,217.075,259.689z M211.459,257.791v6.162h1.352c0.91,0,1.404-0.416,1.404-1.715v-2.73
		c0-1.301-0.494-1.717-1.404-1.717H211.459z"/>
	<path fill="#FFFFFF" d="M221.026,267.359l-3.613-12.168h2.989l2.185,8.295l2.184-8.295h2.73l-3.614,12.168v6.033h-2.86V267.359z"/>
</g>
<g>
	<rect x="-29.659" y="26.624" fill="none" width="257.265" height="42.735"/>
	<path fill="#DFE260" d="M76.449,54.624H72.05V26.629h4.399v11.998h4.999V26.629h4.479v27.995h-4.479V42.626h-4.999V54.624z"/>
	<path fill="#DFE260" d="M93.529,38.427h6.038v3.999h-6.038v8.199h7.599v3.999H89.129V26.629h11.999v3.999h-7.599V38.427z"/>
	<path fill="#DFE260" d="M118.087,54.624h-4.438l-0.76-5.079h-5.399l-0.76,5.079h-4.04l4.479-27.995h6.439L118.087,54.624z
		 M108.049,45.746h4.239l-2.119-14.158L108.049,45.746z"/>
	<path fill="#DFE260" d="M120.13,26.629h6.959c4.399,0,6.559,2.439,6.559,6.918v14.158c0,4.479-2.159,6.919-6.559,6.919h-6.959
		V26.629z M124.529,30.628v19.997h2.479c1.399,0,2.239-0.721,2.239-2.72V33.348c0-2-0.84-2.72-2.239-2.72H124.529z"/>
	<path fill="#DFE260" d="M145.729,39.826c-2.08-0.879-3.04-2.76-3.04-5.759v-0.521c0-4.479,2.16-6.918,6.559-6.918h5.039v3.999
		h-4.959c-1.399,0-2.239,0.72-2.239,2.72v1.72c0,2.239,1,2.96,2.64,2.96h1.92v-3.12h4.398v3.12h1.16v3.999h-1.16v9.198
		c0,1.359,0.04,2.359,0.48,3.399h-4.479c-0.2-0.56-0.32-0.96-0.399-2.2c-0.761,1.641-2.12,2.52-4.08,2.52
		c-3.239,0-4.879-2.279-4.879-6.398v-2.84C142.689,42.866,143.569,40.786,145.729,39.826z M149.368,50.945
		c1.32,0,2.2-0.681,2.28-2.44v-6.479h-1.68c-2,0-2.88,0.96-2.88,3.56v2.6C147.089,50.185,147.969,50.945,149.368,50.945z"/>
	<path fill="#DFE260" d="M169.329,34.348v20.276h-3.96V26.629h5.52l4.519,16.757V26.629h3.92v27.995h-4.52L169.329,34.348z"/>
	<path fill="#DFE260" d="M186.888,38.427h6.039v3.999h-6.039v8.199h7.599v3.999h-11.998V26.629h11.998v3.999h-7.599V38.427z"/>
	<path fill="#DFE260" d="M209.966,44.186v3.72c0,4.479-2.239,7.038-6.559,7.038s-6.559-2.559-6.559-7.038V33.348
		c0-4.479,2.239-7.039,6.559-7.039s6.559,2.56,6.559,7.039v2.72h-4.159v-2.999c0-2-0.88-2.76-2.279-2.76c-1.4,0-2.28,0.76-2.28,2.76
		v15.117c0,1.999,0.88,2.719,2.28,2.719c1.399,0,2.279-0.72,2.279-2.719v-4H209.966z"/>
	<path fill="#DFE260" d="M218.406,43.466l-1.359,2.56v8.599h-4.399V26.629h4.399v12.197l5.759-12.197h4.399l-6.119,12.478
		l6.119,15.518h-4.52L218.406,43.466z"/>
</g>
<g>
	<rect x="-250.043" y="55.31" fill="none" width="257.266" height="82.439"/>
</g>
</svg>
