<?xml version="1.0" encoding="utf-8"?>
<!-- Generator: Adobe Illustrator 16.0.4, SVG Export Plug-In . SVG Version: 6.00 Build 0)  -->
<!DOCTYPE svg PUBLIC "-//W3C//DTD SVG 1.1//EN" "http://www.w3.org/Graphics/SVG/1.1/DTD/svg11.dtd">
<svg version="1.1" id="Layer_1" xmlns="http://www.w3.org/2000/svg" xmlns:xlink="http://www.w3.org/1999/xlink" x="0px" y="0px"
	 width="298.077px" height="294.531px" viewBox="0 0 298.077 294.531" enable-background="new 0 0 298.077 294.531"
	 xml:space="preserve">
<g>
	<g>
		<path fill="#686868" d="M64.869,0C50.307,0,38.51,14.529,38.51,32.474v85.055L0,131.864l38.51,62.984v67.207
			c0,17.941,11.796,32.475,26.358,32.475h206.863c14.549,0,26.346-14.533,26.346-32.475V32.474C298.077,14.529,286.28,0,271.731,0
			H64.869z"/>
	</g>
</g>
<g>
	<rect x="288.417" y="26.624" fill="none" width="257.265" height="42.735"/>
</g>
<g>
	<rect x="68.034" y="104.679" fill="none" width="226.367" height="199.534"/>
	<path fill="#FFFFFF" d="M68.995,109.883c0-3.473,1.83-5.457,5.178-5.457s5.178,1.984,5.178,5.457v11.287
		c0,3.473-1.83,5.457-5.178,5.457s-5.178-1.984-5.178-5.457V109.883z M72.406,121.387c0,1.551,0.682,2.139,1.767,2.139
		s1.767-0.588,1.767-2.139v-11.721c0-1.551-0.682-2.139-1.767-2.139s-1.767,0.588-1.767,2.139V121.387z"/>
	<path fill="#FFFFFF" d="M91.75,109.666v0.775c0,2.232-0.682,3.658-2.201,4.371c1.829,0.714,2.542,2.357,2.542,4.652v1.767
		c0,3.349-1.767,5.147-5.178,5.147H81.55v-21.705h5.147C90.231,104.674,91.75,106.318,91.75,109.666z M84.96,107.775v5.736h1.333
		c1.271,0,2.047-0.559,2.047-2.295v-1.209c0-1.551-0.527-2.232-1.736-2.232H84.96z M84.96,116.611v6.666h1.953
		c1.147,0,1.768-0.527,1.768-2.139v-1.892c0-2.015-0.651-2.636-2.201-2.636H84.96z"/>
	<path fill="#FFFFFF" d="M97.546,113.82h4.682v3.102h-4.682v6.355h5.891v3.102h-9.302v-21.705h9.302v3.102h-5.891V113.82z"/>
	<path fill="#FFFFFF" d="M110.132,104.426c3.317,0,5.023,1.984,5.023,5.457v0.683h-3.225v-0.899c0-1.551-0.62-2.139-1.706-2.139
		c-1.085,0-1.705,0.588-1.705,2.139c0,4.465,6.666,5.303,6.666,11.504c0,3.473-1.736,5.457-5.085,5.457s-5.085-1.984-5.085-5.457
		v-1.334h3.225v1.551c0,1.551,0.683,2.107,1.768,2.107s1.768-0.557,1.768-2.107c0-4.465-6.667-5.303-6.667-11.504
		C105.109,106.41,106.815,104.426,110.132,104.426z"/>
	<path fill="#FFFFFF" d="M120.548,113.82h4.682v3.102h-4.682v6.355h5.891v3.102h-9.302v-21.705h9.302v3.102h-5.891V113.82z"/>
	<path fill="#FFFFFF" d="M143.458,110.039v2.82c0,3.473-1.674,5.365-5.085,5.365h-1.612v8.154h-3.411v-21.705h5.023
		C141.784,104.674,143.458,106.566,143.458,110.039z M136.761,107.775v7.348h1.612c1.085,0,1.674-0.496,1.674-2.047v-3.255
		c0-1.55-0.589-2.046-1.674-2.046H136.761z"/>
	<path fill="#FFFFFF" d="M155.673,126.379h-3.442l-0.589-3.938h-4.186l-0.589,3.938h-3.131l3.473-21.705h4.992L155.673,126.379z
		 M147.89,119.495h3.287l-1.644-10.976L147.89,119.495z"/>
	<path fill="#FFFFFF" d="M155.081,104.674h10.542v3.102h-3.566v18.604h-3.41v-18.604h-3.566V104.674z"/>
	<path fill="#FFFFFF" d="M167.109,104.674h3.411v21.705h-3.411V104.674z"/>
	<path fill="#FFFFFF" d="M176.409,113.82h4.682v3.102h-4.682v6.355h5.891v3.102h-9.302v-21.705h9.302v3.102h-5.891V113.82z"/>
	<path fill="#FFFFFF" d="M187.445,110.658v15.721h-3.069v-21.705h4.278l3.504,12.992v-12.992h3.039v21.705h-3.503L187.445,110.658z"
		/>
	<path fill="#FFFFFF" d="M196.651,104.674h10.542v3.102h-3.565v18.604h-3.411v-18.604h-3.565V104.674z"/>
	<path fill="#FFFFFF" d="M213.268,104.426c3.318,0,5.023,1.984,5.023,5.457v0.683h-3.225v-0.899c0-1.551-0.62-2.139-1.705-2.139
		c-1.085,0-1.706,0.588-1.706,2.139c0,4.465,6.667,5.303,6.667,11.504c0,3.473-1.736,5.457-5.085,5.457s-5.085-1.984-5.085-5.457
		v-1.334h3.225v1.551c0,1.551,0.682,2.107,1.767,2.107s1.767-0.557,1.767-2.107c0-4.465-6.666-5.303-6.666-11.504
		C208.245,106.41,209.95,104.426,213.268,104.426z"/>
	<path fill="#FFFFFF" d="M72.685,151.021h4.682v3.1h-4.682v6.357h5.891v3.1h-9.302v-21.703h9.302v3.1h-5.891V151.021z"/>
	<path fill="#FFFFFF" d="M80.682,141.875h3.411v18.604h5.612v3.1h-9.023V141.875z"/>
	<path fill="#FFFFFF" d="M91.19,141.875h5.395c3.411,0,5.085,1.891,5.085,5.363v10.977c0,3.473-1.674,5.363-5.085,5.363H91.19
		V141.875z M94.601,144.975v15.504h1.922c1.085,0,1.736-0.559,1.736-2.109v-11.285c0-1.551-0.651-2.109-1.736-2.109H94.601z"/>
	<path fill="#FFFFFF" d="M107.249,151.021h4.682v3.1h-4.682v6.357h5.891v3.1h-9.302v-21.703h9.302v3.1h-5.891V151.021z"/>
	<path fill="#FFFFFF" d="M122.377,163.578c-0.186-0.558-0.31-0.898-0.31-2.666v-3.41c0-2.016-0.682-2.76-2.232-2.76h-1.178v8.836
		h-3.411v-21.703h5.147c3.535,0,5.054,1.643,5.054,4.992v1.705c0,2.232-0.713,3.689-2.232,4.402
		c1.705,0.713,2.263,2.356,2.263,4.619v3.35c0,1.055,0.031,1.829,0.372,2.635H122.377z M118.656,144.975v6.666h1.333
		c1.271,0,2.046-0.557,2.046-2.293v-2.141c0-1.55-0.527-2.232-1.736-2.232H118.656z"/>
	<path fill="#FFFFFF" d="M127.708,141.875h3.411v18.604h5.612v3.1h-9.022V141.875z"/>
	<path fill="#FFFFFF" d="M139.488,156.385l-4.31-14.51h3.565l2.604,9.891l2.604-9.891h3.256l-4.31,14.51v7.193h-3.411V156.385z"/>
	<path fill="#FFFFFF" d="M163.483,147.238v2.822c0,3.473-1.674,5.363-5.085,5.363h-1.612v8.154h-3.411v-21.703h5.023
		C161.809,141.875,163.483,143.766,163.483,147.238z M156.786,144.975v7.35h1.612c1.085,0,1.674-0.496,1.674-2.047v-3.256
		c0-1.551-0.589-2.047-1.674-2.047H156.786z"/>
	<path fill="#FFFFFF" d="M175.698,163.578h-3.442l-0.589-3.938h-4.186l-0.589,3.938h-3.131l3.473-21.703h4.992L175.698,163.578z
		 M167.916,156.695h3.287l-1.644-10.977L167.916,156.695z"/>
	<path fill="#FFFFFF" d="M175.106,141.875h10.542v3.1h-3.566v18.604h-3.41v-18.604h-3.566V141.875z"/>
	<path fill="#FFFFFF" d="M187.134,141.875h3.411v21.703h-3.411V141.875z"/>
	<path fill="#FFFFFF" d="M196.435,151.021h4.682v3.1h-4.682v6.357h5.891v3.1h-9.302v-21.703h9.302v3.1h-5.891V151.021z"/>
	<path fill="#FFFFFF" d="M207.47,147.859v15.719h-3.069v-21.703h4.278l3.504,12.99v-12.99h3.039v21.703h-3.503L207.47,147.859z"/>
	<path fill="#FFFFFF" d="M216.676,141.875h10.542v3.1h-3.565v18.604h-3.411v-18.604h-3.565V141.875z"/>
	<path fill="#FFFFFF" d="M233.293,141.627c3.318,0,5.023,1.984,5.023,5.457v0.682h-3.225v-0.898c0-1.551-0.62-2.141-1.705-2.141
		c-1.085,0-1.706,0.59-1.706,2.141c0,4.465,6.667,5.301,6.667,11.502c0,3.473-1.736,5.457-5.085,5.457s-5.085-1.984-5.085-5.457
		v-1.332h3.225v1.549c0,1.551,0.682,2.109,1.767,2.109s1.767-0.559,1.767-2.109c0-4.465-6.666-5.301-6.666-11.502
		C228.27,143.611,229.975,141.627,233.293,141.627z"/>
	<path fill="#FFFFFF" d="M76.405,200.779c-0.186-0.559-0.31-0.9-0.31-2.667v-3.411c0-2.016-0.682-2.76-2.232-2.76h-1.178v8.838
		h-3.411v-21.705h5.147c3.535,0,5.054,1.645,5.054,4.992v1.705c0,2.232-0.713,3.689-2.232,4.403c1.705,0.714,2.263,2.356,2.263,4.62
		v3.348c0,1.055,0.031,1.83,0.372,2.637H76.405z M72.685,182.176v6.666h1.333c1.271,0,2.046-0.559,2.046-2.295v-2.139
		c0-1.551-0.527-2.232-1.736-2.232H72.685z"/>
	<path fill="#FFFFFF" d="M85.146,188.221h4.682v3.102h-4.682v6.355h5.891v3.102h-9.302v-21.705h9.302v3.102h-5.891V188.221z"/>
	<path fill="#FFFFFF" d="M96.182,185.059v15.721h-3.069v-21.705h4.278l3.504,12.992v-12.992h3.039v21.705h-3.503L96.182,185.059z"/>
	<path fill="#FFFFFF" d="M117.418,200.779h-3.441l-0.589-3.938h-4.186l-0.589,3.938h-3.132l3.473-21.705h4.992L117.418,200.779z
		 M109.636,193.896h3.286l-1.643-10.976L109.636,193.896z"/>
	<path fill="#FFFFFF" d="M118.997,179.074h3.411v18.604h5.612v3.102h-9.023V179.074z"/>
	<path fill="#FFFFFF" d="M129.506,179.074h3.411v18.604h5.612v3.102h-9.023V179.074z"/>
	<path fill="#FFFFFF" d="M141.287,193.586l-4.31-14.512h3.566l2.604,9.891l2.604-9.891h3.255l-4.31,14.512v7.193h-3.41V193.586z"/>
	<path fill="#FFFFFF" d="M155.174,179.074h3.411v21.705h-3.411V179.074z"/>
	<path fill="#FFFFFF" d="M168.288,194.484l2.326-15.41h4.744v21.705h-3.225v-15.565l-2.356,15.565h-3.225l-2.542-15.348v15.348
		h-2.977v-21.705h4.744L168.288,194.484z"/>
	<path fill="#FFFFFF" d="M187.942,184.439v2.82c0,3.473-1.674,5.365-5.085,5.365h-1.612v8.154h-3.411v-21.705h5.023
		C186.268,179.074,187.942,180.967,187.942,184.439z M181.245,182.176v7.348h1.612c1.085,0,1.674-0.496,1.674-2.047v-3.255
		c0-1.55-0.589-2.046-1.674-2.046H181.245z"/>
	<path fill="#FFFFFF" d="M200.157,200.779h-3.441l-0.589-3.938h-4.186l-0.589,3.938h-3.132l3.473-21.705h4.992L200.157,200.779z
		 M192.375,193.896h3.286l-1.643-10.976L192.375,193.896z"/>
	<path fill="#FFFFFF" d="M201.735,179.074h3.411v21.705h-3.411V179.074z"/>
	<path fill="#FFFFFF" d="M214.756,200.779c-0.186-0.559-0.31-0.9-0.31-2.667v-3.411c0-2.016-0.682-2.76-2.232-2.76h-1.178v8.838
		h-3.411v-21.705h5.147c3.535,0,5.054,1.645,5.054,4.992v1.705c0,2.232-0.713,3.689-2.232,4.403c1.706,0.714,2.264,2.356,2.264,4.62
		v3.348c0,1.055,0.031,1.83,0.372,2.637H214.756z M211.036,182.176v6.666h1.333c1.271,0,2.047-0.559,2.047-2.295v-2.139
		c0-1.551-0.527-2.232-1.736-2.232H211.036z"/>
	<path fill="#FFFFFF" d="M223.498,188.221h4.682v3.102h-4.682v6.355h5.891v3.102h-9.302v-21.705h9.302v3.102h-5.891V188.221z"/>
	<path fill="#FFFFFF" d="M231.495,179.074h5.395c3.411,0,5.085,1.893,5.085,5.365v10.975c0,3.473-1.674,5.365-5.085,5.365h-5.395
		V179.074z M234.905,182.176v15.502h1.922c1.085,0,1.736-0.558,1.736-2.107v-11.287c0-1.55-0.651-2.107-1.736-2.107H234.905z"/>
	<path fill="#FFFFFF" d="M72.685,237.979h-3.411v-21.704h3.411v9.302h3.875v-9.302h3.473v21.704H76.56v-9.302h-3.875V237.979z"/>
	<path fill="#FFFFFF" d="M85.921,225.422h4.682v3.1h-4.682v6.356h5.891v3.101h-9.302v-21.704h9.302v3.101h-5.891V225.422z"/>
	<path fill="#FFFFFF" d="M104.026,221.639v2.821c0,3.473-1.674,5.364-5.085,5.364h-1.612v8.154h-3.411v-21.704h5.023
		C102.352,216.274,104.026,218.166,104.026,221.639z M97.329,219.375v7.348h1.612c1.085,0,1.674-0.496,1.674-2.045v-3.256
		c0-1.551-0.589-2.047-1.674-2.047H97.329z"/>
	<path fill="#FFFFFF" d="M116.241,237.979h-3.442l-0.589-3.938h-4.186l-0.589,3.938h-3.131l3.473-21.704h4.992L116.241,237.979z
		 M108.458,231.096h3.287l-1.644-10.977L108.458,231.096z"/>
	<path fill="#FFFFFF" d="M115.649,216.274h10.542v3.101h-3.566v18.604h-3.41v-18.604h-3.566V216.274z"/>
	<path fill="#FFFFFF" d="M127.677,216.274h3.411v21.704h-3.411V216.274z"/>
	<path fill="#FFFFFF" d="M143.458,229.887v2.883c0,3.473-1.736,5.457-5.085,5.457s-5.085-1.984-5.085-5.457v-11.286
		c0-3.473,1.736-5.457,5.085-5.457s5.085,1.984,5.085,5.457v2.108h-3.225v-2.326c0-1.549-0.682-2.139-1.767-2.139
		s-1.767,0.59-1.767,2.139v11.721c0,1.551,0.682,2.109,1.767,2.109s1.767-0.559,1.767-2.109v-3.1H143.458z"/>
	<path fill="#FFFFFF" d="M156.57,237.979h-3.442l-0.589-3.938h-4.186l-0.589,3.938h-3.131l3.473-21.704h4.992L156.57,237.979z
		 M148.788,231.096h3.287l-1.644-10.977L148.788,231.096z"/>
	<path fill="#FFFFFF" d="M158.149,216.274h3.411v18.604h5.612v3.101h-9.022V216.274z"/>
	<path fill="#FFFFFF" d="M168.658,216.274h3.411v18.604h5.612v3.101h-9.022V216.274z"/>
	<path fill="#FFFFFF" d="M180.438,230.785l-4.31-14.511h3.565l2.604,9.892l2.604-9.892h3.256l-4.31,14.511v7.193h-3.411V230.785z"/>
	<path fill="#FFFFFF" d="M194.326,216.274h3.411v21.704h-3.411V216.274z"/>
	<path fill="#FFFFFF" d="M207.44,231.684l2.325-15.409h4.744v21.704h-3.225v-15.564l-2.356,15.564h-3.225l-2.543-15.348v15.348
		h-2.977v-21.704h4.744L207.44,231.684z"/>
	<path fill="#FFFFFF" d="M227.094,221.639v2.821c0,3.473-1.674,5.364-5.085,5.364h-1.612v8.154h-3.411v-21.704h5.023
		C225.419,216.274,227.094,218.166,227.094,221.639z M220.396,219.375v7.348h1.612c1.085,0,1.674-0.496,1.674-2.045v-3.256
		c0-1.551-0.589-2.047-1.674-2.047H220.396z"/>
	<path fill="#FFFFFF" d="M239.309,237.979h-3.442l-0.589-3.938h-4.186l-0.589,3.938h-3.131l3.473-21.704h4.992L239.309,237.979z
		 M231.526,231.096h3.287l-1.644-10.977L231.526,231.096z"/>
	<path fill="#FFFFFF" d="M240.887,216.274h3.411v21.704h-3.411V216.274z"/>
	<path fill="#FFFFFF" d="M253.908,237.979c-0.186-0.559-0.31-0.898-0.31-2.666v-3.411c0-2.015-0.682-2.759-2.232-2.759h-1.178v8.836
		h-3.411v-21.704h5.147c3.535,0,5.054,1.644,5.054,4.991v1.706c0,2.232-0.713,3.69-2.232,4.403c1.705,0.713,2.263,2.355,2.263,4.619
		v3.35c0,1.053,0.031,1.828,0.372,2.635H253.908z M250.188,219.375v6.666h1.333c1.271,0,2.046-0.559,2.046-2.295v-2.139
		c0-1.551-0.527-2.232-1.736-2.232H250.188z"/>
	<path fill="#FFFFFF" d="M262.649,225.422h4.682v3.1h-4.682v6.356h5.891v3.101h-9.302v-21.704h9.302v3.101h-5.891V225.422z"/>
	<path fill="#FFFFFF" d="M270.646,216.274h5.395c3.411,0,5.085,1.892,5.085,5.364v10.977c0,3.473-1.674,5.363-5.085,5.363h-5.395
		V216.274z M274.057,219.375v15.503h1.922c1.085,0,1.736-0.558,1.736-2.108v-11.286c0-1.55-0.651-2.108-1.736-2.108H274.057z"/>
</g>
<g>
	<rect x="68.034" y="55.31" fill="none" width="257.266" height="82.439"/>
	<path fill="#ED1C24" d="M73.433,80.51h-3.959V55.312h3.959v10.799h4.5V55.312h4.031V80.51h-4.031V69.711h-4.5V80.51z"/>
	<path fill="#ED1C24" d="M84.845,55.312h3.959V80.51h-3.959V55.312z"/>
	<path fill="#ED1C24" d="M97.624,66.471h5.543v7.991c0,4.032-2.016,6.335-5.903,6.335c-3.887,0-5.903-2.303-5.903-6.335V61.359
		c0-4.031,2.016-6.335,5.903-6.335c3.888,0,5.903,2.304,5.903,6.335v2.447h-3.744v-2.699c0-1.799-0.792-2.483-2.052-2.483
		s-2.052,0.685-2.052,2.483v13.606c0,1.8,0.792,2.448,2.052,2.448s2.052-0.648,2.052-2.448V70.07h-1.8V66.471z"/>
	<path fill="#ED1C24" d="M109.684,80.51h-3.959V55.312h3.959v10.799h4.5V55.312h4.031V80.51h-4.031V69.711h-4.5V80.51z"/>
	<path fill="#ED1C24" d="M134.955,80.51c-0.216-0.648-0.36-1.045-0.36-3.096v-3.96c0-2.34-0.792-3.204-2.592-3.204h-1.368v10.26
		h-3.959V55.312h5.975c4.104,0,5.867,1.908,5.867,5.795v1.98c0,2.592-0.828,4.283-2.592,5.111c1.98,0.828,2.628,2.735,2.628,5.363
		v3.887c0,1.225,0.036,2.124,0.432,3.061H134.955z M130.636,58.912v7.738h1.548c1.476,0,2.375-0.647,2.375-2.663v-2.483
		c0-1.8-0.612-2.592-2.016-2.592H130.636z"/>
	<path fill="#ED1C24" d="M141.148,55.312h3.959V80.51h-3.959V55.312z"/>
	<path fill="#ED1C24" d="M153.314,55.024c3.852,0,5.832,2.304,5.832,6.335v0.792h-3.744v-1.044c0-1.799-0.72-2.483-1.98-2.483
		s-1.979,0.685-1.979,2.483c0,5.184,7.739,6.156,7.739,13.354c0,4.032-2.016,6.335-5.903,6.335c-3.887,0-5.903-2.303-5.903-6.335
		v-1.548h3.743v1.8c0,1.8,0.792,2.448,2.052,2.448s2.052-0.648,2.052-2.448c0-5.183-7.739-6.155-7.739-13.354
		C147.483,57.328,149.463,55.024,153.314,55.024z"/>
	<path fill="#ED1C24" d="M166.634,70.467l-1.224,2.303v7.74h-3.959V55.312h3.959v10.979l5.183-10.979h3.959l-5.507,11.23
		l5.507,13.967h-4.067L166.634,70.467z"/>
	<path fill="#ED1C24" d="M193.669,61.539v3.276c0,4.031-1.944,6.228-5.903,6.228h-1.872v9.467h-3.959V55.312h5.831
		C191.725,55.312,193.669,57.508,193.669,61.539z M185.894,58.912v8.531h1.872c1.26,0,1.944-0.576,1.944-2.376v-3.78
		c0-1.799-0.684-2.375-1.944-2.375H185.894z"/>
	<path fill="#ED1C24" d="M207.853,80.51h-3.995l-0.684-4.572h-4.859l-0.685,4.572h-3.635l4.032-25.197h5.795L207.853,80.51z
		 M198.819,72.518h3.815l-1.908-12.742L198.819,72.518z"/>
	<path fill="#ED1C24" d="M207.171,55.312h12.238v3.6h-4.14V80.51h-3.959V58.912h-4.14V55.312z"/>
	<path fill="#ED1C24" d="M221.138,55.312h3.96V80.51h-3.96V55.312z"/>
	<path fill="#ED1C24" d="M231.938,65.932h5.436v3.6h-5.436v7.379h6.839v3.6h-10.799V55.312h10.799v3.6h-6.839V65.932z"/>
	<path fill="#ED1C24" d="M244.754,62.26v18.25h-3.563V55.312h4.967l4.067,15.082V55.312h3.527V80.51h-4.067L244.754,62.26z"/>
	<path fill="#ED1C24" d="M255.446,55.312h12.238v3.6h-4.14V80.51h-3.959V58.912h-4.14V55.312z"/>
	<path fill="#ED1C24" d="M274.741,55.024c3.852,0,5.831,2.304,5.831,6.335v0.792h-3.744v-1.044c0-1.799-0.72-2.483-1.979-2.483
		s-1.979,0.685-1.979,2.483c0,5.184,7.739,6.156,7.739,13.354c0,4.032-2.016,6.335-5.903,6.335s-5.903-2.303-5.903-6.335v-1.548
		h3.743v1.8c0,1.8,0.792,2.448,2.052,2.448s2.052-0.648,2.052-2.448c0-5.183-7.739-6.155-7.739-13.354
		C268.909,57.328,270.889,55.024,274.741,55.024z"/>
</g>
</svg>
