<?xml version="1.0" encoding="utf-8"?>
<!-- Generator: Adobe Illustrator 16.0.4, SVG Export Plug-In . SVG Version: 6.00 Build 0)  -->
<!DOCTYPE svg PUBLIC "-//W3C//DTD SVG 1.1//EN" "http://www.w3.org/Graphics/SVG/1.1/DTD/svg11.dtd">
<svg version="1.1" id="Layer_1" xmlns="http://www.w3.org/2000/svg" xmlns:xlink="http://www.w3.org/1999/xlink" x="0px" y="0px"
	 width="298.077px" height="294.531px" viewBox="0 0 298.077 294.531" enable-background="new 0 0 298.077 294.531"
	 xml:space="preserve">
<g>
	<g>
		<path fill="#686868" d="M64.869,0C50.307,0,38.51,14.529,38.51,32.474v85.055L0,131.864l38.51,62.984v67.207
			c0,17.941,11.796,32.475,26.358,32.475h206.863c14.549,0,26.346-14.533,26.346-32.475V32.474C298.077,14.529,286.28,0,271.731,0
			H64.869z"/>
	</g>
</g>
<rect x="288.417" y="26.624" fill="none" width="257.265" height="42.735"/>
<text transform="matrix(1 0 0 1 388.5269 54.624)" fill="#DFE260" font-family="'BebasNeue'" font-size="40">Head &amp; Neck</text>
<rect x="68.034" y="104.679" fill="none" width="226.367" height="199.534"/>
<text transform="matrix(1 0 0 1 68.0337 126.3789)"><tspan x="0" y="0" fill="#FFFFFF" font-family="'BebasNeue'" font-size="31">OBESE PATIENTS</tspan><tspan x="0" y="37.199" fill="#FFFFFF" font-family="'BebasNeue'" font-size="31">ELDERLY PATIENTS</tspan><tspan x="0" y="74.4" fill="#FFFFFF" font-family="'BebasNeue'" font-size="31">RENALLY IMPAIRED</tspan><tspan x="0" y="111.6" fill="#FFFFFF" font-family="'BebasNeue'" font-size="31">HEPATICALLY IMPAIRED</tspan></text>
<rect x="68.034" y="55.31" fill="none" width="257.266" height="82.439"/>
<text transform="matrix(1 0 0 1 68.0337 80.5098)" fill="#ED1C24" font-family="'BebasNeue'" font-size="36">High Risk patients</text>
</svg>
