<?xml version="1.0" encoding="utf-8"?>
<!-- Generator: Adobe Illustrator 16.0.4, SVG Export Plug-In . SVG Version: 6.00 Build 0)  -->
<!DOCTYPE svg PUBLIC "-//W3C//DTD SVG 1.1//EN" "http://www.w3.org/Graphics/SVG/1.1/DTD/svg11.dtd">
<svg version="1.1" xmlns="http://www.w3.org/2000/svg" xmlns:xlink="http://www.w3.org/1999/xlink" x="0px" y="0px"
	 width="299.515px" height="299.516px" viewBox="0 0 299.515 299.516" enable-background="new 0 0 299.515 299.516"
	 xml:space="preserve">
<g id="Layer_2" display="none">
	<g id="Layer_4_copy" display="inline">
	</g>
</g>
<g id="Brain">
</g>
<g id="Head">
	<g id="Layer_4">
	</g>
</g>
<g id="Heart">
	<g>
		<path fill="#2E3192" d="M149.757,299.516c-82.578,0-149.758-67.182-149.758-149.758S67.179,0,149.757,0
			c82.576,0,149.758,67.182,149.758,149.758S232.333,299.516,149.757,299.516z M149.757,28C82.618,28,27.999,82.621,27.999,149.758
			s54.619,121.758,121.758,121.758c67.137,0,121.758-54.621,121.758-121.758S216.894,28,149.757,28z"/>
	</g>
	<path fill="#2E3192" d="M75.222,139.115c0,0-33.5,73.5,61.5,95c36,15,41,17,54.5,16s14-16,16-25s6-32.5-5-56
		c-5.25-10-5.75-12.312-6.188-19.938s-17.688-28.375-25.062-33.875c-0.125-4.312,11.375-4.75,16.312-4.938s7.562-8.062,3.75-10.25
		s-10.188-1.312-10.438-2.25s14.75-2.938,8.625-13.875c-2.438-5.062-6.562-1.438-7.438-1.25
		c-12.562,2.709-11.188-12.312-11.188-17.375s0.875-14.562,0.875-14.562s1.062-3.375-2.438-3.812s-6.312-1.875-9,6.562
		c-1.688,5.625-1.5,5.812-3.25,5.688s-1.938-0.625-1.812-4.25s0.062-8.371,0.062-8.371s0.25-1.441-3.312-1.504
		s-5.188-0.875-5.5,2.938s-0.688,9.938-2.625,10.312s-9.688-0.938-15.062,3.5c-4.75-7.438-5.688-9-5.688-9s-1.625-3.375-5.625-0.5
		s-7,3.125-5.75,7.875s2.875,11.375,2.875,11.375s0.5,3.375-1.125,7.562s-3.312,8.812-4.938,20.438s-1.438,13.125-1.438,13.125
		s0.25,6.75-1.812,5s-2.75-4-2.875-4.438s-0.312-12.562,0.625-18.125s2.5-13.125,2.5-13.125s1.562-3.188-4.062-3.25
		S87.159,79.99,87.159,79.99s-2.625-0.688-2.688,6.188s-0.438,33.938-0.438,33.938s0.5,9.625-2,12.875
		S76.909,136.865,75.222,139.115z"/>
</g>
<g id="Abs">
	<g id="Layer_9">
	</g>
</g>
<g id="Joint">
	<g id="Layer_15">
	</g>
</g>
<g id="Danger">
	<g id="Layer_16">
	</g>
</g>
</svg>
