<?xml version="1.0" encoding="utf-8"?>
<!-- Generator: Adobe Illustrator 16.0.4, SVG Export Plug-In . SVG Version: 6.00 Build 0)  -->
<!DOCTYPE svg PUBLIC "-//W3C//DTD SVG 1.1//EN" "http://www.w3.org/Graphics/SVG/1.1/DTD/svg11.dtd">
<svg version="1.1" xmlns="http://www.w3.org/2000/svg" xmlns:xlink="http://www.w3.org/1999/xlink" x="0px" y="0px"
	 width="299.515px" height="299.516px" viewBox="0 0 299.515 299.516" enable-background="new 0 0 299.515 299.516"
	 xml:space="preserve">
<g id="Layer_2" display="none">
	<g id="Layer_4_copy" display="inline">
	</g>
</g>
<g id="Brain">
</g>
<g id="Head">
	<g id="Layer_4">
	</g>
</g>
<g id="Heart">
</g>
<g id="Abs">
	<g id="Layer_9">
	</g>
</g>
<g id="Joint">
	<g>
		<path fill="#39B54A" d="M149.757,299.516c-82.576,0-149.756-67.182-149.756-149.758S67.181,0,149.757,0
			c82.578,0,149.758,67.182,149.758,149.758S232.335,299.516,149.757,299.516z M149.757,28C82.62,28,28.001,82.621,28.001,149.758
			S82.62,271.516,149.757,271.516c67.139,0,121.758-54.621,121.758-121.758S216.896,28,149.757,28z"/>
	</g>
	<g id="Layer_15">
		<path fill="#39B54A" d="M124.714,25.24c0,0,18,77.5,17,80.5s-9.709,13.75-8.479,21.25c1.229,7.5,6.979,22.5,27.229,21.75
			s26.75-14,26.75-22s-13.5-101.5-13.5-101.5H124.714z"/>
		<path fill="#39B54A" d="M73.964,249.49l43.25-85.75c0,0,1.5-17,2.5-22.25s7.25-11,9.5-4.75s14.5,23.75,32.5,19.5s11.25-3,11.25-3
			s7-5.25,7.75,6.25s-1.25,17-7.75,18.25s-13.5,0.5-18.75,9.25s-43.25,83-43.25,83L73.964,249.49z"/>
		<path fill="#39B54A" d="M193.714,130.49c0,0,11.5,7,9.25,20.75s-10.25,17.5-13.25,17.5s2-11.5,0-13.5s-4.971-7.75-0.984-9.75
			c3.984-2,4.484-8.2,3.734-11.475C191.714,130.74,193.714,130.49,193.714,130.49z"/>
	</g>
</g>
<g id="Danger">
	<g id="Layer_16">
	</g>
</g>
</svg>
