<?xml version="1.0" encoding="utf-8"?>
<!-- Generator: Adobe Illustrator 18.0.0, SVG Export Plug-In . SVG Version: 6.00 Build 0)  -->
<!DOCTYPE svg PUBLIC "-//W3C//DTD SVG 1.1//EN" "http://www.w3.org/Graphics/SVG/1.1/DTD/svg11.dtd">
<svg version="1.1" xmlns="http://www.w3.org/2000/svg" xmlns:xlink="http://www.w3.org/1999/xlink" x="0px" y="0px"
	 viewBox="0 0 50 1" style="enable-background:new 0 0 50 1;" xml:space="preserve">
<style type="text/css">
	.st0{display:none;}
	.st1{fill:none;}
	.st2{display:inline;}
	.st3{fill-rule:evenodd;clip-rule:evenodd;fill:#EEEEEE;}
	.st4{fill-rule:evenodd;clip-rule:evenodd;fill:#4FC3F7;}
	.st5{display:inline;fill:#EEEEEE;}
</style>
<g id="Background__x2B__MONEY__x2B__NEURO__x2B__ORTHO__x2B__NEURO_2__x2B__ON..._Just_like_that__x2B__WHERE__x2B__Navigation__x2B__Header_xA0_Image_1_" class="st0">
	
		<image style="display:inline;overflow:visible;" width="1600" height="6000" id="Background__x2B__MONEY__x2B__NEURO__x2B__ORTHO__x2B__NEURO_2__x2B__ON..._Just_like_that__x2B__WHERE__x2B__Navigation__x2B__Header_xA0_Image" xlink:href="3BC3D5BF814A866F.png"  transform="matrix(1 0 0 1 -183.75 -388.9584)">
	</image>
</g>
<g id="IV_3_">
	<g id="Slice_List">
		<rect id="_x3C_Slice_x3E_" x="-183.8" y="2050" class="st1" width="1600" height="2805"/>
	</g>
	<g id="Bag" class="st0">
		<g class="st2">
			<path class="st3" d="M104.2-329h-163c-13.8,0-25,11.2-25,25V-6c0,13.8,11.2,25,25,25h163c13.8,0,25-11.2,25-25v-298
				C129.2-317.8,118.1-329,104.2-329z"/>
		</g>
	</g>
	<g>
		<g>
			<path class="st3" d="M37.9-294h-25c-1.7,0-3,1.3-3,3v5928c0,1.7,1.3,3,3,3h25c1.7,0,3-1.3,3-3V-291C40.9-292.6,39.6-294,37.9-294
				z M31.9,3115c0,1.7-1.3,8-3,8h-6c-1.7,0-3-6.3-3-8V-229c0-1.7,1.3-3,3-3h6c1.7,0,3-3.7,3-2V3115z"/>
		</g>
	</g>
	<g id="Bag_Liquid" class="st0">
		<g class="st2">
			<path class="st4" d="M76.3-300h-107c-13.8,0-25,11.2-25,25v240c0,13.8,11.2,25,25,25h107c13.8,0,25-11.2,25-25v-240
				C101.3-288.8,90.1-300,76.3-300z"/>
		</g>
	</g>
	<g id="Gloss_xA0_Image_1_" class="st0">
		<path class="st5" d="M-41.8-232c0,0-0.2-56,27.8-56C40.4-288-27.7-290.5-41.8-232z"/>
	</g>
</g>
</svg>
