<?xml version="1.0" encoding="utf-8"?>
<!-- Generator: Adobe Illustrator 18.0.0, SVG Export Plug-In . SVG Version: 6.00 Build 0)  -->
<!DOCTYPE svg PUBLIC "-//W3C//DTD SVG 1.1//EN" "http://www.w3.org/Graphics/SVG/1.1/DTD/svg11.dtd">
<svg version="1.1" xmlns="http://www.w3.org/2000/svg" xmlns:xlink="http://www.w3.org/1999/xlink" x="0px" y="0px"
	 viewBox="0 0 300 1" style="enable-background:new 0 0 300 1;" xml:space="preserve">
<style type="text/css">
	.st0{display:none;}
	.st1{fill:none;}
	.st2{display:inline;}
	.st3{fill-rule:evenodd;clip-rule:evenodd;fill:#EEEEEE;}
	.st4{fill-rule:evenodd;clip-rule:evenodd;fill:#2A2A2A;}
	.st5{fill-rule:evenodd;clip-rule:evenodd;fill:#4FC3F7;}
	.st6{display:inline;fill:#EEEEEE;}
</style>
<g id="Background__x2B__MONEY__x2B__NEURO__x2B__ORTHO__x2B__NEURO_2__x2B__ON..._Just_like_that__x2B__WHERE__x2B__Navigation__x2B__Header_xA0_Image_1_" class="st0">
	
		<image style="display:inline;overflow:visible;" width="1600" height="6000" id="Background__x2B__MONEY__x2B__NEURO__x2B__ORTHO__x2B__NEURO_2__x2B__ON..._Just_like_that__x2B__WHERE__x2B__Navigation__x2B__Header_xA0_Image" xlink:href="8DCAA854862DC78F.png"  transform="matrix(1 0 0 1 44.0813 -381.319)">
	</image>
</g>
<g id="IV_3_">
	<g id="Slice_List">
		<rect id="_x3C_Slice_x3E_" x="44.1" y="2057.7" class="st1" width="1600" height="2805"/>
	</g>
	<g id="Bag" class="st0">
		<g class="st2">
			<path class="st3" d="M332.1-321.3h-163c-13.8,0-25,11.2-25,25v298c0,13.8,11.2,25,25,25h163c13.8,0,25-11.2,25-25v-298
				C357.1-310.1,345.9-321.3,332.1-321.3z"/>
		</g>
	</g>
	<rect x="-2.1" y="-4.5" class="st4" width="206.2" height="11.8"/>
	<rect x="221.1" y="-4.5" class="st4" width="95.8" height="10.9"/>
	<g>
		<g>
			<path class="st3" d="M224.5-295.8h-25c-1.7,0-3,1.3-3,3v5928c0,1.7,1.3,3,3,3h25c1.7,0,3-1.3,3-3v-5928
				C227.5-294.5,226.2-295.8,224.5-295.8z M218.5,3113.2c0,1.7-1.3,8-3,8h-6c-1.7,0-3-6.3-3-8v-3344c0-1.7,1.3-3,3-3h6
				c1.7,0,3-3.7,3-2V3113.2z"/>
		</g>
	</g>
	<g id="Bag_Liquid" class="st0">
		<g class="st2">
			<path class="st5" d="M304.1-292.3h-107c-13.8,0-25,11.2-25,25v240c0,13.8,11.2,25,25,25h107c13.8,0,25-11.2,25-25v-240
				C329.1-281.1,317.9-292.3,304.1-292.3z"/>
		</g>
	</g>
	<g id="Gloss_xA0_Image_1_" class="st0">
		<path class="st6" d="M186.1-224.3c0,0-0.2-56,27.8-56C268.2-280.3,200.1-282.8,186.1-224.3z"/>
	</g>
</g>
</svg>
