<?xml version="1.0" encoding="utf-8"?>
<!-- Generator: Adobe Illustrator 18.0.0, SVG Export Plug-In . SVG Version: 6.00 Build 0)  -->
<!DOCTYPE svg PUBLIC "-//W3C//DTD SVG 1.1//EN" "http://www.w3.org/Graphics/SVG/1.1/DTD/svg11.dtd">
<svg version="1.1" xmlns="http://www.w3.org/2000/svg" xmlns:xlink="http://www.w3.org/1999/xlink" x="0px" y="0px"
	 viewBox="0 0 213 1100" style="enable-background:new 0 0 213 1100;" xml:space="preserve">
<style type="text/css">
	.st0{display:none;}
	.st1{fill:none;}
	.st2{fill-rule:evenodd;clip-rule:evenodd;fill:#EEEEEE;}
	.st3{fill-rule:evenodd;clip-rule:evenodd;fill:#4FC3F7;}
	.st4{fill:#EEEEEE;}
</style>
<g id="Background__x2B__MONEY__x2B__NEURO__x2B__ORTHO__x2B__NEURO_2__x2B__ON..._Just_like_that__x2B__WHERE__x2B__Navigation__x2B__Header_xA0_Image_1_" class="st0">
	
		<image style="display:inline;overflow:visible;" width="1600" height="6000" id="Background__x2B__MONEY__x2B__NEURO__x2B__ORTHO__x2B__NEURO_2__x2B__ON..._Just_like_that__x2B__WHERE__x2B__Navigation__x2B__Header_xA0_Image" xlink:href="2863D974EAA13311.png"  transform="matrix(1 0 0 1 -100 -59.9999)">
	</image>
</g>
<g id="IV_3_">
	<g id="Slice_List">
		<rect id="_x3C_Slice_x3E_" x="-100" y="2379" class="st1" width="1600" height="2805"/>
	</g>
	<g id="IV">
		<g>
			<path class="st2" d="M117,33H92c-1.7,0-3,1.3-3,3v5904h31V36C120,34.3,118.7,33,117,33z"/>
		</g>
	</g>
	<g id="Bag">
		<g>
			<path class="st2" d="M188,0H25C11.2,0,0,11.2,0,25v298c0,13.8,11.2,25,25,25h163c13.8,0,25-11.2,25-25V25C213,11.2,201.8,0,188,0
				z"/>
		</g>
	</g>
	<g id="liquid">
		<g>
			<path class="st3" d="M108,95h-6c-1.7,0-3,1.3-3,3v3344c0,1.7,1.3,8,3,8h6c1.7,0,3-6.3,3-8V93C111,91.3,109.7,95,108,95z"/>
		</g>
	</g>
	<g id="Bag_Liquid">
		<g>
			<path class="st3" d="M160,29H53c-13.8,0-25,11.2-25,25v240c0,13.8,11.2,25,25,25h107c13.8,0,25-11.2,25-25V54
				C185,40.2,173.8,29,160,29z"/>
		</g>
	</g>
	<g id="Gloss_xA0_Image_1_">
		<path class="st4" d="M42,97c0,0-0.2-56,27.8-56C124.2,41,56,38.5,42,97z"/>
	</g>
</g>
</svg>
