<?xml version="1.0" encoding="utf-8"?>
<!-- Generator: Adobe Illustrator 16.0.4, SVG Export Plug-In . SVG Version: 6.00 Build 0)  -->
<!DOCTYPE svg PUBLIC "-//W3C//DTD SVG 1.1//EN" "http://www.w3.org/Graphics/SVG/1.1/DTD/svg11.dtd">
<svg version="1.1" id="Layer_1" xmlns="http://www.w3.org/2000/svg" xmlns:xlink="http://www.w3.org/1999/xlink" x="0px" y="0px"
	 width="298.078px" height="294.531px" viewBox="0 0 298.078 294.531" enable-background="new 0 0 298.078 294.531"
	 xml:space="preserve">
<g>
	<g>
		<path fill="#686868" d="M233.208,0c14.562,0,26.359,14.529,26.359,32.474v85.055l38.508,14.336l-38.508,62.984v67.207
			c0,17.941-11.797,32.475-26.359,32.475H26.345C11.797,294.531,0,279.998,0,262.056V32.474C0,14.53,11.797,0,26.345,0H233.208z"/>
	</g>
</g>
<g>
	<rect x="19.204" y="92.565" fill="none" width="209.401" height="211.966"/>
	<path fill="#FFFFFF" d="M118.931,106.172v2.884c0,3.473-1.736,5.457-5.084,5.457c-3.35,0-5.086-1.984-5.086-5.457V97.77
		c0-3.473,1.736-5.457,5.086-5.457c3.348,0,5.084,1.984,5.084,5.457v2.108h-3.225v-2.325c0-1.551-0.682-2.14-1.767-2.14
		s-1.767,0.589-1.767,2.14v11.72c0,1.551,0.682,2.108,1.767,2.108s1.767-0.558,1.767-2.108v-3.101H118.931z"/>
	<path fill="#FFFFFF" d="M128.138,114.265c-0.186-0.558-0.311-0.899-0.311-2.667v-3.411c0-2.016-0.682-2.76-2.232-2.76h-1.178v8.837
		h-3.41V92.561h5.146c3.535,0,5.055,1.644,5.055,4.992v1.705c0,2.232-0.714,3.689-2.232,4.403c1.705,0.713,2.263,2.356,2.263,4.62
		v3.349c0,1.055,0.03,1.83,0.372,2.636H128.138z M124.417,95.662v6.666h1.334c1.271,0,2.045-0.558,2.045-2.294v-2.14
		c0-1.55-0.526-2.232-1.736-2.232H124.417z"/>
	<path fill="#FFFFFF" d="M144.507,114.265h-3.441l-0.59-3.938h-4.186l-0.59,3.938h-3.131l3.473-21.704h4.992L144.507,114.265z
		 M136.724,107.382h3.287l-1.644-10.976L136.724,107.382z"/>
	<path fill="#FFFFFF" d="M149.125,98.545v15.72h-3.07V92.561h4.279l3.504,12.991V92.561h3.038v21.704h-3.503L149.125,98.545z"/>
	<path fill="#FFFFFF" d="M159.322,92.561h3.411v21.704h-3.411V92.561z"/>
	<path fill="#FFFFFF" d="M164.933,97.77c0-3.473,1.829-5.457,5.178-5.457s5.178,1.984,5.178,5.457v11.286
		c0,3.473-1.829,5.457-5.178,5.457s-5.178-1.984-5.178-5.457V97.77z M168.343,109.273c0,1.551,0.682,2.14,1.768,2.14
		s1.768-0.589,1.768-2.14v-11.72c0-1.551-0.682-2.14-1.768-2.14s-1.768,0.589-1.768,2.14V109.273z"/>
	<path fill="#FFFFFF" d="M176.496,92.561h10.542v3.101h-3.565v18.604h-3.41V95.662h-3.566V92.561z"/>
	<path fill="#FFFFFF" d="M188.244,97.77c0-3.473,1.83-5.457,5.179-5.457s5.179,1.984,5.179,5.457v11.286
		c0,3.473-1.83,5.457-5.179,5.457s-5.179-1.984-5.179-5.457V97.77z M191.656,109.273c0,1.551,0.682,2.14,1.767,2.14
		s1.767-0.589,1.767-2.14v-11.72c0-1.551-0.682-2.14-1.767-2.14s-1.767,0.589-1.767,2.14V109.273z"/>
	<path fill="#FFFFFF" d="M208.023,107.971l2.326-15.41h4.744v21.704h-3.225V98.7l-2.357,15.565h-3.225l-2.541-15.348v15.348h-2.977
		V92.561h4.743L208.023,107.971z"/>
	<path fill="#FFFFFF" d="M220.763,107.072l-4.31-14.511h3.565l2.605,9.891l2.604-9.891h3.256l-4.311,14.511v7.193h-3.41V107.072z"/>
	<path fill="#FFFFFF" d="M62.852,129.513c3.317,0,5.022,1.984,5.022,5.457v0.682H64.65v-0.899c0-1.551-0.619-2.14-1.705-2.14
		c-1.085,0-1.705,0.589-1.705,2.14c0,4.465,6.666,5.302,6.666,11.503c0,3.473-1.736,5.457-5.084,5.457
		c-3.35,0-5.086-1.984-5.086-5.457v-1.333h3.225v1.55c0,1.551,0.682,2.108,1.768,2.108s1.768-0.558,1.768-2.108
		c0-4.465-6.666-5.302-6.666-11.503C57.83,131.498,59.535,129.513,62.852,129.513z"/>
	<path fill="#FFFFFF" d="M79.964,135.125v2.821c0,3.473-1.674,5.364-5.084,5.364h-1.613v8.154h-3.41v-21.704h5.023
		C78.291,129.761,79.964,131.653,79.964,135.125z M73.267,132.862v7.349h1.613c1.084,0,1.674-0.496,1.674-2.047v-3.255
		c0-1.55-0.59-2.046-1.674-2.046H73.267z"/>
	<path fill="#FFFFFF" d="M81.544,129.761h3.41v21.704h-3.41V129.761z"/>
	<path fill="#FFFFFF" d="M90.472,135.746v15.72h-3.07v-21.704h4.279l3.504,12.991v-12.991h3.039v21.704H94.72L90.472,135.746z"/>
	<path fill="#FFFFFF" d="M111.708,151.465h-3.441l-0.59-3.938h-4.186l-0.589,3.938h-3.132l3.473-21.704h4.992L111.708,151.465z
		 M103.925,144.582h3.287l-1.643-10.976L103.925,144.582z"/>
	<path fill="#FFFFFF" d="M113.287,129.761h3.411v18.604h5.612v3.101h-9.023V129.761z"/>
	<path fill="#FFFFFF" d="M133.19,129.513c3.317,0,5.022,1.984,5.022,5.457v0.682h-3.225v-0.899c0-1.551-0.619-2.14-1.705-2.14
		c-1.085,0-1.705,0.589-1.705,2.14c0,4.465,6.666,5.302,6.666,11.503c0,3.473-1.736,5.457-5.084,5.457
		c-3.35,0-5.086-1.984-5.086-5.457v-1.333h3.225v1.55c0,1.551,0.682,2.108,1.768,2.108s1.768-0.558,1.768-2.108
		c0-4.465-6.666-5.302-6.666-11.503C128.167,131.498,129.873,129.513,133.19,129.513z"/>
	<path fill="#FFFFFF" d="M143.451,129.761v16.743c0,1.55,0.682,2.108,1.768,2.108c1.084,0,1.768-0.558,1.768-2.108v-16.743h3.225
		v16.526c0,3.473-1.736,5.457-5.086,5.457c-3.348,0-5.084-1.984-5.084-5.457v-16.526H143.451z"/>
	<path fill="#FFFFFF" d="M159.664,151.465c-0.186-0.558-0.31-0.899-0.31-2.667v-3.411c0-2.016-0.683-2.76-2.232-2.76h-1.179v8.837
		h-3.41v-21.704h5.146c3.535,0,5.055,1.644,5.055,4.992v1.705c0,2.232-0.713,3.689-2.232,4.403c1.705,0.713,2.264,2.356,2.264,4.62
		v3.349c0,1.055,0.031,1.83,0.371,2.636H159.664z M155.943,132.862v6.666h1.334c1.271,0,2.047-0.558,2.047-2.294v-2.14
		c0-1.55-0.527-2.232-1.736-2.232H155.943z"/>
	<path fill="#FFFFFF" d="M170.111,139.373h4.775v6.883c0,3.473-1.736,5.457-5.086,5.457c-3.348,0-5.084-1.984-5.084-5.457V134.97
		c0-3.473,1.736-5.457,5.084-5.457c3.35,0,5.086,1.984,5.086,5.457v2.108h-3.225v-2.325c0-1.551-0.684-2.14-1.768-2.14
		c-1.086,0-1.768,0.589-1.768,2.14v11.72c0,1.551,0.682,2.108,1.768,2.108c1.084,0,1.768-0.558,1.768-2.108v-4h-1.551V139.373z"/>
	<path fill="#FFFFFF" d="M180.496,138.908h4.682v3.101h-4.682v6.356h5.891v3.101h-9.302v-21.704h9.302v3.101h-5.891V138.908z"/>
	<path fill="#FFFFFF" d="M195.624,151.465c-0.187-0.558-0.31-0.899-0.31-2.667v-3.411c0-2.016-0.683-2.76-2.232-2.76h-1.179v8.837
		h-3.411v-21.704h5.147c3.534,0,5.054,1.644,5.054,4.992v1.705c0,2.232-0.713,3.689-2.232,4.403c1.705,0.713,2.264,2.356,2.264,4.62
		v3.349c0,1.055,0.031,1.83,0.372,2.636H195.624z M191.903,132.862v6.666h1.333c1.271,0,2.047-0.558,2.047-2.294v-2.14
		c0-1.55-0.527-2.232-1.736-2.232H191.903z"/>
	<path fill="#FFFFFF" d="M200.955,129.761h3.41v21.704h-3.41V129.761z"/>
	<path fill="#FFFFFF" d="M210.254,138.908h4.683v3.101h-4.683v6.356h5.892v3.101h-9.303v-21.704h9.303v3.101h-5.892V138.908z"/>
	<path fill="#FFFFFF" d="M222.84,129.513c3.317,0,5.022,1.984,5.022,5.457v0.682h-3.225v-0.899c0-1.551-0.619-2.14-1.705-2.14
		c-1.085,0-1.705,0.589-1.705,2.14c0,4.465,6.666,5.302,6.666,11.503c0,3.473-1.736,5.457-5.084,5.457
		c-3.35,0-5.086-1.984-5.086-5.457v-1.333h3.225v1.55c0,1.551,0.682,2.108,1.768,2.108s1.768-0.558,1.768-2.108
		c0-4.465-6.666-5.302-6.666-11.503C217.818,131.498,219.523,129.513,222.84,129.513z"/>
	<path fill="#FFFFFF" d="M95.091,166.961h3.41v18.604h5.613v3.101h-9.023V166.961z"/>
	<path fill="#FFFFFF" d="M116.638,188.666h-3.441l-0.59-3.938h-4.186l-0.589,3.938h-3.132l3.473-21.704h4.992L116.638,188.666z
		 M108.855,181.782h3.287l-1.643-10.976L108.855,181.782z"/>
	<path fill="#FFFFFF" d="M125.441,182.372l2.326-15.41h4.744v21.704h-3.225v-15.565l-2.357,15.565h-3.225l-2.543-15.348v15.348
		h-2.977v-21.704h4.744L125.441,182.372z"/>
	<path fill="#FFFFFF" d="M134.988,166.961h3.41v21.704h-3.41V166.961z"/>
	<path fill="#FFFFFF" d="M143.916,172.946v15.72h-3.07v-21.704h4.279l3.504,12.991v-12.991h3.039v21.704h-3.504L143.916,172.946z"/>
	<path fill="#FFFFFF" d="M157.525,176.108h4.682v3.101h-4.682v6.356h5.891v3.101h-9.302v-21.704h9.302v3.101h-5.891V176.108z"/>
	<path fill="#FFFFFF" d="M175.412,180.573v2.884c0,3.473-1.736,5.457-5.084,5.457c-3.35,0-5.086-1.984-5.086-5.457V172.17
		c0-3.473,1.736-5.457,5.086-5.457c3.348,0,5.084,1.984,5.084,5.457v2.108h-3.225v-2.325c0-1.551-0.682-2.14-1.767-2.14
		s-1.767,0.589-1.767,2.14v11.72c0,1.551,0.682,2.108,1.767,2.108s1.767-0.558,1.767-2.108v-3.101H175.412z"/>
	<path fill="#FFFFFF" d="M176.496,166.961h10.541v3.101h-3.564v18.604h-3.412v-18.604h-3.564V166.961z"/>
	<path fill="#FFFFFF" d="M188.244,172.17c0-3.473,1.83-5.457,5.178-5.457c3.35,0,5.178,1.984,5.178,5.457v11.286
		c0,3.473-1.828,5.457-5.178,5.457c-3.348,0-5.178-1.984-5.178-5.457V172.17z M191.654,183.673c0,1.551,0.684,2.14,1.768,2.14
		c1.086,0,1.768-0.589,1.768-2.14v-11.72c0-1.551-0.682-2.14-1.768-2.14c-1.084,0-1.768,0.589-1.768,2.14V183.673z"/>
	<path fill="#FFFFFF" d="M208.023,182.372l2.326-15.41h4.744v21.704h-3.225v-15.565l-2.357,15.565h-3.225l-2.543-15.348v15.348
		h-2.977v-21.704h4.744L208.023,182.372z"/>
	<path fill="#FFFFFF" d="M220.763,181.472l-4.311-14.511h3.566l2.604,9.891l2.605-9.891h3.256l-4.311,14.511v7.193h-3.41V181.472z"
		/>
	<path fill="#FFFFFF" d="M44.937,219.571l2.324-15.41h4.744v21.704h-3.225V210.3l-2.355,15.565h-3.225l-2.543-15.348v15.348h-2.977
		v-21.704h4.744L44.937,219.571z"/>
	<path fill="#FFFFFF" d="M54.482,204.161h3.411v21.704h-3.411V204.161z"/>
	<path fill="#FFFFFF" d="M63.411,210.145v15.72h-3.069v-21.704h4.279l3.503,12.992v-12.992h3.038v21.704h-3.504L63.411,210.145z"/>
	<path fill="#FFFFFF" d="M73.609,204.161h3.41v21.704h-3.41V204.161z"/>
	<path fill="#FFFFFF" d="M86.722,219.571l2.326-15.41h4.744v21.704h-3.225V210.3l-2.357,15.565h-3.225l-2.541-15.348v15.348h-2.977
		v-21.704h4.743L86.722,219.571z"/>
	<path fill="#FFFFFF" d="M107.307,225.865h-3.442l-0.588-3.938h-4.186l-0.59,3.938h-3.131l3.473-21.704h4.991L107.307,225.865z
		 M99.525,218.982h3.287l-1.645-10.976L99.525,218.982z"/>
	<path fill="#FFFFFF" d="M108.886,204.161h3.41v18.604h5.611v3.101h-9.021V204.161z"/>
	<path fill="#FFFFFF" d="M119.394,204.161h3.411v18.604h5.612v3.101h-9.023V204.161z"/>
	<path fill="#FFFFFF" d="M131.175,218.672l-4.311-14.511h3.566l2.604,9.891l2.605-9.891h3.256l-4.311,14.511v7.193h-3.41V218.672z"
		/>
	<path fill="#FFFFFF" d="M145.062,204.161h3.411v21.704h-3.411V204.161z"/>
	<path fill="#FFFFFF" d="M153.991,210.145v15.72h-3.069v-21.704h4.279l3.503,12.992v-12.992h3.038v21.704h-3.504L153.991,210.145z"
		/>
	<path fill="#FFFFFF" d="M169.335,221.866l2.605-17.705h3.131l-3.348,21.704h-5.086l-3.348-21.704h3.441L169.335,221.866z"/>
	<path fill="#FFFFFF" d="M186.914,225.865h-3.441l-0.589-3.938h-4.187l-0.588,3.938h-3.133l3.473-21.704h4.992L186.914,225.865z
		 M179.132,218.982h3.285l-1.643-10.976L179.132,218.982z"/>
	<path fill="#FFFFFF" d="M193.082,203.913c3.318,0,5.023,1.984,5.023,5.457v0.682h-3.225v-0.899c0-1.55-0.621-2.139-1.705-2.139
		c-1.086,0-1.706,0.589-1.706,2.139c0,4.465,6.667,5.302,6.667,11.503c0,3.473-1.736,5.457-5.086,5.457
		c-3.348,0-5.084-1.984-5.084-5.457v-1.333h3.225v1.551c0,1.55,0.682,2.108,1.767,2.108s1.767-0.559,1.767-2.108
		c0-4.465-6.666-5.302-6.666-11.503C188.058,205.897,189.763,203.913,193.082,203.913z"/>
	<path fill="#FFFFFF" d="M200.086,204.161h3.411v21.704h-3.411V204.161z"/>
	<path fill="#FFFFFF" d="M211.123,221.866l2.605-17.705h3.131l-3.348,21.704h-5.086l-3.348-21.704h3.441L211.123,221.866z"/>
	<path fill="#FFFFFF" d="M221.849,213.308h4.682v3.101h-4.682v6.356h5.891v3.101h-9.302v-21.704h9.302v3.101h-5.891V213.308z"/>
	<path fill="#FFFFFF" d="M131.3,237.525v2.822c0,3.473-1.675,5.364-5.086,5.364h-1.611v8.155h-3.411v-21.704h5.022
		C129.625,232.161,131.3,234.052,131.3,237.525z M124.603,235.262v7.348h1.611c1.086,0,1.675-0.496,1.675-2.046v-3.256
		c0-1.55-0.589-2.046-1.675-2.046H124.603z"/>
	<path fill="#FFFFFF" d="M140.01,253.865c-0.187-0.558-0.31-0.899-0.31-2.667v-3.411c0-2.015-0.683-2.759-2.232-2.759h-1.179v8.836
		h-3.411v-21.704h5.147c3.534,0,5.054,1.643,5.054,4.992v1.706c0,2.232-0.713,3.69-2.232,4.403c1.705,0.713,2.264,2.356,2.264,4.62
		v3.349c0,1.054,0.031,1.829,0.372,2.635H140.01z M136.29,235.262v6.667h1.333c1.271,0,2.047-0.559,2.047-2.295v-2.139
		c0-1.55-0.527-2.232-1.736-2.232H136.29z"/>
	<path fill="#FFFFFF" d="M145.062,237.37c0-3.473,1.829-5.457,5.178-5.457s5.178,1.984,5.178,5.457v11.286
		c0,3.473-1.829,5.457-5.178,5.457s-5.178-1.984-5.178-5.457V237.37z M148.472,248.874c0,1.55,0.682,2.139,1.768,2.139
		s1.768-0.589,1.768-2.139v-11.721c0-1.55-0.682-2.139-1.768-2.139s-1.768,0.589-1.768,2.139V248.874z"/>
	<path fill="#FFFFFF" d="M167.507,245.773v2.883c0,3.473-1.736,5.457-5.084,5.457c-3.35,0-5.086-1.984-5.086-5.457V237.37
		c0-3.473,1.736-5.457,5.086-5.457c3.348,0,5.084,1.984,5.084,5.457v2.108h-3.225v-2.326c0-1.55-0.682-2.139-1.768-2.139
		c-1.084,0-1.768,0.589-1.768,2.139v11.721c0,1.55,0.684,2.108,1.768,2.108c1.086,0,1.768-0.559,1.768-2.108v-3.101H167.507z"/>
	<path fill="#FFFFFF" d="M172.993,241.308h4.683v3.101h-4.683v6.356h5.892v3.101h-9.303v-21.704h9.303v3.101h-5.892V241.308z"/>
	<path fill="#FFFFFF" d="M180.99,232.161h5.395c3.411,0,5.086,1.891,5.086,5.364v10.977c0,3.473-1.675,5.364-5.086,5.364h-5.395
		V232.161z M184.4,235.262v15.503h1.923c1.085,0,1.736-0.558,1.736-2.108V237.37c0-1.55-0.651-2.108-1.736-2.108H184.4z"/>
	<path fill="#FFFFFF" d="M196.892,232.161v16.743c0,1.55,0.684,2.108,1.768,2.108c1.086,0,1.768-0.558,1.768-2.108v-16.743h3.225
		v16.526c0,3.473-1.736,5.457-5.084,5.457c-3.35,0-5.086-1.984-5.086-5.457v-16.526H196.892z"/>
	<path fill="#FFFFFF" d="M213.107,253.865c-0.187-0.558-0.311-0.899-0.311-2.667v-3.411c0-2.015-0.682-2.759-2.232-2.759h-1.178
		v8.836h-3.411v-21.704h5.147c3.534,0,5.053,1.643,5.053,4.992v1.706c0,2.232-0.713,3.69-2.232,4.403
		c1.706,0.713,2.264,2.356,2.264,4.62v3.349c0,1.054,0.031,1.829,0.373,2.635H213.107z M209.386,235.262v6.667h1.332
		c1.271,0,2.047-0.559,2.047-2.295v-2.139c0-1.55-0.527-2.232-1.736-2.232H209.386z"/>
	<path fill="#FFFFFF" d="M221.847,241.308h4.682v3.101h-4.682v6.356h5.892v3.101h-9.302v-21.704h9.302v3.101h-5.892V241.308z"/>
</g>
<g>
	<rect x="-28.661" y="36.846" fill="none" width="257.266" height="42.735"/>
	<path fill="#F7941E" d="M100.509,45.146v21.801h-4.257v-30.1h5.935l4.858,18.017V36.847h4.214v30.1h-4.858L100.509,45.146z"/>
	<path fill="#F7941E" d="M119.386,49.532h6.492v4.3h-6.492v8.815h8.17v4.3h-12.9v-30.1h12.9v4.3h-8.17V49.532z"/>
	<path fill="#F7941E" d="M134.996,36.847v23.22c0,2.15,0.945,2.924,2.45,2.924s2.451-0.774,2.451-2.924v-23.22h4.472v22.919
		c0,4.816-2.407,7.568-7.052,7.568c-4.644,0-7.052-2.752-7.052-7.568V36.847H134.996z"/>
	<path fill="#F7941E" d="M157.484,66.946c-0.258-0.774-0.43-1.247-0.43-3.698v-4.73c0-2.795-0.946-3.827-3.096-3.827h-1.634v12.255
		h-4.73v-30.1h7.138c4.902,0,7.01,2.279,7.01,6.923v2.365c0,3.096-0.989,5.117-3.097,6.106c2.365,0.989,3.14,3.268,3.14,6.407v4.644
		c0,1.462,0.043,2.537,0.516,3.655H157.484z M152.325,41.147v9.245h1.849c1.763,0,2.838-0.774,2.838-3.182v-2.967
		c0-2.15-0.73-3.096-2.408-3.096H152.325z"/>
	<path fill="#F7941E" d="M164.494,44.071c0-4.816,2.537-7.568,7.181-7.568c4.645,0,7.181,2.752,7.181,7.568v15.651
		c0,4.816-2.536,7.568-7.181,7.568c-4.644,0-7.181-2.752-7.181-7.568V44.071z M169.223,60.023c0,2.15,0.946,2.967,2.451,2.967
		s2.451-0.817,2.451-2.967V43.77c0-2.15-0.946-2.967-2.451-2.967s-2.451,0.817-2.451,2.967V60.023z"/>
	<path fill="#F7941E" d="M192.272,36.847h4.085l-11.868,30.1h-4.085L192.272,36.847z"/>
	<path fill="#F7941E" d="M203.022,49.532h6.492v4.3h-6.492v8.815h8.17v4.3h-12.9v-30.1h12.9v4.3h-8.17V49.532z"/>
	<path fill="#F7941E" d="M228.133,44.286v3.913c0,4.816-2.321,7.439-7.052,7.439h-2.235v11.309h-4.73v-30.1h6.966
		C225.812,36.847,228.133,39.47,228.133,44.286z M218.846,41.147v10.19h2.235c1.505,0,2.322-0.688,2.322-2.838v-4.515
		c0-2.15-0.817-2.838-2.322-2.838H218.846z"/>
</g>
<g>
	<rect x="-250.043" y="62.831" fill="none" width="257.266" height="42.734"/>
</g>
</svg>
