<?xml version="1.0" encoding="utf-8"?>
<!-- Generator: Adobe Illustrator 16.0.4, SVG Export Plug-In . SVG Version: 6.00 Build 0)  -->
<!DOCTYPE svg PUBLIC "-//W3C//DTD SVG 1.1//EN" "http://www.w3.org/Graphics/SVG/1.1/DTD/svg11.dtd">
<svg version="1.1" id="Layer_1" xmlns="http://www.w3.org/2000/svg" xmlns:xlink="http://www.w3.org/1999/xlink" x="0px" y="0px"
	 width="298.078px" height="294.531px" viewBox="0 0 298.078 294.531" enable-background="new 0 0 298.078 294.531"
	 xml:space="preserve">
<g>
	<g>
		<path fill="#686868" d="M233.208,0c14.562,0,26.359,14.529,26.359,32.474v85.055l38.508,14.336l-38.508,62.984v67.207
			c0,17.941-11.797,32.475-26.359,32.475H26.345C11.797,294.531,0,279.998,0,262.056V32.474C0,14.53,11.797,0,26.345,0H233.208z"/>
	</g>
</g>
<rect x="19.204" y="92.565" fill="none" width="209.401" height="211.966"/>
<text transform="matrix(1 0 0 1 107.8003 114.2651)"><tspan x="0" y="0" fill="#FFFFFF" font-family="'BebasNeue'" font-size="31">Craniotomy</tspan><tspan x="-50.777" y="37.2" fill="#FFFFFF" font-family="'BebasNeue'" font-size="31">Spinal Surgeries</tspan><tspan x="-13.949" y="74.4" fill="#FFFFFF" font-family="'BebasNeue'" font-size="31">Laminectomy</tspan><tspan x="-74.025" y="111.6" fill="#FFFFFF" font-family="'BebasNeue'" font-size="31">Minimally Invasive </tspan><tspan x="12.151" y="139.6" fill="#FFFFFF" font-family="'BebasNeue'" font-size="31">Procedure</tspan></text>
<rect x="-28.661" y="36.846" fill="none" width="257.266" height="42.735"/>
<text transform="matrix(1 0 0 1 94.5757 66.9463)" fill="#F7941E" font-family="'BebasNeue'" font-size="43">Neuro/ep</text>
<rect x="-250.043" y="62.831" fill="none" width="257.266" height="42.734"/>
<text transform="matrix(1 0 0 1 -250.0435 92.9307)" fill="#39B54A" font-family="'BebasNeue'" font-size="43">orthopedic</text>
</svg>
