<?xml version="1.0" encoding="utf-8"?>
<!-- Generator: Adobe Illustrator 16.0.4, SVG Export Plug-In . SVG Version: 6.00 Build 0)  -->
<!DOCTYPE svg PUBLIC "-//W3C//DTD SVG 1.1//EN" "http://www.w3.org/Graphics/SVG/1.1/DTD/svg11.dtd">
<svg version="1.1" id="Layer_1" xmlns="http://www.w3.org/2000/svg" xmlns:xlink="http://www.w3.org/1999/xlink" x="0px" y="0px"
	 width="298.077px" height="294.53px" viewBox="0 0 298.077 294.53" enable-background="new 0 0 298.077 294.53"
	 xml:space="preserve">
<g>
	<g>
		<path fill="#686868" d="M64.869,0C50.307,0,38.51,14.529,38.51,32.474v85.054L0,131.865l38.51,62.984v67.208
			c0,17.941,11.797,32.474,26.359,32.474h206.862c14.549,0,26.346-14.533,26.346-32.474V32.474C298.077,14.529,286.28,0,271.731,0
			H64.869z"/>
	</g>
</g>
<rect x="289.417" y="36.846" fill="none" width="257.266" height="42.735"/>
<text transform="matrix(1 0 0 1 412.6528 66.9463)" fill="#F7941E" font-family="'BebasNeue'" font-size="43">Neuro/ep</text>
<rect x="68.034" y="121.333" fill="none" width="218.947" height="114.952"/>
<text transform="matrix(1 0 0 1 68.0337 143.0327)"><tspan x="0" y="0" fill="#FFFFFF" font-family="'BebasNeue'" font-size="31">ARTHROPLASTY</tspan><tspan x="0" y="37.2" fill="#FFFFFF" font-family="'BebasNeue'" font-size="31">ARTHROSCOPY</tspan><tspan x="0" y="74.4" fill="#FFFFFF" font-family="'BebasNeue'" font-size="31">FRACTURE REDUCTION</tspan></text>
<rect x="68.034" y="62.831" fill="none" width="257.266" height="42.734"/>
<text transform="matrix(1 0 0 1 68.0337 92.9307)" fill="#39B54A" font-family="'BebasNeue'" font-size="43">orthopedic</text>
</svg>
