<?xml version="1.0" encoding="utf-8"?>
<!-- Generator: Adobe Illustrator 16.0.4, SVG Export Plug-In . SVG Version: 6.00 Build 0)  -->
<!DOCTYPE svg PUBLIC "-//W3C//DTD SVG 1.1//EN" "http://www.w3.org/Graphics/SVG/1.1/DTD/svg11.dtd">
<svg version="1.1" id="Layer_1" xmlns="http://www.w3.org/2000/svg" xmlns:xlink="http://www.w3.org/1999/xlink" x="0px" y="0px"
	 width="298.077px" height="294.53px" viewBox="0 0 298.077 294.53" enable-background="new 0 0 298.077 294.53"
	 xml:space="preserve">
<g>
	<g>
		<path fill="#686868" d="M64.869,0C50.307,0,38.51,14.529,38.51,32.474v85.054L0,131.865l38.51,62.984v67.208
			c0,17.941,11.797,32.474,26.359,32.474h206.862c14.549,0,26.346-14.533,26.346-32.474V32.474C298.077,14.529,286.28,0,271.731,0
			H64.869z"/>
	</g>
</g>
<g>
	<rect x="289.417" y="36.846" fill="none" width="257.266" height="42.735"/>
</g>
<g>
	<rect x="68.034" y="121.333" fill="none" width="218.947" height="114.952"/>
	<path fill="#FFFFFF" d="M80.312,143.033h-3.441l-0.589-3.938h-4.186l-0.589,3.938h-3.132l3.473-21.704h4.992L80.312,143.033z
		 M72.53,136.149h3.286l-1.643-10.976L72.53,136.149z"/>
	<path fill="#FFFFFF" d="M89.022,143.033c-0.186-0.558-0.31-0.899-0.31-2.667v-3.411c0-2.016-0.682-2.76-2.232-2.76h-1.178v8.837
		h-3.411v-21.704h5.147c3.535,0,5.054,1.644,5.054,4.992v1.705c0,2.232-0.713,3.689-2.232,4.403c1.706,0.713,2.264,2.356,2.264,4.62
		v3.349c0,1.055,0.031,1.83,0.372,2.636H89.022z M85.301,124.429v6.666h1.333c1.271,0,2.047-0.558,2.047-2.294v-2.14
		c0-1.55-0.527-2.232-1.736-2.232H85.301z"/>
	<path fill="#FFFFFF" d="M93.36,121.329h10.542v3.101h-3.566v18.604h-3.41v-18.604H93.36V121.329z"/>
	<path fill="#FFFFFF" d="M108.799,143.033h-3.411v-21.704h3.411v9.302h3.875v-9.302h3.473v21.704h-3.473v-9.302h-3.875V143.033z"/>
	<path fill="#FFFFFF" d="M125.756,143.033c-0.186-0.558-0.31-0.899-0.31-2.667v-3.411c0-2.016-0.682-2.76-2.232-2.76h-1.178v8.837
		h-3.411v-21.704h5.147c3.535,0,5.054,1.644,5.054,4.992v1.705c0,2.232-0.713,3.689-2.232,4.403c1.706,0.713,2.264,2.356,2.264,4.62
		v3.349c0,1.055,0.031,1.83,0.372,2.636H125.756z M122.036,124.429v6.666h1.333c1.271,0,2.047-0.558,2.047-2.294v-2.14
		c0-1.55-0.527-2.232-1.736-2.232H122.036z"/>
	<path fill="#FFFFFF" d="M130.808,126.538c0-3.473,1.829-5.457,5.178-5.457s5.178,1.984,5.178,5.457v11.286
		c0,3.473-1.829,5.457-5.178,5.457s-5.178-1.984-5.178-5.457V126.538z M134.218,138.041c0,1.551,0.683,2.14,1.768,2.14
		s1.768-0.589,1.768-2.14v-11.72c0-1.551-0.683-2.14-1.768-2.14s-1.768,0.589-1.768,2.14V138.041z"/>
	<path fill="#FFFFFF" d="M153.471,126.693v2.821c0,3.473-1.674,5.364-5.085,5.364h-1.612v8.154h-3.411v-21.704h5.023
		C151.796,121.329,153.471,123.22,153.471,126.693z M146.773,124.429v7.349h1.612c1.085,0,1.674-0.496,1.674-2.047v-3.255
		c0-1.55-0.589-2.046-1.674-2.046H146.773z"/>
	<path fill="#FFFFFF" d="M155.05,121.329h3.411v18.604h5.612v3.101h-9.023V121.329z"/>
	<path fill="#FFFFFF" d="M176.597,143.033h-3.442l-0.589-3.938h-4.186l-0.589,3.938h-3.131l3.473-21.704h4.992L176.597,143.033z
		 M168.814,136.149h3.287l-1.644-10.976L168.814,136.149z"/>
	<path fill="#FFFFFF" d="M182.764,121.081c3.317,0,5.023,1.984,5.023,5.457v0.682h-3.225v-0.899c0-1.551-0.62-2.14-1.706-2.14
		c-1.085,0-1.705,0.589-1.705,2.14c0,4.465,6.666,5.302,6.666,11.503c0,3.473-1.736,5.457-5.085,5.457s-5.085-1.984-5.085-5.457
		v-1.333h3.225v1.55c0,1.551,0.683,2.108,1.768,2.108s1.768-0.558,1.768-2.108c0-4.465-6.667-5.302-6.667-11.503
		C177.741,123.065,179.447,121.081,182.764,121.081z"/>
	<path fill="#FFFFFF" d="M188.777,121.329h10.542v3.101h-3.565v18.604h-3.411v-18.604h-3.565V121.329z"/>
	<path fill="#FFFFFF" d="M203.999,135.839l-4.31-14.511h3.566l2.604,9.891l2.604-9.891h3.255l-4.31,14.511v7.193h-3.41V135.839z"/>
	<path fill="#FFFFFF" d="M80.312,180.233h-3.441l-0.589-3.938h-4.186l-0.589,3.938h-3.132l3.473-21.704h4.992L80.312,180.233z
		 M72.53,173.35h3.286l-1.643-10.976L72.53,173.35z"/>
	<path fill="#FFFFFF" d="M89.022,180.233c-0.186-0.558-0.31-0.899-0.31-2.667v-3.411c0-2.016-0.682-2.76-2.232-2.76h-1.178v8.837
		h-3.411v-21.704h5.147c3.535,0,5.054,1.644,5.054,4.992v1.705c0,2.232-0.713,3.689-2.232,4.403c1.706,0.713,2.264,2.356,2.264,4.62
		v3.349c0,1.055,0.031,1.83,0.372,2.636H89.022z M85.301,161.629v6.666h1.333c1.271,0,2.047-0.558,2.047-2.294v-2.14
		c0-1.55-0.527-2.232-1.736-2.232H85.301z"/>
	<path fill="#FFFFFF" d="M93.36,158.529h10.542v3.101h-3.566v18.604h-3.41v-18.604H93.36V158.529z"/>
	<path fill="#FFFFFF" d="M108.799,180.233h-3.411v-21.704h3.411v9.302h3.875v-9.302h3.473v21.704h-3.473v-9.302h-3.875V180.233z"/>
	<path fill="#FFFFFF" d="M125.756,180.233c-0.186-0.558-0.31-0.899-0.31-2.667v-3.411c0-2.016-0.682-2.76-2.232-2.76h-1.178v8.837
		h-3.411v-21.704h5.147c3.535,0,5.054,1.644,5.054,4.992v1.705c0,2.232-0.713,3.689-2.232,4.403c1.706,0.713,2.264,2.356,2.264,4.62
		v3.349c0,1.055,0.031,1.83,0.372,2.636H125.756z M122.036,161.629v6.666h1.333c1.271,0,2.047-0.558,2.047-2.294v-2.14
		c0-1.55-0.527-2.232-1.736-2.232H122.036z"/>
	<path fill="#FFFFFF" d="M130.808,163.738c0-3.473,1.829-5.457,5.178-5.457s5.178,1.984,5.178,5.457v11.286
		c0,3.473-1.829,5.457-5.178,5.457s-5.178-1.984-5.178-5.457V163.738z M134.218,175.241c0,1.551,0.683,2.14,1.768,2.14
		s1.768-0.589,1.768-2.14v-11.72c0-1.551-0.683-2.14-1.768-2.14s-1.768,0.589-1.768,2.14V175.241z"/>
	<path fill="#FFFFFF" d="M147.952,158.281c3.317,0,5.023,1.984,5.023,5.457v0.682h-3.225v-0.899c0-1.551-0.62-2.14-1.706-2.14
		c-1.085,0-1.705,0.589-1.705,2.14c0,4.465,6.666,5.302,6.666,11.503c0,3.473-1.736,5.457-5.085,5.457s-5.085-1.984-5.085-5.457
		v-1.333h3.225v1.55c0,1.551,0.683,2.108,1.768,2.108s1.768-0.558,1.768-2.108c0-4.465-6.667-5.302-6.667-11.503
		C142.929,160.265,144.634,158.281,147.952,158.281z"/>
	<path fill="#FFFFFF" d="M164.847,172.14v2.884c0,3.473-1.736,5.457-5.085,5.457s-5.085-1.984-5.085-5.457v-11.286
		c0-3.473,1.736-5.457,5.085-5.457s5.085,1.984,5.085,5.457v2.108h-3.225v-2.325c0-1.551-0.682-2.14-1.767-2.14
		s-1.767,0.589-1.767,2.14v11.72c0,1.551,0.682,2.108,1.767,2.108s1.767-0.558,1.767-2.108v-3.101H164.847z"/>
	<path fill="#FFFFFF" d="M166.643,163.738c0-3.473,1.83-5.457,5.178-5.457s5.178,1.984,5.178,5.457v11.286
		c0,3.473-1.83,5.457-5.178,5.457s-5.178-1.984-5.178-5.457V163.738z M170.054,175.241c0,1.551,0.682,2.14,1.767,2.14
		s1.767-0.589,1.767-2.14v-11.72c0-1.551-0.682-2.14-1.767-2.14s-1.767,0.589-1.767,2.14V175.241z"/>
	<path fill="#FFFFFF" d="M189.306,163.893v2.821c0,3.473-1.674,5.364-5.085,5.364h-1.612v8.154h-3.411v-21.704h5.023
		C187.632,158.529,189.306,160.42,189.306,163.893z M182.609,161.629v7.349h1.612c1.085,0,1.674-0.496,1.674-2.047v-3.255
		c0-1.55-0.589-2.046-1.674-2.046H182.609z"/>
	<path fill="#FFFFFF" d="M194.017,173.04l-4.31-14.511h3.566l2.604,9.891l2.604-9.891h3.255l-4.31,14.511v7.193h-3.41V173.04z"/>
	<path fill="#FFFFFF" d="M72.685,205.372h4.403v3.101h-4.403v8.961h-3.411v-21.704h9.022v3.101h-5.612V205.372z"/>
	<path fill="#FFFFFF" d="M87.069,217.433c-0.186-0.558-0.31-0.899-0.31-2.667v-3.411c0-2.016-0.682-2.76-2.232-2.76h-1.178v8.837
		h-3.411v-21.704h5.147c3.535,0,5.054,1.644,5.054,4.992v1.705c0,2.232-0.713,3.689-2.232,4.403c1.705,0.713,2.263,2.356,2.263,4.62
		v3.349c0,1.055,0.031,1.83,0.372,2.636H87.069z M83.349,198.83v6.666h1.333c1.271,0,2.046-0.558,2.046-2.294v-2.14
		c0-1.55-0.527-2.232-1.736-2.232H83.349z"/>
	<path fill="#FFFFFF" d="M103.438,217.433h-3.441l-0.589-3.938h-4.186l-0.589,3.938H91.5l3.473-21.704h4.992L103.438,217.433z
		 M95.656,210.55h3.286l-1.643-10.976L95.656,210.55z"/>
	<path fill="#FFFFFF" d="M114.876,209.34v2.884c0,3.473-1.736,5.457-5.085,5.457s-5.085-1.984-5.085-5.457v-11.286
		c0-3.473,1.736-5.457,5.085-5.457s5.085,1.984,5.085,5.457v2.108h-3.225v-2.325c0-1.551-0.682-2.14-1.767-2.14
		s-1.767,0.589-1.767,2.14v11.72c0,1.551,0.682,2.108,1.767,2.108s1.767-0.558,1.767-2.108v-3.101H114.876z"/>
	<path fill="#FFFFFF" d="M115.959,195.729h10.542v3.101h-3.566v18.604h-3.41V198.83h-3.566V195.729z"/>
	<path fill="#FFFFFF" d="M131.243,195.729v16.743c0,1.55,0.682,2.108,1.767,2.108s1.767-0.558,1.767-2.108v-16.743h3.225v16.526
		c0,3.473-1.736,5.457-5.085,5.457s-5.085-1.984-5.085-5.457v-16.526H131.243z"/>
	<path fill="#FFFFFF" d="M147.456,217.433c-0.186-0.558-0.31-0.899-0.31-2.667v-3.411c0-2.016-0.682-2.76-2.232-2.76h-1.178v8.837
		h-3.411v-21.704h5.147c3.535,0,5.054,1.644,5.054,4.992v1.705c0,2.232-0.713,3.689-2.232,4.403c1.705,0.713,2.263,2.356,2.263,4.62
		v3.349c0,1.055,0.031,1.83,0.372,2.636H147.456z M143.735,198.83v6.666h1.333c1.271,0,2.046-0.558,2.046-2.294v-2.14
		c0-1.55-0.527-2.232-1.736-2.232H143.735z"/>
	<path fill="#FFFFFF" d="M156.197,204.875h4.682v3.101h-4.682v6.356h5.891v3.101h-9.302v-21.704h9.302v3.101h-5.891V204.875z"/>
	<path fill="#FFFFFF" d="M176.131,217.433c-0.186-0.558-0.31-0.899-0.31-2.667v-3.411c0-2.016-0.682-2.76-2.232-2.76h-1.178v8.837
		H169v-21.704h5.147c3.535,0,5.054,1.644,5.054,4.992v1.705c0,2.232-0.713,3.689-2.232,4.403c1.705,0.713,2.263,2.356,2.263,4.62
		v3.349c0,1.055,0.031,1.83,0.372,2.636H176.131z M172.41,198.83v6.666h1.333c1.271,0,2.046-0.558,2.046-2.294v-2.14
		c0-1.55-0.527-2.232-1.736-2.232H172.41z"/>
	<path fill="#FFFFFF" d="M184.872,204.875h4.682v3.101h-4.682v6.356h5.891v3.101h-9.302v-21.704h9.302v3.101h-5.891V204.875z"/>
	<path fill="#FFFFFF" d="M192.869,195.729h5.395c3.411,0,5.085,1.892,5.085,5.364v10.976c0,3.473-1.674,5.364-5.085,5.364h-5.395
		V195.729z M196.28,198.83v15.503h1.922c1.085,0,1.736-0.558,1.736-2.108v-11.286c0-1.55-0.651-2.108-1.736-2.108H196.28z"/>
	<path fill="#FFFFFF" d="M208.772,195.729v16.743c0,1.55,0.683,2.108,1.768,2.108s1.768-0.558,1.768-2.108v-16.743h3.225v16.526
		c0,3.473-1.736,5.457-5.085,5.457s-5.085-1.984-5.085-5.457v-16.526H208.772z"/>
	<path fill="#FFFFFF" d="M227.746,209.34v2.884c0,3.473-1.736,5.457-5.085,5.457s-5.085-1.984-5.085-5.457v-11.286
		c0-3.473,1.736-5.457,5.085-5.457s5.085,1.984,5.085,5.457v2.108h-3.225v-2.325c0-1.551-0.683-2.14-1.768-2.14
		s-1.768,0.589-1.768,2.14v11.72c0,1.551,0.683,2.108,1.768,2.108s1.768-0.558,1.768-2.108v-3.101H227.746z"/>
	<path fill="#FFFFFF" d="M228.828,195.729h10.542v3.101h-3.566v18.604h-3.41V198.83h-3.566V195.729z"/>
	<path fill="#FFFFFF" d="M240.856,195.729h3.411v21.704h-3.411V195.729z"/>
	<path fill="#FFFFFF" d="M246.466,200.938c0-3.473,1.83-5.457,5.178-5.457s5.178,1.984,5.178,5.457v11.286
		c0,3.473-1.83,5.457-5.178,5.457s-5.178-1.984-5.178-5.457V200.938z M249.877,212.441c0,1.551,0.682,2.14,1.767,2.14
		s1.767-0.589,1.767-2.14v-11.72c0-1.551-0.682-2.14-1.767-2.14s-1.767,0.589-1.767,2.14V212.441z"/>
	<path fill="#FFFFFF" d="M262.06,201.713v15.72h-3.069v-21.704h4.278l3.504,12.991v-12.991h3.039v21.704h-3.503L262.06,201.713z"/>
</g>
<g>
	<rect x="68.034" y="62.831" fill="none" width="257.266" height="42.734"/>
	<path fill="#39B54A" d="M69.367,70.055c0-4.816,2.537-7.568,7.181-7.568c4.644,0,7.181,2.752,7.181,7.568v15.651
		c0,4.816-2.537,7.568-7.181,7.568c-4.644,0-7.181-2.752-7.181-7.568V70.055z M74.097,86.008c0,2.15,0.946,2.967,2.451,2.967
		c1.505,0,2.451-0.817,2.451-2.967V69.754c0-2.15-0.946-2.967-2.451-2.967c-1.505,0-2.451,0.817-2.451,2.967V86.008z"/>
	<path fill="#39B54A" d="M96.671,92.931c-0.258-0.774-0.43-1.247-0.43-3.698v-4.73c0-2.795-0.946-3.827-3.096-3.827h-1.634v12.255
		h-4.729v-30.1h7.138c4.902,0,7.009,2.279,7.009,6.923v2.365c0,3.096-0.989,5.117-3.096,6.106c2.365,0.989,3.139,3.268,3.139,6.407
		v4.644c0,1.462,0.043,2.537,0.516,3.655H96.671z M91.511,67.131v9.245h1.849c1.763,0,2.838-0.774,2.838-3.182v-2.967
		c0-2.15-0.731-3.096-2.408-3.096H91.511z"/>
	<path fill="#39B54A" d="M102.691,62.831h14.62v4.3h-4.945v25.799h-4.73V67.131h-4.945V62.831z"/>
	<path fill="#39B54A" d="M124.104,92.931h-4.73v-30.1h4.73v12.9h5.375v-12.9h4.816v30.1h-4.816v-12.9h-5.375V92.931z"/>
	<path fill="#39B54A" d="M137.348,70.055c0-4.816,2.537-7.568,7.181-7.568c4.644,0,7.181,2.752,7.181,7.568v15.651
		c0,4.816-2.537,7.568-7.181,7.568c-4.644,0-7.181-2.752-7.181-7.568V70.055z M142.078,86.008c0,2.15,0.946,2.967,2.451,2.967
		c1.505,0,2.451-0.817,2.451-2.967V69.754c0-2.15-0.946-2.967-2.451-2.967c-1.505,0-2.451,0.817-2.451,2.967V86.008z"/>
	<path fill="#39B54A" d="M168.781,70.27v3.913c0,4.816-2.322,7.439-7.052,7.439h-2.236v11.309h-4.729v-30.1h6.966
		C166.458,62.831,168.781,65.454,168.781,70.27z M159.493,67.131v10.19h2.236c1.505,0,2.322-0.688,2.322-2.838v-4.515
		c0-2.15-0.817-2.838-2.322-2.838H159.493z"/>
	<path fill="#39B54A" d="M175.704,75.516h6.493v4.3h-6.493v8.815h8.17v4.3h-12.899v-30.1h12.899v4.3h-8.17V75.516z"/>
	<path fill="#39B54A" d="M186.797,62.831h7.482c4.73,0,7.052,2.623,7.052,7.439v15.222c0,4.816-2.322,7.439-7.052,7.439h-7.482
		V62.831z M191.527,67.131v21.5h2.666c1.505,0,2.408-0.774,2.408-2.924V70.055c0-2.15-0.903-2.924-2.408-2.924H191.527z"/>
	<path fill="#39B54A" d="M204.341,62.831h4.73v30.1h-4.73V62.831z"/>
	<path fill="#39B54A" d="M226.228,81.708v3.999c0,4.816-2.408,7.568-7.052,7.568s-7.052-2.752-7.052-7.568V70.055
		c0-4.816,2.408-7.568,7.052-7.568s7.052,2.752,7.052,7.568v2.924h-4.472v-3.225c0-2.15-0.946-2.967-2.451-2.967
		s-2.451,0.817-2.451,2.967v16.254c0,2.15,0.946,2.924,2.451,2.924s2.451-0.774,2.451-2.924v-4.3H226.228z"/>
</g>
</svg>
